<?xml version="1.0" standalone="no"?>
<!DOCTYPE svg PUBLIC "-//W3C//DTD SVG 1.1//EN" "http://www.w3.org/Graphics/SVG/1.1/DTD/svg11.dtd" >
<svg xmlns="http://www.w3.org/2000/svg">
<metadata></metadata>
<defs>
<font id="movistar_marketregular" horiz-adv-x="1044" >
<font-face units-per-em="2048" ascent="1638" descent="-410" />
<missing-glyph horiz-adv-x="503" />
<glyph horiz-adv-x="0" />
<glyph horiz-adv-x="0" />
<glyph horiz-adv-x="682" />
<glyph unicode="&#xd;" horiz-adv-x="503" />
<glyph unicode=" "  horiz-adv-x="503" />
<glyph unicode="&#x09;" horiz-adv-x="503" />
<glyph unicode="&#xa0;" horiz-adv-x="503" />
<glyph unicode="!" horiz-adv-x="655" d="M217 104q0 24 19 58q1 2 5.5 17.5t12.5 23.5t25 8q30 0 68.5 -20.5t64.5 -22.5q28 -2 28 -31q0 -39 -14 -78q-30 -79 -66 -79q-3 0 -26.5 -1.5t-52.5 -1.5q-23 0 -43.5 47t-20.5 80zM360 483q0 18 7 37q5 13 22 88q11 45 65 241.5t72 315.5q5 33 10 55t14.5 50.5 t25.5 43.5t38 15q9 0 23 -8t22 -10q15 -3 27.5 -15t18.5 -14q21 -6 37 -21.5t16 -29.5q0 -45 -31 -116t-33 -77q-24 -75 -61.5 -208t-71 -237.5t-74.5 -197.5q-6 -14 -11 -19t-15 -5q-38 0 -43 24q-5 29 -31.5 52t-26.5 36z" />
<glyph unicode="&#x22;" horiz-adv-x="716" d="M328 838q0 14 7 29t9 24l72 289q22 96 28 170q2 21 13 31t39 10q11 0 29 -13t36 -16q34 -5 45.5 -20.5t11.5 -38.5q0 -13 -7.5 -42t-21 -79t-22.5 -86l-65 -281q-3 -14 -24.5 -27.5t-35.5 -13.5q-12 0 -34 7t-33 7q-9 0 -28 19t-19 31zM641 823q0 2 6 26l13.5 54t9.5 41 l49 197q15 59 27 121.5t12 74.5q0 19 11 28t38 9q57 0 74 -22q9 -11 23 -24t19 -21.5t5 -22.5q0 -18 -8 -52t-16.5 -62t-19.5 -60l-10 -33l-73 -289q-3 -12 -19 -23t-24 -11q-36 0 -70 12q-28 9 -43 41q-4 8 -4 16z" />
<glyph unicode="#" horiz-adv-x="1331" d="M135 369q0 18 4 26t4 13q0 4 -3 10t-3 10q0 16 15 35q13 18 21.5 22.5t27.5 6.5q18 2 211 2q27 0 37.5 9.5t21.5 33.5l53 127q11 29 11 32q0 13 -19 13q-60 0 -107 -3.5t-67 -3.5q-54 0 -69 6t-15 27q0 6 11 33t12 39q3 27 19.5 39t37.5 12q46 0 96.5 -3t122.5 -3 q28 0 38 8.5t21 36.5l111 281q42 107 57 122q23 23 62 23q5 0 22.5 -6t28.5 -6q22 0 35.5 -18t13.5 -33q0 -34 -10 -46q-46 -63 -53 -77q-43 -89 -105 -236q-10 -23 -10 -33q0 -12 18 -12q6 0 73 3t75 3q22 0 30.5 7t18.5 36l109 273q9 22 31.5 64t25.5 63q3 18 47 18 q19 0 43 -7.5t35 -15.5q39 -24 39 -40q0 -34 -10 -46q-48 -65 -68 -106q-69 -136 -88 -195q-10 -27 -10 -34q0 -11 18 -11q3 0 72 4.5t100 4.5q76 0 78 -9q14 -42 14 -53q0 -16 -15 -26.5t-18 -20.5q-5 -16 -13 -26t-13.5 -12.5t-9.5 -2.5h-68q-26 0 -96.5 -2t-87.5 -2 q-14 0 -21.5 -5.5t-15.5 -25.5q-34 -77 -53 -131q-11 -26 -11 -33q0 -12 19 -12h168q23 0 54 -4.5t32 -9.5q4 -16 13 -23t9 -12q0 -16 -7.5 -34.5t-8.5 -29.5q-1 -15 -13 -25.5t-24 -10.5q-43 0 -103.5 3t-68.5 3q-17 0 -55.5 -1t-44.5 -1q-16 0 -25.5 -7t-17.5 -30 q-17 -46 -119 -281q-34 -77 -50 -106t-30 -29q-53 0 -66 10q-5 4 -15.5 11.5t-14.5 10.5t-7.5 9t-3.5 12q0 19 17 68q8 20 21.5 43.5t15.5 30.5l78 198q10 23 10 33q0 12 -19 12q-6 0 -74.5 -4t-74.5 -4q-11 0 -16.5 -1t-12 -8t-12.5 -22q-81 -196 -113 -264 q-51 -109 -62 -123q-10 -11 -18 -12q-22 0 -36.5 5t-28.5 5q-41 0 -41 43q0 27 16 68q3 9 26 57t44 101l43 108q10 23 10 33q0 12 -18 12q-69 0 -132 -6t-75 -6q-31 0 -31 31zM629 512q0 -14 18 -14q10 0 78 5t72 5q19 0 26.5 7t16.5 32l49 123q10 25 10 32q0 13 -18 13 q-1 0 -69.5 -3t-80.5 -3q-21 0 -27.5 -5.5t-15.5 -29.5l-49 -129q-10 -23 -10 -33z" />
<glyph unicode="$" horiz-adv-x="946" d="M41 397q0 14 15.5 38.5t31.5 25.5q32 4 45 4t22 -2t20 -6t18 -6q28 -7 53.5 -25t25.5 -39q0 -15 -4 -28.5t-4 -36.5q0 -26 27 -66q23 -33 57 -57q15 -11 25 -11q5 0 10 21q16 63 63.5 208t65.5 206q8 28 8 39q0 16 -16 53q-49 109 -69 155t-38 106t-18 103q0 61 19 107.5 t41 70t63 56.5q52 43 139 43q22 0 43.5 -3t34.5 -6.5t16 -3.5q18 0 25 23q31 90 33 107q7 34 104 34q19 0 43.5 -9.5t24.5 -27.5q0 -14 -10.5 -38.5t-10.5 -36.5q0 -17 -27.5 -59t-27.5 -48q0 -10 14 -18q111 -65 184 -174q7 -11 7 -23q0 -22 -21 -43q-10 -10 -30 -22.5 t-25 -16.5q-4 -4 -12 -4q-6 0 -18.5 5t-18.5 5q-18 0 -30 8.5t-24 25t-16 20.5q-17 17 -20.5 22.5t-6.5 14.5t-16 28q-14 19 -22 19q-7 0 -13 -17l-37 -112q-10 -30 -35.5 -103t-38 -113t-12.5 -55q0 -9 13 -35l53 -116q70 -152 95.5 -231t25.5 -179q0 -117 -125 -190 q-10 -6 -51 -13.5t-91 -7.5q-37 0 -69.5 4.5t-51 9.5t-20.5 5q-10 0 -12 -15q-6 -36 -6 -86q0 -34 -26 -51.5t-50 -17.5q-17 0 -38 5t-38 5q-31 0 -31 49q0 7 1 14.5t3 17.5t4 17t6.5 20.5t7 20.5t8.5 24.5t9 26.5q4 12 4 17q0 12 -16 20q-84 45 -143 119q-10 12 -36.5 37 t-41 42.5t-28 57.5t-13.5 92zM508 119q0 -6 9 -12t32.5 -11.5t54.5 -5.5q46 0 73.5 19.5t27.5 60.5q0 131 -68 287q-7 16 -14 16q-5 0 -17 -35q-23 -66 -55.5 -169.5t-34.5 -110.5q-8 -28 -8 -39zM543 1096q0 -38 41 -146q10 -28 20 -28q1 0 2 0.5t3.5 7.5t6.5 20 q24 82 76 224q6 16 6 28q0 8 -21.5 16.5t-47.5 8.5q-86 0 -86 -131z" />
<glyph unicode="%" horiz-adv-x="1597" d="M311 924q0 84 80 243q40 78 110 133.5t156 55.5q63 0 86 -23q18 -18 56 -28q133 -37 190 -37q106 0 171.5 13t94.5 48q20 25 35 25q49 0 76 -19q20 -13 26.5 -22.5t6.5 -30.5q0 -44 -6.5 -58.5t-28.5 -33.5q-48 -41 -104 -129l-574 -907l-119 -181q-19 -28 -65 -28 q-13 0 -35 7t-33 17q-18 15 -18 60q0 36 4 47t14 14q22 7 39 35q24 37 44 50.5t63 82.5q48 78 133 217t130 212t119.5 192.5t153.5 242.5q8 11 8 19t-6 8q-8 0 -43 -6q-18 -4 -74 -4q-14 0 -35 2.5t-37 5t-18 2.5q-6 0 -6 -4v-17q0 -97 -34 -193.5t-99 -174.5 q-42 -50 -85 -78.5t-101 -28.5q-78 0 -128 32.5t-91 88.5q-56 75 -56 150zM473 897q0 -135 88 -135q22 0 37.5 12.5t38.5 50.5q69 116 91 178.5t22 126.5q0 18 -6 34.5t-15 19.5q-17 5 -23.5 15.5t-5.5 19t-6 15.5t-26 7q-36 0 -58 -31q-64 -86 -100.5 -169t-36.5 -144z M924 195q0 136 82 276q64 106 114 146t129 40q47 0 85.5 -13.5t92.5 -43.5q44 -24 67.5 -69t23.5 -95q0 -98 -29 -182t-88 -176q-68 -105 -213 -105q-130 0 -189 66q-75 85 -75 156zM1087 174q0 -13 1.5 -26t7.5 -33.5t21.5 -33.5t39.5 -13q57 0 84 55q70 141 95.5 205.5 t25.5 120.5q0 17 -8.5 35t-18.5 22t-23.5 24.5t-31.5 20.5q-19 0 -29.5 -6.5t-27.5 -30.5q-136 -199 -136 -340z" />
<glyph unicode="&#x26;" horiz-adv-x="1081" d="M127 215q0 51 18 88q37 78 83.5 134.5t125.5 133.5q18 19 52.5 50.5t61.5 55.5t30 28q8 10 8 26q-27 125 -27 203q0 26 10 94q26 125 97.5 191.5t154.5 66.5q76 0 107 -16q16 -7 31.5 -24.5t19.5 -20.5q64 -54 64 -111q0 -41 -35 -151q-12 -37 -63 -95t-156 -163 q-19 -19 -19 -33q0 -6 8 -33q18 -63 95 -295q6 -18 14 -18q5 0 22 14q16 13 35 30t27 23q32 28 67 47q36 23 58 23q14 0 19 -3t9 -16q9 -27 9 -65q0 -45 -12.5 -68t-45.5 -41q-13 -7 -38 -27t-70 -48q-27 -16 -27 -29q0 -15 4 -25q5 -13 18.5 -50t22.5 -60q15 -38 15 -47 q0 -7 -5 -12t-10 -5q-9 0 -28.5 6.5t-28.5 6.5q-3 0 -9.5 -4.5t-19.5 -4.5q-23 0 -45 14.5t-24 26.5q-3 12 -11.5 29.5t-11.5 26.5q-9 24 -18 24q-11 0 -29 -10q-75 -40 -125 -53q-125 -29 -178 -29q-66 0 -109 14q-26 8 -45.5 27.5t-36 46.5t-24.5 35q-35 39 -35 92z M299 195q0 -50 74 -50q32 0 103.5 19t156.5 57q18 7 22 11t4 12q0 2 -1 6t-4 13t-5 18l-80 245q-6 19 -12 19q-8 0 -76 -66q-20 -21 -40 -45.5t-46.5 -59t-29.5 -38.5q-66 -82 -66 -141zM627 952q0 -34 6 -84q3 -26 10 -26t21 14q80 80 116 148q9 18 17 43t10 28 q16 36 16 55q0 17 -10 29t-25 12q-10 0 -25 -3.5t-39 -17.5t-38 -36q-3 -5 -16 -25t-17.5 -29t-12 -27.5t-10.5 -37.5t-3 -43z" />
<glyph unicode="'" horiz-adv-x="475" d="M356 844q0 16 8.5 32.5t10.5 28.5l59 244q28 121 33 197q2 25 12 36t41 11q19 0 41 -17t29 -18q26 -5 39 -17t15.5 -22.5t2.5 -28.5q0 -22 -25 -104t-36 -135l-49 -234q-3 -16 -26 -31.5t-38 -15.5q-5 0 -30 8t-40 8q-9 0 -28 22.5t-19 35.5z" />
<glyph unicode="(" horiz-adv-x="675" d="M223 117q0 229 49 426q20 79 54.5 174.5t88.5 213t134 247.5t174 243q15 18 35.5 29t40.5 31t55 20q34 0 52 -31t18 -57q0 -12 -10 -59t-19 -76q-11 -33 -53 -33q-29 0 -42.5 -7t-37.5 -36q-81 -102 -159.5 -244.5t-119.5 -242.5q-55 -131 -84.5 -277t-29.5 -274 q0 -93 8 -129q6 -27 33.5 -69t27.5 -70q0 -93 -71 -93q-7 0 -27.5 12t-28.5 13q-41 5 -64.5 102.5t-23.5 186.5z" />
<glyph unicode=")" horiz-adv-x="675" d="M-2 -74q0 12 11.5 21.5t28.5 19t23 15.5q61 61 84 61q17 0 54 35q64 61 103.5 116.5t107.5 182.5q81 152 113 305t32 332q0 92 -5.5 175t-10.5 105q-6 26 -29 57.5t-23 63.5q0 25 4.5 34.5t16.5 12.5q10 2 30.5 20.5t49.5 18.5q46 0 88 -47q26 -29 37 -143 q10 -92 10 -205q0 -234 -58 -475t-184 -434q-148 -227 -329 -365q-30 -22 -62 -22q-23 0 -43 14.5t-20 28.5q0 18 -14.5 40.5t-14.5 32.5z" />
<glyph unicode="*" horiz-adv-x="847" d="M299 1008q0 20 4 35t4 22q0 4 2 7.5t6.5 7.5t6.5 7q11 17 32 17q10 0 15.5 -2.5t9.5 -3.5q9 -2 137 -11q9 -1 20.5 -2t17.5 -1.5t7 -0.5q4 0 4 7q0 4 -4 16q-23 66 -41 104q-28 55 -28 82q0 14 8 25t28.5 23t22.5 14q14 14 20.5 17t22.5 3q19 0 35 -45q13 -34 26 -92 q2 -10 8.5 -28t8.5 -25q9 -35 14 -35q9 0 25 27q9 15 44.5 58.5t39.5 49.5q23 36 38 50t33 14h41q21 0 39 -7q3 -1 11.5 -4t12.5 -5t8.5 -6.5t4.5 -10.5q0 -20 -22 -49q-18 -23 -36 -40t-20 -20q-45 -50 -80 -94q-20 -26 -20 -29q0 -4 4 -4q11 0 27 4q31 7 90.5 16t68.5 9 q64 0 64 -27q0 -14 3 -21t3 -16q0 -8 -2.5 -15t-7 -16t-6.5 -14q-13 -26 -35 -26q-20 0 -37.5 -1t-18.5 -1q-27 0 -61.5 -4.5t-63.5 -10t-34 -6.5q-27 -3 -27 -8t12 -22q6 -8 23.5 -39t33.5 -58t23 -32q21 -16 21 -48q0 -10 -8 -20t-20 -20t-15 -13q-17 -20 -37 -20 q-16 0 -29 16l-11 14q-11 14 -20 27t-28 44.5t-39 70.5q-18 35 -23 35q-3 0 -28 -41q-7 -11 -20 -31t-21.5 -35t-18.5 -39q-12 -28 -47 -47q-13 -8 -59 -8q-16 0 -39 15t-23 32q0 5 2 10t6.5 10.5t6.5 8.5l118 176q11 16 11 18q0 6 -56 8q-102 3 -143 9q-22 3 -29 8 q-16 10 -16 37z" />
<glyph unicode="+" horiz-adv-x="1208" d="M233 586q0 11 19 26q18 15 37 15q14 0 28 -4q45 -13 185 -13h55q44 0 49 15q54 166 62 202q24 106 47 113q20 6 39 13t29 10.5t18 3.5q13 0 32 -4.5t23 -8.5q10 -10 10 -20q0 -3 -3.5 -14t-4.5 -13q-25 -83 -44 -144t-28 -88t-10 -32q-4 -10 -4 -14q0 -6 8 -6t23 1t22 1 q21 0 119 11t113 11q47 0 76 -29q8 -8 8 -24q0 -13 -4 -26.5t-12 -31t-11 -24.5q-8 -20 -20 -20q-5 0 -15.5 2t-15.5 2q-27 0 -59 -4q-52 -6 -151 -15t-118 -12q-18 -3 -22 -16q-44 -130 -70 -302q-5 -36 -17 -49.5t-53 -13.5q-5 0 -18.5 -6t-17.5 -6q-21 0 -35 5.5 t-18.5 11.5t-4.5 11q0 49 8.5 89t24.5 92.5t25 91.5l12 55q2 4 2 10q0 11 -10 11h-78q-45 0 -110 7t-83 13q-16 6 -26.5 37.5t-10.5 79.5z" />
<glyph unicode="," horiz-adv-x="532" d="M-29 -262q0 14 15 41l139 239q35 63 102 195q13 26 26.5 34.5t41.5 8.5q40 0 67 -41q9 -13 21.5 -27t17.5 -23t5 -24q0 -7 -7 -18l-266 -406q-6 -10 -17.5 -20.5t-20.5 -15.5t-11 -5q-18 0 -39 7q-24 8 -39 8q-11 0 -23 17.5t-12 29.5z" />
<glyph unicode="-" horiz-adv-x="933" d="M242 594q0 15 6 27q7 12 31 18t43 6q62 0 173 -4t171 -4q22 0 78.5 4t74.5 4q35 0 55.5 -10t20.5 -27q0 -49 -5 -70t-24 -40q-5 -5 -22 -8t-43.5 -7t-46.5 -10t-144 -6q-73 0 -186 8t-123 8q-24 0 -47 58q-12 32 -12 53z" />
<glyph unicode="." horiz-adv-x="581" d="M193 106q0 25 16 41q24 24 27 56q3 31 20 51q14 16 68 16q32 0 62.5 -19t43.5 -44q16 -31 16 -55q0 -32 -16 -80q-15 -44 -43 -66q-23 -18 -76 -18q-21 0 -49.5 17.5t-52.5 53.5q-16 24 -16 47z" />
<glyph unicode="/" horiz-adv-x="819" d="M27 -88q0 33 36 94q7 12 34 49.5t36 53.5l647 1120q27 46 71.5 102.5t55.5 65.5q33 26 64 26q24 0 62 -31t38 -55q0 -22 -5 -33t-22 -30q-22 -24 -48 -45t-35 -35q-94 -136 -208.5 -330t-271.5 -474t-205 -363t-88 -135t-51 -52q-26 0 -37 2.5t-28 12.5q-24 15 -34.5 27 t-10.5 30z" />
<glyph unicode="0" horiz-adv-x="901" d="M123 289q0 75 31.5 201t81.5 233q55 118 135 229.5t196 245.5q14 16 84 16q21 0 64 -26q27 -17 41 -17q7 0 13.5 5.5t21.5 5.5q19 0 76.5 -28.5t72.5 -57.5q49 -95 49 -230q0 -155 -94 -395q-1 -3 -7.5 -21.5t-11.5 -31.5t-18.5 -42.5t-30 -59.5t-44 -77.5t-62.5 -101.5 q-60 -93 -144 -148t-155 -55q-48 0 -139.5 55.5t-128.5 131.5q-3 7 -9.5 28.5t-14 62t-7.5 77.5zM276 238q0 -15 7 -58.5t14 -52.5q0 -1 8.5 -14t14 -19.5t17 -14t23.5 -7.5q21 0 45 10.5t56 35t72.5 75t82.5 122.5q2 3 25 38.5t31 56.5q10 24 42 97t44.5 106t32 92 t27 111.5t7.5 109.5q0 55 -35 104t-77 49q-24 0 -43 -22q-225 -256 -338 -551q-11 -28 -16.5 -49t-7.5 -37.5t-3 -18.5q-2 -11 -9 -38.5t-10.5 -42.5t-6.5 -38.5t-3 -43.5z" />
<glyph unicode="1" horiz-adv-x="901" d="M45 385q0 9 43 49q66 61 119.5 98.5t91.5 79.5q247 275 403 467q33 41 90 120.5t64 96.5q8 18 14 21.5t27 3.5q41 0 77 -15t52 -46q4 -8 4 -19q0 -12 -6 -27q-46 -116 -90.5 -261t-69 -241.5t-69 -281t-62.5 -254.5q-1 -4 -6.5 -25t-8 -32t-5 -31t-2.5 -39 q0 -10 -2.5 -23t-7.5 -29t-16 -27t-26 -11t-30 -3t-23 -3q-60 0 -92 29q-8 8 -8 32q0 28 10 78q6 30 21.5 64t19.5 51q12 46 70 268t86 340q8 28 8 41q0 10 -6 10q-7 0 -19 -14q-113 -138 -204.5 -243.5t-139.5 -156.5t-81 -83t-45.5 -43.5t-16.5 -18.5q-9 -16 -55 -16 q-10 0 -17 1.5t-10 3.5t-6 5l-4 4q-38 25 -41 29q-31 36 -31 51z" />
<glyph unicode="2" horiz-adv-x="901" d="M45 129q0 50 291 328q483 458 483 698q0 19 -12.5 25t-38.5 6q-46 0 -106.5 -36t-100 -76.5t-39.5 -57.5q0 -3 -11 -14.5t-25.5 -28t-20.5 -29.5q-10 -23 -24 -32t-38 -9q-13 0 -28.5 -4t-18.5 -4q-5 0 -19.5 8.5t-30 31t-15.5 50.5q0 36 6.5 51.5t44.5 65.5 q24 32 56 59.5t54 42t74 45.5q67 41 116.5 52.5t137.5 11.5q52 0 127.5 -63.5t75.5 -108.5q0 -83 -28 -168t-76.5 -161t-107 -147.5t-127 -140t-129 -127t-120.5 -120t-94 -107.5q-20 -28 -20 -35q0 -10 26 -22q30 -13 144 -13q100 0 146.5 10t80.5 44q24 24 43 68.5 t33 62.5q19 28 88 28q21 0 61 -37q10 -10 10 -32q0 -29 -25 -112.5t-48 -111.5q-29 -35 -105 -48t-260 -13q-95 0 -147 1.5t-117 10.5t-88 27q-78 64 -78 131z" />
<glyph unicode="3" horiz-adv-x="901" d="M66 229q0 41 49 41q8 0 26 -1t31 -1q3 0 11 2t12 2q18 0 32 -14q8 -9 28 -26t30 -29.5t10 -24.5q0 -24 51.5 -65t102.5 -41q26 0 43 10q118 73 188 235q19 43 37 99t18 71q0 46 -24 82q-22 33 -64 33q-28 0 -63 -14q-2 -1 -21 -5t-41 -16q-9 -5 -33 -18.5t-36 -19.5 t-32 -15t-38 -12.5t-37 -3.5q-37 0 -47 10q-14 14 -24.5 39t-10.5 39q0 11 94 69q16 10 27.5 19t18 16t8.5 8q78 51 143.5 117t106 129.5t63.5 108.5t35 80q6 18 6 26q0 6 -6 6q-24 0 -53 -14q-66 -32 -136.5 -81.5t-70.5 -76.5q0 -17 -8.5 -26t-24 -18t-23.5 -17 q-12 -12 -77 -12q-15 0 -36.5 36.5t-21.5 47.5q0 29 14.5 54.5t30.5 40t45 37t41 33.5q7 7 27 11q18 4 33 11t31.5 17.5t27.5 16.5q47 23 70.5 34t61 22t69.5 11q58 0 86 -20q24 -17 41 -21q38 -10 57 -47q12 -28 12 -37q0 -25 -22 -77l-8 -24t-11 -26 q-57 -99 -119.5 -180.5t-113.5 -130.5q53 0 105 -25t81 -75q29 -53 29 -133q0 -104 -76 -260q-26 -53 -49 -92.5t-57.5 -82.5t-70.5 -70.5t-85.5 -45t-105.5 -17.5q-48 0 -101.5 22.5t-101.5 61t-85 74.5t-71 76q-10 12 -13 18t-3.5 10.5t-3.5 10.5q-8 16 -8 28z" />
<glyph unicode="4" horiz-adv-x="901" d="M66 514l2 11q2 11 2 20q0 13 18 33q36 40 126 143.5t150.5 170.5t153.5 161t178 166q36 30 45 45q15 24 28 33.5t32 9.5q20 0 47 -9q16 -5 37.5 -19.5t21.5 -29.5q0 -48 -16.5 -95.5t-16.5 -57.5q0 -48 -65.5 -264.5t-77.5 -296.5q-2 -14 -2 -29q0 -6 10 -6q14 0 68.5 10 t130.5 10q29 0 46.5 -18t33.5 -60q4 -12 4 -18q0 -37 -47 -37q-37 0 -115 -10q-96 -15 -151 -27q-23 -48 -38.5 -145t-15.5 -146q0 -7 -3.5 -19.5t-4.5 -16.5q-5 -37 -24 -37t-38 5.5t-29.5 11.5t-30 19t-27.5 17q-19 11 -19 43q0 1 19 121q3 22 8.5 46.5t8.5 39t3 16.5 q0 17 -16 17q-28 1 -82.5 2t-85 2.5t-76 10t-86.5 25.5q-10 4 -25 19q-31 31 -56 72t-25 61zM252 506q0 -18 10 -23q47 -28 164 -28q49 0 111 10q12 2 16 6t6 18q38 220 129 486q10 30 10 35q0 6 -4 6q-5 0 -22 -17q-134 -130 -412 -475q-8 -11 -8 -18z" />
<glyph unicode="5" horiz-adv-x="901" d="M35 207q0 11 14 18q6 3 20.5 18t31.5 26.5t34 11.5q13 0 35 -8t29 -13q31 -19 55 -61t41 -60q42 -44 71.5 -60t65.5 -16q18 0 55 33q109 96 181 283q6 16 14 47t18 63q25 81 25 111q0 93 -39 113q-10 6 -39 6q-44 0 -116 -39.5t-150 -118.5q-22 -22 -39 -22 q-20 0 -37.5 4.5t-28.5 9.5t-36 18q-27 13 -27 27q0 4 4 16q22 70 57.5 190t62 205t48.5 146q8 25 51 44.5t68 19.5q13 0 26.5 -7.5t16.5 -7.5q5 0 37 4.5t91 13t97 13.5q152 20 211 20q27 0 67 -21t62 -50q12 -16 12 -35q0 -22 -19 -38.5t-48 -16.5l-47 6q-47 6 -76 6 q-22 0 -51 -2q-195 -13 -353 -53q-13 -3 -18 -21q-7 -24 -28.5 -93.5t-30.5 -100.5q-7 -27 -7 -33t13 -6q1 0 10.5 4.5t26 11.5t36.5 13.5t46 11t51 4.5q159 0 231 -105q43 -62 43 -174q0 -78 -29.5 -158t-82.5 -178q-79 -145 -173.5 -219t-168.5 -74q-103 0 -191 52.5 t-172 142.5q-36 39 -43.5 51t-7.5 27z" />
<glyph unicode="6" horiz-adv-x="901" d="M90 172q0 64 19 119q38 115 82.5 218.5t81.5 175.5t81.5 139t71 102.5t62 73t44 45l25.5 22.5q11 10 51.5 49t69.5 64.5t72.5 49t80.5 23.5t76 -22.5t43 -36.5q8 -31 8 -47q0 -11 -11 -21t-32 -10t-33 3t-28 3q-12 0 -39 -22q-138 -109 -249.5 -255t-155.5 -255 q-19 -48 -19 -55q0 -9 6 -9q9 0 25 11q102 67 123 73q29 9 71.5 24.5t72 23.5t59.5 8q70 0 100 -35q5 -6 17 -20t17 -20.5t13.5 -17.5t14.5 -21t12 -22q4 -8 4 -14q0 -2 -0.5 -4.5t-1.5 -7t-2 -8.5q-92 -309 -396 -514q-55 -35 -143 -35q-30 0 -56 5t-45.5 13.5t-31 15.5 t-24 16.5t-13.5 10.5q-31 21 -44.5 31t-36 32t-32.5 46.5t-10 54.5zM264 145q0 -21 26 -47t48 -26q28 0 89 34t112 87q87 89 186 260q12 21 12 47q0 10 -16 10t-89 -32t-134 -68q-45 -27 -98.5 -70t-67.5 -66q-7 -10 -28.5 -38t-30.5 -47.5t-9 -43.5z" />
<glyph unicode="7" horiz-adv-x="901" d="M156 31q0 42 51.5 141t206.5 332q14 21 14 24q0 11 -18 11q-31 0 -84 6.5t-62 15.5q-10 9 -22 47q-4 12 -4 33q0 3 -2.5 11.5t-2.5 11.5q0 17 10 25.5t23 8.5q26 0 45 -8q7 -3 49.5 -9.5t53.5 -6.5q114 0 125 16q47 68 113.5 155.5t97.5 137.5t59 119q6 15 6 26 q0 21 -78 21q-178 0 -256 -35t-78 -115q0 -15 -17 -22.5t-32 -7.5q-29 0 -44 5t-31 25q-11 14 -17.5 56.5t-13.5 58.5q-8 16 -8 55q0 14 13.5 25.5t40.5 21t53.5 16t68 13t68 9.5t67.5 8q88 10 197 10q130 0 172 -19q23 -12 64.5 -48t41.5 -66q0 -36 -12 -60t-74 -118 q-22 -33 -62.5 -87t-75 -98.5t-36.5 -46.5q-4 -6 -4 -12q0 -8 22 -8q9 0 27 2t23 2q79 0 120 -43q19 -19 19 -31q0 -27 -5.5 -43t-13.5 -16q-6 0 -21 3t-40 3q-63 0 -99.5 -6t-76.5 -17t-86 -18q-145 -207 -215 -347t-70 -202q0 -25 -16 -25q-10 0 -25 -17t-33 -17 q-42 0 -73 38q-6 8 -18 21t-18.5 21.5t-6.5 13.5z" />
<glyph unicode="8" horiz-adv-x="901" d="M61 330q0 45 16.5 84t40 66.5t62 55.5t69 44.5t74.5 40t66 36.5q18 10 21.5 19.5t3.5 48.5q0 15 -1 33t-1 26q0 211 56 348.5t171 178.5q23 8 55 8q42 0 109 -23q19 -6 32 -25t29 -26q63 -27 117.5 -100t87.5 -156q10 -25 10 -61q0 -81 -75 -121q-239 -125 -420 -205 q-4 -10 -4 -47q0 -36 2 -63q12 -166 12 -281q0 -25 -1 -51.5t-6 -66t-13 -69.5t-24 -53t-38 -26q-2 0 -22 -6.5t-37 -6.5q-30 0 -44 1t-33.5 7t-41.5 19q-105 63 -189 164t-84 207zM225 305q0 -63 33 -110q83 -113 123 -113q13 0 20 24q23 73 23 164q0 47 -2.5 96t-5 80.5 t-2.5 34.5q0 17 -11 17q-5 0 -20 -6q-70 -29 -114 -79.5t-44 -107.5zM582 819q0 -37 12 -37q18 0 94 41q7 4 84.5 38t120.5 67q29 23 29 51q0 70 -37 104q-39 37 -62 37q-5 0 -9 -4t-9 -4q-11 0 -20 17.5t-13 35.5q-3 17 -8 17q-9 0 -19 -4q-38 -15 -64 -38.5t-52 -66.5 q-17 -28 -32 -101t-15 -153z" />
<glyph unicode="9" horiz-adv-x="901" d="M145 729q0 33 13 59q30 55 72.5 104t84.5 83.5t99 71.5t101 60.5t108 57.5t102 56q24 13 76 30t84 17q43 0 59 -13q9 -8 34.5 -23t45.5 -32q61 -48 61 -63q0 -33 -10 -56.5t-35 -58.5q-15 -20 -26 -49q-29 -78 -114 -239t-122 -277q-14 -45 -49.5 -142.5t-57 -170.5 t-30.5 -142q-1 -11 -7 -17t-22 -16q-23 -14 -41 -14q-24 0 -39 10q-39 25 -57 42t-18 34q0 8 16 51q83 219 178 496q15 44 15 49q0 6 -7 6q-6 0 -51 -25q-58 -33 -84 -40q-26 -8 -48.5 -11t-33.5 -6q-50 -16 -88 -16q-47 0 -78 22q-8 6 -27 16.5t-32.5 23.5t-30.5 40 q-5 8 -17 22.5t-18 28t-6 31.5zM283 705q0 -10 9 -18.5t25 -8.5q27 0 64 12q182 61 330.5 189.5t185.5 224.5q4 12 4 20q0 6 -6 6t-21 -6q-20 -10 -86 -40t-93.5 -44t-84.5 -43.5t-90 -53t-77 -57.5t-79 -72t-65 -81q-16 -23 -16 -28z" />
<glyph unicode=":" horiz-adv-x="593" d="M328 115q0 4 1.5 11t5.5 23t7 35q7 35 28.5 63.5t49.5 28.5q21 0 39 -10t38 -27t31 -24q13 -7 23 -40.5t10 -65.5q0 -17 -5 -45t-15 -33q-6 -3 -19 -9t-18.5 -8.5t-15 -6t-17.5 -4.5t-18 -1q-8 0 -15 0.5t-12.5 2.5t-9.5 3t-8.5 4.5t-7 5t-6.5 6.5t-5 6.5l-5 7.5t-5 7 q-9 12 -23.5 25t-21 22.5t-6.5 22.5zM424 682q0 37 6.5 61t19.5 44t15 24q17 36 26 42.5t41 6.5q33 0 78 -37q16 -12 30.5 -30.5t14.5 -30.5q0 -36 -10 -76q-9 -34 -26.5 -58.5t-29.5 -32t-18 -7.5q-9 0 -65 14q-82 21 -82 80z" />
<glyph unicode=";" horiz-adv-x="573" d="M-82 -346q0 5 3 10t10 13.5t12 17.5q84 131 175 303.5t118 218.5q16 30 26 33q4 2 9.5 6t9.5 4q21 0 53 -20.5t33 -20.5q34 -10 34 -57v-27q0 -20 -7 -33t-18 -22.5t-14 -13.5q-40 -63 -130 -217.5t-152 -247.5q-11 -17 -22.5 -21t-30.5 -4q-15 0 -36.5 4.5t-31.5 5.5 q-22 1 -31.5 22t-9.5 46zM344 647q0 27 11 69.5t30 69.5q35 54 66 54q26 0 42.5 -8.5t34.5 -30.5q17 -20 35 -34.5t24.5 -21.5t6.5 -20q0 -45 -6 -63q-23 -72 -53 -72q-11 0 -50 -1t-55 -1q-41 0 -63.5 20t-22.5 39z" />
<glyph unicode="&#x3c;" horiz-adv-x="1208" d="M266 449q0 13 15 51q4 11 12 17.5t16 27.5q6 17 27.5 33t97.5 59q24 14 94 53t131.5 74t110.5 65q121 73 155.5 92t57.5 25q8 2 25.5 10.5t31.5 8.5q21 0 39.5 -18.5t18.5 -37.5q0 -7 9 -26t9 -25q0 -9 -6.5 -28t-13.5 -19q-21 0 -105 -51q-9 -6 -35.5 -14t-70.5 -31 q-115 -62 -314 -178q-88 -52 -88 -60q0 -9 27 -24q6 -3 98 -62t135 -82q89 -48 121 -60.5t60 -12.5q20 0 38.5 -16.5t18.5 -35.5q0 -10 -3 -17t-8 -11.5t-17 -16.5t-23 -26q-12 -16 -33.5 -24.5t-36.5 -8.5q-25 0 -60.5 15t-107.5 55q-37 20 -76 44t-73 45t-104 66t-136 86 q-24 14 -30.5 25.5t-6.5 32.5z" />
<glyph unicode="=" horiz-adv-x="1208" d="M250 465q0 5 6 12.5t8 14.5q5 16 37 16q8 0 46.5 -6t104.5 -11.5t142 -5.5q13 0 62 2t77 2q79 0 207 19q69 10 123 10q41 0 59 -16q23 -18 23 -33q-1 -14 -4.5 -29t-9.5 -34t-9 -29q-5 -15 -18 -15q-8 0 -24.5 2.5t-24.5 2.5q-29 0 -41 -2q-175 -29 -387 -29h-58 q-242 0 -260 12q-20 14 -39.5 46t-19.5 71zM285 731q0 9 18 31q10 12 31 12q17 0 33 -4q96 -22 215 -22q44 0 73 2l160 8q8 1 136.5 13.5t146.5 12.5q30 0 43 -3.5t26 -16.5q9 -9 9 -35q0 -38 -19 -82q-8 -16 -33 -16q-61 0 -131 -6l-321 -29q-20 -2 -66 -2 q-68 0 -166.5 8.5t-120.5 13.5q-34 9 -34 115z" />
<glyph unicode="&#x3e;" horiz-adv-x="1208" d="M270 190q0 23 23 39q12 9 26.5 14.5t54.5 23.5t99 50q135 74 350 197q62 36 75 45.5t13 18.5q0 6 -37 28q-217 132 -268 158q-49 24 -79 45.5t-54 30.5q-37 15 -37 65q0 22 10 39q7 13 14 28.5t10 22t8 13t11 8.5t15 2q11 0 25 -13.5t38 -25.5q40 -20 53.5 -34.5 t43.5 -31.5q164 -94 426 -258q24 -14 30 -25t6 -32q0 -30 -14 -51q-8 -11 -14.5 -19.5t-10 -11.5t-6.5 -6t-4 -6q-10 -21 -29 -37t-85 -53q-307 -174 -385 -224q-100 -63 -128.5 -74.5t-84.5 -11.5q-38 0 -53.5 7t-20.5 26q-3 14 -12 30.5t-9 22.5z" />
<glyph unicode="?" horiz-adv-x="737" d="M287 55q0 28 10 58q15 55 35 71.5t47 16.5q23 0 84 -42.5t61 -66.5q0 -56 -18 -74q-53 -53 -103 -53q-21 0 -44 10t-31 21q-4 6 -15 18t-18.5 22.5t-7.5 18.5zM307 578q0 22 12 34q3 3 7.5 12l5.5 11q37 68 95.5 136.5t166.5 182.5q151 159 151 197q0 30 -31.5 51 t-58.5 21q-41 0 -86 -45q-16 -16 -16 -50q0 -5 2 -23t2 -24q0 -43 -49 -43t-82 45q-14 19 -14 76q0 85 45 127q70 64 172 64q98 0 172 -43q39 -23 69.5 -59.5t30.5 -76.5q0 -32 -1 -47t-7.5 -40t-19 -43t-38.5 -51t-63 -70t-94 -93q-55 -53 -103.5 -109t-73 -90.5 t-24.5 -43.5q0 -14 25.5 -24.5t54.5 -10.5q13 0 36 2t36 2q35 0 60 -8.5t36.5 -16.5t13.5 -8q6 0 15.5 -7.5t13.5 -18.5q12 -30 12 -43q0 -11 -11 -20t-24 -11l-16 -4t-24 -5.5t-21 -2.5q-189 0 -287 41q-29 12 -39 21.5t-28 39.5q-19 36 -19 47q0 3 -2 10.5t-2 10.5z" />
<glyph unicode="@" horiz-adv-x="1433" d="M221 467q0 151 40.5 286t137.5 287q59 93 133.5 161.5t147.5 104.5t137 53t121 17q135 0 227 -35t181 -124q39 -39 63 -70t47.5 -76.5t34 -103.5t10.5 -133q0 -232 -158 -437q-82 -108 -194 -108q-59 0 -131 45q-24 14 -35 31t-20 53q-5 20 -11 20q-7 0 -22 -22 q-30 -44 -80.5 -80.5t-97.5 -36.5q-16 0 -36 7.5t-32.5 15.5t-28.5 19.5t-18 12.5q-35 22 -56.5 66t-21.5 94q0 88 45.5 201.5t106.5 183.5q137 156 243 156q41 0 95 -37.5t71 -65.5q17 -26 17 -45q0 -15 32 -33q19 -11 19 -26q0 -25 -8 -43q-70 -158 -87.5 -211.5 t-17.5 -112.5q0 -15 11.5 -32t25.5 -17q33 0 74 37t77 96t60.5 144.5t24.5 171.5q0 85 -23 150.5t-58 103t-85 61t-96.5 31.5t-98.5 8q-42 0 -90 -12t-113 -43.5t-136.5 -102t-133.5 -172.5q-73 -119 -106 -244.5t-33 -222.5q0 -155 89 -250.5t238 -95.5q168 0 314 105 q29 20 53 20q27 0 56.5 -15.5t41.5 -45.5q3 -8 10.5 -14.5t11 -16.5t3.5 -33q0 -9 -15 -16t-36 -13t-27 -10q-175 -119 -385 -119q-69 0 -156.5 29.5t-138.5 69.5q-116 92 -164.5 193.5t-48.5 240.5zM700 473q0 -14 7 -21.5t16 -7.5q26 0 53 25q80 74 143.5 155.5 t63.5 102.5q0 3 -6 11.5t-6 15.5q0 25 18 43q60 63 60 102q0 8 -16 22.5t-23 14.5q-45 0 -103.5 -56.5t-99 -119t-53.5 -101.5q-6 -18 -24.5 -54.5t-22.5 -59.5q-7 -32 -7 -72z" />
<glyph unicode="A" d="M23 315q0 30 12 69.5t18 43.5q11 8 23 8q17 0 46 -17.5t42 -17.5q9 0 24 29q246 458 557 924q23 34 31 42.5t15 8.5q9 0 57 12.5t74 12.5q21 0 43.5 -6t25.5 -13q3 -10 10 -17.5t7 -15.5q0 -10 -15.5 -99.5t-15.5 -94.5q0 -28 -6 -68q-11 -70 -22.5 -195t-17 -211.5 t-5.5 -95.5q0 -12 12 -12q1 0 36 4t70 4q94 0 125 -39q13 -16 13 -22q0 -14 -8 -27q-18 -30 -52.5 -41.5t-95.5 -11.5q-57 0 -90 -20q-14 -9 -18 -15.5t-5 -25.5l-10 -205q-2 -27 -2 -129q0 -46 4 -85.5t10.5 -63t12.5 -40t10 -25t4 -10.5q0 -7 -2 -13t-8.5 -12.5t-8.5 -9 t-12 -9.5l-10 -7q-10 -8 -22 -8q-68 0 -105 37q-19 19 -29 97t-10 163q0 46 4 136.5t4 137.5q0 9 -12 9q-99 -36 -229.5 -76.5t-186.5 -48.5q-11 -2 -17 -7t-13 -22q-33 -73 -33 -143q0 -40 1.5 -64.5t3 -35t1.5 -15.5t-10 -12q-7 -5 -24 -18.5t-29 -20t-25 -6.5 q-12 0 -39 18q-34 22 -45.5 49t-11.5 90q0 35 6.5 78t13.5 72l6 29q0 8 -12 14q-41 22 -53 33t-12 30zM379 426q0 -8 12 -8q17 0 86.5 19t118.5 38l66 24t50.5 17.5t20.5 7.5q13 5 15 23q49 383 49 549q0 32 -6 32q-9 0 -19 -16q-234 -375 -369 -633q-24 -47 -24 -53z" />
<glyph unicode="B" horiz-adv-x="1175" d="M61 334q0 20 24 27.5t91 7.5q6 0 21 -4.5t18 -4.5q5 0 8.5 1t7.5 7t7 19q47 206 87.5 346.5t102.5 300.5q0 6 -6 15q-19 30 -19 67q0 22 13 27q41 18 63.5 52.5t48.5 107.5q20 57 37.5 76.5t38.5 19.5q23 0 70.5 -26.5t73.5 -26.5q20 0 49 16q18 10 58.5 20.5t82.5 10.5 q56 0 109.5 -18t89.5 -50q43 -37 43 -74q0 -95 -179 -303q-25 -29 -52.5 -64t-43.5 -58t-16 -25q0 -4 8 -8q21 -10 67 -13.5t64 -9.5q105 -41 156 -137q14 -27 14 -70q0 -44 -9 -88t-18.5 -74.5t-35.5 -79.5t-39 -70.5t-51.5 -82t-51.5 -80.5q-49 -79 -136 -117.5 t-193 -38.5q-56 0 -120 10t-95 27q-4 2 -26 11.5t-41 20.5t-36 28q-8 -4 -31 -4q-11 0 -23 4t-20 7.5t-21.5 14t-18.5 14.5t-20 17.5t-17 15.5q-13 11 -13 25q0 17 -42.5 64t-43.5 55q-2 19 -18.5 44t-16.5 48zM383 188q0 -16 14 -30q129 -129 271 -129q41 0 77 22.5t72 74 t64 102.5t71 141q52 108 52 217q0 39 -21 65q-20 25 -82 25q-93 0 -264 -113q-98 -67 -168 -67q-11 0 -15.5 -4t-7.5 -17t-21 -83.5t-30 -124.5t-12 -79zM487 664q0 -9 9 -9q11 0 47.5 26t60.5 56q5 6 22.5 30t24.5 32q11 13 96.5 107t124.5 147q36 50 62 97t35.5 71t9.5 32 q0 13 -10 13q-142 0 -293 -107q-18 -13 -25 -29q-5 -13 -19 -43t-20 -47q-8 -22 -43 -116t-58.5 -165t-23.5 -95z" />
<glyph unicode="C" horiz-adv-x="966" d="M127 264q0 52 11 120.5t16 84.5q47 131 103.5 250t133 239.5t175.5 221.5t212 166q20 11 75 22.5t95 11.5q48 0 88 -18q24 -12 29 -19q7 -10 30 -31.5t42 -45.5t24 -49q2 -10 2 -23q0 -16 -16 -57q-10 -25 -26 -60.5t-27 -63t-19 -57.5q-4 -17 -22 -27.5t-41 -10.5 q-11 0 -36 4l-24 4q-15 2 -41 23t-26 38q0 43 34 92t37 74q1 5 13 26t12 35q0 17 -4 24t-14 7q-36 0 -90.5 -27t-84.5 -55q-58 -54 -92.5 -95.5t-136.5 -180.5q-156 -212 -260 -555q-10 -34 -10 -119q0 -14 8.5 -39.5t17.5 -32.5q9 -8 23.5 -21t22 -20t19 -12.5t23.5 -5.5 q148 0 406 258q27 27 39.5 34t38.5 7h33q46 0 69 -39q12 -19 12 -33q0 -5 -2.5 -8t-10.5 -10t-13 -12q-23 -22 -74 -73t-78.5 -77.5t-77 -65.5t-87.5 -59t-90 -35.5t-105 -15.5q-36 0 -85 8.5t-75 20.5q-54 26 -107.5 72t-58.5 85q-10 78 -10 125z" />
<glyph unicode="D" horiz-adv-x="1134" d="M8 174q0 35 41 35q7 0 32.5 -3t43.5 -3q14 0 31 -11.5t24 -11.5q11 0 13 6q85 347 249 748q0 8 -1.5 10t-6.5 2q-6 0 -42 -23.5t-56 -23.5q-15 0 -28 13t-13 32q0 34 2 50t7.5 34.5t23 34.5t42 35t70.5 51q95 64 211 107.5t221 43.5q131 0 197 -47q8 -5 50 -32.5 t66.5 -48.5t47.5 -52q22 -29 31.5 -63.5t9.5 -104.5q0 -90 -55 -194q-8 -15 -17.5 -40t-19.5 -46q-42 -87 -77 -153.5t-81 -144t-93.5 -137.5t-103.5 -116.5t-121 -99t-137 -68.5q-23 -8 -65 -8q-52 0 -154 26q-1 -12 -13.5 -15t-41.5 -3q-26 0 -62 24t-51 52 q-174 71 -174 145zM352 104q0 -9 2 -12t11 -6q21 -6 63 -6q108 0 197 86q255 252 424 668q47 118 47 165q0 14 -7.5 52.5t-17.5 54.5q-50 72 -137 72q-46 0 -129 -28.5t-88 -29.5q8 -8 8 -14q0 -20 -16 -35.5t-23 -30.5q-9 -20 -66.5 -148t-73.5 -164.5t-59.5 -144 t-61 -166.5t-40 -147t-33.5 -166z" />
<glyph unicode="E" horiz-adv-x="1040" d="M160 147q0 59 14 125.5t29 110t44.5 119t41.5 108.5q-27 27 -27 64q0 18 4 24q6 11 60 25q13 3 18 7.5t12 21.5q86 192 103 258q0 10 -8 10q-4 0 -31.5 -8t-44.5 -8q-23 0 -39 8q-20 10 -36.5 45t-16.5 57q0 11 12 14q46 12 100.5 29.5t84 28t100.5 37t86 32.5 q86 32 252.5 68.5t302.5 36.5q45 0 69 -12q41 -21 71 -49t30 -54q0 -23 -6.5 -31t-24.5 -8q-9 0 -25.5 -6t-25.5 -6q-5 0 -28.5 10t-45.5 10q-232 0 -516 -96q-18 -6 -25 -24q-13 -36 -112 -289q0 -8 8 -8q12 4 55 20t63.5 23t56.5 17.5t66.5 15t59.5 4.5q78 0 153 -41 q27 -14 27 -66q0 -16 -39 -28.5t-59 -12.5q-13 0 -36.5 3t-31.5 3q-56 0 -117.5 -16t-130 -41.5t-102.5 -34.5q-52 -13 -61 -33q-60 -133 -83.5 -189t-48 -135t-24.5 -130q0 -25 17 -47.5t34 -22.5q77 0 166 39q36 16 83.5 35t55.5 22q37 16 101 56.5t120 66t111 25.5 q17 0 21 -6q1 -1 32 -25t31 -39q0 -24 -12 -27q-23 -6 -45 -26q-35 -31 -56 -41q-76 -41 -116 -61.5t-115.5 -53.5t-133.5 -49.5t-138 -29.5t-160 -13q-21 0 -77 23.5t-81 60.5q-16 23 -16 104z" />
<glyph unicode="F" horiz-adv-x="913" d="M180 584q0 7 13 12q31 12 78 22t57 13q14 3 20 18q26 63 77.5 191t74.5 184q0 7 -1.5 8.5t-6.5 1.5q-9 0 -93.5 -39t-101.5 -39q-25 0 -52.5 27.5t-27.5 42.5q0 16 13.5 39t15.5 29q5 12 14 14q106 25 318 109q44 16 59 20q31 8 116.5 30.5t132 34t115.5 22.5t123 11 q38 0 62 -2.5t61 -20.5t62 -52q8 -11 8 -43q0 -19 -1.5 -24t-10.5 -9q-44 -23 -86 -23q-5 0 -12.5 7t-15 15.5t-26 15.5t-43.5 7t-71.5 -11t-63.5 -13q-49 -6 -133 -29.5t-109 -28.5q-22 -5 -22 -32q0 -23 -4 -31q-8 -15 -44 -83.5t-49 -96t-34 -79.5t-33 -97q0 -11 14 -11 q36 9 347 70q30 6 38 6q9 0 37 -12q53 -22 67.5 -36.5t14.5 -39.5t-22 -29q-32 -6 -161.5 -31t-211 -42.5t-160.5 -36.5q-12 -3 -15.5 -6.5t-8.5 -14.5q-23 -46 -47 -139t-41 -131q-13 -29 -15 -41q-18 -103 -18 -141q0 -23 2 -36.5t2 -19.5q0 -15 -10 -21.5t-19 -6.5 q-72 0 -135 37q-14 8 -14 24q0 37 4 74.5t16.5 90t17.5 72t25 88t21 70.5q4 14 4 25q0 8 -9 14t-22 6q-28 0 -47.5 18.5t-19.5 43.5q0 2 -6.5 15t-6.5 20z" />
<glyph unicode="G" horiz-adv-x="1220" d="M127 168q0 50 6.5 107t31.5 149.5t65 185.5t115 210t175 227q90 99 221 193.5t226 113.5q30 6 71 6q48 0 119 -25t105 -51q26 -20 43.5 -50t17.5 -60q0 -39 -7.5 -80t-15 -65t-18 -52t-10.5 -29q-7 -22 -36.5 -51t-51.5 -29q-10 0 -26 9t-19 10q-47 9 -58 31 q-2 5 -7.5 12t-9 13t-3.5 9q0 19 23 43.5t28 42.5q6 21 18.5 37t19.5 37t7 68q0 51 -63 51q-23 0 -62 -8q-36 -8 -69.5 -23t-69 -43t-52.5 -43t-56.5 -55t-45.5 -45l-55 -53q-134 -130 -232 -309.5t-139 -358.5q-12 -54 -12 -90q0 -41 3 -63t6.5 -27t10 -14t11.5 -21 q4 -12 26.5 -20.5t44.5 -8.5q36 0 100 27.5t122 79.5q92 81 163 139t100 81t48 44q86 96 86 117q0 10 -14 10q-18 0 -91 -23.5t-88 -23.5q-63 0 -84 16q-31 23 -40 34t-9 30q0 31 6.5 41t32.5 14q20 4 48.5 6t43.5 6q97 27 127 37q70 23 131 23q20 0 67.5 -44.5t47.5 -74.5 q0 -25 -33 -92q-76 -157 -107.5 -307t-31.5 -240q0 -11 -30 -29t-46 -18q-22 0 -34 7t-31 7q-21 0 -27 7t-6 26q0 33 11 88.5t21.5 98t10.5 44.5q0 6 -6 6q-8 0 -70 -57q-109 -100 -171 -135t-161 -62q-47 -12 -81 -12q-112 0 -187 78q-51 53 -72.5 91.5t-21.5 78.5z" />
<glyph unicode="H" horiz-adv-x="1150" d="M-25 516q0 11 9.5 20t23.5 9q12 0 43.5 -9.5t46.5 -9.5q16 0 81 10.5t100 20.5q14 4 20 16q18 38 41.5 121.5t40.5 122.5q160 376 264 565q14 25 62 25q10 0 32.5 -12.5t48.5 -20.5q13 -4 22 -15t9 -20q0 -20 -6 -30q-60 -86 -105.5 -185.5t-94.5 -224t-95 -215.5 q-12 -25 -12 -47q0 -21 12 -21q170 26 313 68q11 3 17 8.5t12 18.5q17 37 34.5 79t30 74.5t30 83t26 76.5t27.5 84.5t26 79.5q4 13 15 20q2 1 12 10.5t19 13t22 3.5q9 0 30.5 -3t38.5 -3q22 0 41 -13.5t19 -33.5q0 -38 -21 -97q-20 -56 -67 -162.5t-68 -166.5q0 -17 15 -17 t79 19.5t82 19.5q38 0 70 -14q12 -6 20 -6q17 0 34.5 -15t27.5 -34q3 -6 7.5 -12.5t6 -9.5t3 -10t1.5 -20q0 -28 -16 -28q-61 0 -120.5 -8.5t-135.5 -25.5t-107 -22q-11 -2 -17.5 -5t-8.5 -6l-6 -9q-17 -28 -29.5 -63.5t-25.5 -83t-21 -70.5q-46 -141 -78 -418 q-1 -11 -16 -19t-31 -8q-37 0 -80 17q-28 11 -41 74q-4 20 -4 30q0 31 8 58q16 53 46 185t50 191q9 27 9 48q0 22 -23 22l-287 -57q-21 -4 -30 -19q-26 -45 -50.5 -152t-27.5 -114q-8 -16 -8 -51q0 -21 5 -51.5t5 -38.5q0 -32 -7.5 -46t-33.5 -14q-41 0 -57 13 q-13 10 -30 16.5t-28 15.5q-5 4 -10.5 10.5t-9.5 9.5t-8 3q-13 0 -13 20q0 41 9 76l6 33q3 20 13 68.5t18 88.5t8 52q0 10 -9 10q-4 0 -42 -6t-62 -6q-85 0 -127 49q-8 9 -15.5 44t-7.5 46z" />
<glyph unicode="I" horiz-adv-x="520" d="M94 -29q0 12 13.5 72t25.5 82t19 49q36 144 82.5 292t109.5 330t96 285q5 16 31.5 68.5t50.5 132.5q8 25 82 25q35 0 76 -18.5t41 -41.5q0 -51 -12 -77t-50 -64q-12 -12 -26 -49q-41 -105 -87.5 -235.5t-73.5 -211.5t-83.5 -253t-75.5 -228q-4 -12 -4 -20q0 -5 2 -15 t2 -16q0 -48 -39 -125q-4 -8 -26 -8q-12 0 -25 -21q-10 -16 -18 -16t-17 10t-18 10q-14 0 -37.5 15.5t-26.5 15.5q-12 0 -12 12z" />
<glyph unicode="J" horiz-adv-x="819" d="M4 199q0 100 19 180q11 43 32 78t39 35t38.5 -4.5t25.5 -4.5q27 0 49 -22t22 -51q0 -18 -16.5 -47.5t-22.5 -53.5q-5 -23 -13 -37t-10.5 -33t-2.5 -75q0 -63 16 -108.5t32.5 -62t29.5 -16.5q39 0 73.5 23.5t77.5 93.5q38 61 62.5 115.5t62.5 165.5q109 314 165 453 t171 391q0 6 -2 7t-10 1q-44 -8 -119.5 -28.5t-93.5 -24.5q-15 -4 -35 -17q-45 -27 -115 -27q-38 0 -73 7q-25 5 -31 28q-3 11 -13 18t-10 23q0 18 7.5 47t7.5 31q1 10 5.5 13t16.5 3q66 0 278 46.5t304 46.5q21 0 76 -37q45 -30 45 -53q0 -37 -14 -61t-38.5 -52t-38.5 -57 q-211 -441 -337 -846q-48 -151 -117 -262q-53 -87 -123.5 -145t-132.5 -58q-32 0 -78.5 25.5t-60.5 29.5q-71 22 -109.5 111t-38.5 211z" />
<glyph unicode="K" horiz-adv-x="1089" d="M84 51q0 27 10 60q92 294 224.5 599t252.5 533q14 28 29 39q6 4 20 18.5t28 23.5t30 9q14 0 22 -4q6 -3 12.5 -10.5t20.5 -13.5q4 -2 15 -5t20 -7t14 -9q15 -15 15 -43q0 -7 -15 -31q-137 -204 -227 -415q0 -7 2 -9t12 -2q11 0 43 11q5 2 19.5 5t38.5 15q409 202 651 492 q10 12 20 12q61 0 107 -39q5 -4 15.5 -6.5t13.5 -5.5q12 -12 12 -23q0 -7 -19 -31q-194 -237 -481 -407q-91 -54 -305 -162q-18 -9 -23.5 -16t-5.5 -21q0 -21 17 -55q13 -26 20.5 -53.5t14.5 -42.5q46 -94 143.5 -229.5t193.5 -231.5q38 -38 60 -49q86 -44 86 -86 q0 -35 -31 -39q-17 -2 -26 -8.5t-29 -6.5q-119 0 -234 136q-19 22 -67 75t-70 80q-88 112 -151.5 240t-96.5 235q-3 11 -8 11t-10 -9q-152 -301 -195 -552q-2 -12 -8 -19.5t-31 -23.5q-21 -13 -36 -13q-10 0 -23 14t-31 21q-32 12 -45.5 22t-13.5 27z" />
<glyph unicode="L" horiz-adv-x="921" d="M135 80q0 31 35 115q4 11 8 37.5t19 70.5q55 160 124.5 321.5t181.5 398t146 310.5q10 23 64 23q8 0 21.5 -11t35.5 -16q20 -5 39.5 -18.5t19.5 -24.5q0 -30 -14 -61t-14 -43q0 -9 -13 -19q-52 -42 -104 -174q-7 -18 -15 -34t-19.5 -38.5t-20.5 -42.5 q-154 -336 -279 -700q-8 -20 -8 -43q0 -14 9 -26.5t22 -12.5q17 0 86 17q168 44 411 141q10 4 37 4q20 0 54 -15t57 -38q14 -14 14 -25q0 -2 6 -13t6 -22q0 -18 -6 -28q-14 -21 -86 -21q-23 0 -39 -4q-74 -18 -189 -60.5t-214.5 -69t-198.5 -26.5q-28 0 -54 11t-48.5 32.5 t-35.5 36.5t-30 39q-8 11 -8 29z" />
<glyph unicode="M" horiz-adv-x="1339" d="M76 41q0 33 14.5 69t32.5 69t22 50q46 177 133 379t193 421t156 343q15 39 22 39q10 0 24 -4t32 -6q69 -8 94 -33q12 -12 12 -22q0 -16 -8.5 -51.5t-23.5 -89.5t-19 -70q-19 -73 -19 -215q0 -1 1 -28.5t2 -91.5t1 -155q0 -24 13 -24q4 0 24 22q77 85 284.5 276t295.5 304 q16 20 29 20q30 0 56 -8t34 -8q4 0 15.5 -10.5t22.5 -31.5t11 -42q0 -6 -10 -21q-167 -251 -257.5 -541.5t-129.5 -715.5q-2 -22 -4 -32t-4 -12.5t-7 -2.5q-6 0 -22 8t-25 8q-6 0 -11 -4t-11 -4q-37 0 -82 39q-9 7 -11 9.5t-4 6t-2 8.5q0 10 36.5 229.5t45.5 266.5 q16 86 105 354q0 9 -9 9q-3 0 -10 -7q-144 -144 -289 -309q-18 -20 -26 -20q-2 0 -11 2.5t-26.5 7.5t-36.5 8q-24 4 -36.5 7t-29.5 13.5t-28 26.5q-14 22 -27 74t-16 113v198q0 10 -6 10q-5 0 -9 -6t-16 -28q-70 -133 -155 -367q-127 -351 -127 -483q0 -10 -14.5 -22.5 t-24.5 -12.5q-17 0 -29 -10.5t-18 -10.5q-9 0 -39.5 16.5t-36.5 16.5q-11 0 -26 25.5t-15 50.5z" />
<glyph unicode="N" horiz-adv-x="1224" d="M111 0q0 40 52.5 227.5t111 380.5t61.5 205l18 70q63 242 84 331q3 12 10 17.5t13.5 5.5t12 3t5.5 11q0 4 -15 40t-15 77q0 14 20 23q45 18 123 18q8 0 16.5 -8t12.5 -21q45 -134 73.5 -297t40.5 -294t36 -297.5t60 -298.5q8 -31 17 -31q4 0 18 31q32 69 60.5 140.5 t57.5 159t46 141.5t50.5 163.5t45.5 150.5q6 19 18 52.5t19 60.5q9 34 17 109t18 112q8 29 14.5 36t28.5 7q15 0 44 -6t40 -6q19 0 46.5 -29t27.5 -39q0 -36 -23 -78q-5 -10 -9 -20.5t-9 -28.5t-10 -33q-11 -31 -131 -402.5t-220 -621.5q-16 -41 -28 -53 q-31 -30 -51.5 -41.5t-45.5 -11.5q-26 0 -73 22q-53 26 -73.5 51t-33.5 70q-42 138 -85.5 435.5t-57.5 353.5q-4 18 -7.5 23t-9.5 5q-9 0 -16 -28q-7 -26 -62.5 -203t-97 -341t-53.5 -288q-6 -65 -6 -73q0 -15 -22 -26t-54 -11q-29 0 -41.5 2.5t-22.5 10.5t-16 11 q-30 15 -30 31z" />
<glyph unicode="O" horiz-adv-x="1003" d="M180 301q0 201 62.5 370.5t185.5 348.5q121 178 240 250q37 22 53 22q18 0 45 -12q76 -33 106 -33q28 0 46 -16q145 -130 145 -359q0 -61 -21 -147q-50 -207 -114 -369t-158 -280q-49 -61 -124 -93t-161 -32q-63 0 -123 18q-25 8 -59 36.5t-57 62.5q-36 54 -51 105.5 t-15 127.5zM346 303q0 -127 70 -197q6 -6 27.5 -12t39.5 -6q38 0 79 22t63 54q75 113 130 241.5t79.5 231t35.5 169t11 97.5q0 52 -2 68q-17 109 -86 131q-13 4 -13 16q0 9 -4.5 15t-9.5 6q-24 0 -84 -62q-101 -104 -179 -234.5t-122 -271.5l-7 -21q-7 -22 -9 -32 t-5.5 -31.5t-3.5 -42.5q0 -3 -5 -59t-5 -82z" />
<glyph unicode="P" horiz-adv-x="1003" d="M152 2q0 6 8 39q2 9 17 76t27.5 113t24.5 77q13 33 13 39q0 26 35.5 128.5t39.5 129.5q0 11 -8 17q-39 29 -39 51q0 19 13 22q2 0 11.5 7t24 12.5t29.5 5.5q5 0 8 8q14 43 29 83.5t23 65t16 58.5q0 5 -0.5 6.5t-3 2.5t-8.5 1q-11 0 -27 10t-25 19.5t-13.5 18t-8.5 12.5 q-14 14 -14 22q0 22 15.5 41t55.5 45q67 43 89 56.5t84.5 51t94 52t89 40t99.5 36t96.5 19.5t107.5 9q36 0 53.5 -1.5t41.5 -11t48 -30.5q40 -33 55 -60.5t15 -84.5q0 -52 -15 -105t-30 -84.5t-49 -93.5q-62 -116 -157.5 -225.5t-201.5 -192.5q-20 -16 -85.5 -37.5 t-121.5 -21.5q-27 0 -48 6t-30.5 11.5t-26 19t-24.5 18.5q-14 9 -16 9q-5 0 -8 -4.5t-9 -22.5q-42 -126 -83 -295t-41 -197q0 -12 -15 -22q-24 -17 -47 -17q-20 0 -27 7q-17 17 -38.5 25.5t-36.5 23.5q-6 6 -6 12zM514 631q49 -42 74 -59t45 -17q13 0 31 12q98 65 185.5 162 t145.5 203q36 67 67.5 147t31.5 125q0 7 -2 11t-14 7t-36 3q-16 0 -36 -6q-25 -7 -87 -22.5t-94.5 -26t-78 -34.5t-78.5 -57q-14 -38 -53 -138t-63 -172t-38 -138z" />
<glyph unicode="Q" horiz-adv-x="1134" d="M168 360q0 122 39 250q18 61 22 68q148 296 320 444q17 14 45 31.5t39 24.5q72 49 159.5 75.5t129.5 26.5q34 0 82 -23q12 -6 43 -16t60.5 -24t55.5 -37q37 -32 55.5 -91.5t18.5 -170.5q0 -109 -78.5 -275.5t-214.5 -349.5q-6 -8 -6 -21q64 -123 157.5 -247.5 t166.5 -176.5q26 -19 26 -26q0 -35 -61 -35q-51 0 -82.5 9t-59.5 32q-127 108 -249 285q-10 14 -17 14q-9 0 -14 -8q-65 -69 -153 -113.5t-142 -44.5t-73 2.5t-44 11.5q-14 4 -59 35.5t-55 36.5q-66 35 -91 143q-20 84 -20 170zM344 348q0 -42 4 -79.5t14.5 -78.5 t32.5 -65.5t54 -24.5q96 0 268 172q10 10 10 27q-133 267 -139 293q-10 45 -10 51q0 37 53 37q23 0 53.5 -12.5t50.5 -12.5q28 0 37 -30q8 -25 18 -59.5t16 -51.5t11 -27q17 -32 25 -32q7 0 24 22q81 103 142 244t61 254q0 94 -16.5 134t-57.5 40q-30 0 -73 -11.5t-72 -25.5 q-204 -99 -367 -344q-139 -207 -139 -420z" />
<glyph unicode="R" horiz-adv-x="1011" d="M147 57q45 335 209 805q13 37 27 56q10 14 26.5 61t22.5 59q0 9 -8 9q-14 0 -44 36.5t-30 53.5q0 16 15 26q79 57 192 101.5t236 44.5q94 0 165 -23q17 -6 28.5 -11t15.5 -7t8.5 -6.5t5.5 -4.5q39 -28 51 -41t23 -36q30 -58 30 -146q0 -81 -39.5 -173.5t-119.5 -178.5 q-55 -59 -126 -90t-206 -70q-11 -3 -15 -6.5t-4 -11.5q12 -30 35.5 -68.5t56 -88t48.5 -75.5q9 -14 20 -28q59 -69 115 -121q47 -42 78.5 -57.5t72.5 -24.5q20 -4 41 -43t21 -70q0 -14 -19.5 -22t-44.5 -8q-66 0 -174 67q-44 28 -82.5 59.5t-72 68.5t-58.5 69t-53.5 78.5 t-47 78t-48 85.5t-47.5 85q-9 15 -17 15q-12 0 -18 -21q-38 -122 -63 -258.5t-25 -195.5q0 -16 -22 -26.5t-62 -10.5q-9 0 -14 1t-8 2.5t-11 6.5t-18 10q-1 0 -7.5 3.5t-10 5t-10 6t-9.5 8.5t-6 10t-3 12zM485 684q0 -9 7 -14q21 -15 53 -15q25 0 69 15q12 4 27 6t30 7.5 t40 21.5q102 65 169.5 168t67.5 229q0 43 -14 57q-29 29 -90 29q-56 0 -129 -25q-20 -7 -27 -18q-120 -201 -203 -461z" />
<glyph unicode="S" horiz-adv-x="884" d="M41 471q0 15 15.5 37t29.5 22q57 0 104 -28q28 -18 50 -41t22 -31q0 -14 -7 -36t-7 -46q0 -9 12 -33q40 -72 121.5 -138t167.5 -95q24 -8 53 -8q26 0 48 22.5t22 53.5q0 89 -10 157q-19 121 -78.5 329t-79.5 314q-19 109 -19 158q0 35 2 45q1 7 5 27t6 31t7.5 30.5 t11.5 30.5t15.5 25.5t20.5 22.5t27.5 13.5t35.5 5.5q94 0 170 -25t138 -93q56 -61 73 -168q2 -11 7.5 -35t5.5 -31q0 -10 -13 -18t-30 -8q-14 0 -35 6q-43 11 -90 71q-8 11 -15.5 44t-21.5 64t-41 46q-21 12 -45 12q-8 0 -19 -18.5t-20.5 -58t-9.5 -85.5q0 -87 28 -202 q5 -22 67.5 -251t78.5 -325q14 -89 14 -135q0 -62 -34.5 -111t-92.5 -71q-16 -6 -80 -6q-134 0 -263 72t-228 196q-5 6 -27 30.5t-35.5 41.5t-29.5 52.5t-23 76.5q-4 23 -4 61z" />
<glyph unicode="T" horiz-adv-x="794" d="M221 55q0 36 10 86q130 537 326 938q0 8 -12 8q-145 -10 -150 -10q-33 0 -66 9t-48 24q-5 5 -5 59q0 33 16 52.5t30 19.5q4 0 16 -3.5t46.5 -7t94.5 -3.5q97 0 294 32.5t304 32.5q52 0 120.5 -40.5t68.5 -61.5q0 -54 -27 -62q-3 -1 -12.5 -7t-21.5 -10.5t-27 -4.5 q-8 0 -17.5 10.5t-25.5 16.5q-11 4 -22.5 9t-16.5 7.5t-12 4t-15 1.5q-138 0 -305 -31q14 -14 14 -24q0 -5 -4 -13q-267 -452 -358 -933q-10 -55 -10 -72q0 -8 1 -24.5t1 -24.5q0 -32 -11.5 -49t-44.5 -17q-32 0 -104 39q-8 5 -17.5 22t-9.5 27z" />
<glyph unicode="U" horiz-adv-x="1228" d="M176 201q0 151 55 323q43 136 141 380.5t128 328.5q1 3 22 45q13 26 27 40.5t35 14.5q3 0 7.5 -1.5t9 -4t16 -8t24.5 -10.5q39 -15 47 -31q10 -20 10 -53q0 -9 -18 -51q-35 -89 -95.5 -223.5t-100.5 -224.5t-78.5 -209t-53.5 -222q-8 -58 -8 -113q0 -30 10 -30 q39 0 80 41q253 253 428.5 475t274.5 385q10 16 19.5 39t29.5 55q9 16 30.5 37.5t28.5 21.5l23 -4q22 -4 45 -4q11 0 22 -18l29 -45q12 -20 12 -29q0 -10 -14 -45q-16 -43 -63 -126t-64 -126q-148 -400 -148 -813q0 -20 0.5 -34t1.5 -20.5t1 -7.5q0 -20 -29 -20q-14 0 -20 2 t-12 6t-15 6q-18 5 -72 39q-4 2 -12.5 6t-12.5 7t-8 10t-4 16q0 26 10 43q9 14 11 33q5 44 12 131.5t15 151.5t22 118q6 24 6 33q0 10 -10 10q-7 0 -17 -10q-103 -119 -158 -182t-150 -162.5t-169 -163.5q-14 -13 -41.5 -23t-52.5 -10q-20 0 -45.5 9t-38.5 22 q-17 17 -57.5 27.5t-55.5 38.5q-10 20 -10 129z" />
<glyph unicode="V" horiz-adv-x="962" d="M246 133q0 5 3 16t3 19q0 23 4 47q13 129 64.5 458t58.5 478q1 20 7.5 41.5t6.5 69.5q0 53 45 53q3 0 26 -2t42 -2q38 0 53 -31q12 -24 14 -57q0 -27 -2 -43q-12 -86 -63.5 -405.5t-69.5 -493.5q-2 -18 -2 -48q0 -34 10 -34q6 0 15.5 4.5t28 20t39 39t50 67.5t60.5 100 q53 99 151.5 275t133.5 239q80 148 80 252q0 17 -2.5 30.5t-2.5 16.5q0 31 45 31q14 0 32.5 -1t25.5 -1q10 0 14.5 -4t10 -13t14.5 -16q45 -32 45 -63q0 -42 -29 -136t-63 -149q-57 -90 -133.5 -231.5t-132.5 -248.5t-132.5 -223t-148.5 -188q-39 -39 -53 -39q-7 0 -24 6 t-34 6q-15 0 -24.5 -6t-16.5 -6q-19 0 -50 17.5t-60 46.5q-13 13 -13 30q0 9 -13 35t-13 43z" />
<glyph unicode="W" horiz-adv-x="1400" d="M209 137q0 43 20 176q2 14 5.5 44.5t11.5 66.5q28 126 68 271.5t90.5 317t76.5 267.5q5 20 16 27.5t48 7.5q10 0 20.5 -2t23.5 -5.5t19 -4.5q7 -1 29 -25t22 -29q0 -2 -6 -20q-150 -359 -274 -953q-10 -49 -10 -65q0 -10 6 -10q14 0 53 41q100 103 189.5 229t138.5 234 q21 48 32 96q10 47 33 102q7 17 17 17q9 0 29 -5l24 -6q25 -3 43 -24q35 -41 35 -76q0 -29 -6 -47q-60 -193 -60 -369q0 -120 27 -258q4 -18 14 -18t31 28q210 278 332 803q12 52 12 90q0 24 2 55t2 62q0 32 -20.5 69.5t-20.5 67.5q0 38 5.5 55t21.5 17q6 0 25.5 -2t35.5 -2 q34 0 54 -9.5t36 -41.5q24 -49 27 -111q4 -58 4 -82q0 -125 -41 -307q-103 -465 -346 -809q-23 -32 -46.5 -50t-58.5 -18q-2 0 -19.5 7t-39.5 8q-37 2 -63 28q-3 3 -38.5 17.5t-43.5 32.5q-8 17 -14.5 34t-11.5 38.5t-8.5 35t-7 41.5t-5 38.5t-5 45.5l-4.5 45q-4 37 -14 37 q-7 0 -18 -16q-26 -43 -72 -86q-35 -32 -91.5 -103t-100.5 -112t-85 -41q-20 0 -73 47q-9 8 -39 16t-33 23q-4 16 -4 69z" />
<glyph unicode="X" horiz-adv-x="987" d="M-33 18q0 24 12 50.5t33.5 60.5t30.5 51q7 13 29 49q47 75 111.5 145t148.5 149t125 124q20 22 24 29t4 18q-35 195 -46 297t-11 219q0 22 7 34t7 24q0 5 -3 20t-3 21q0 19 19 32q15 11 55 11q35 0 50 -4t22 -17q6 -12 18.5 -28t20.5 -27.5t8 -20.5q0 -5 -4.5 -24 t-9.5 -53t-5 -76q0 -77 23 -234q5 -37 20 -37q20 0 45 25q62 62 245 219t271 258q13 14 18 17.5t15 3.5q21 0 59 -14.5t46 -16.5q16 -4 32.5 -24t16.5 -31q0 -19 -6 -27q-38 -49 -130 -114t-145 -115q-65 -61 -88 -80q-281 -240 -336 -289q-16 -14 -20 -21t-4 -20 q17 -106 66 -292.5t59 -233.5q3 -16 30 -56t27 -61q0 -19 -16 -35q-12 -12 -47 -12q-37 0 -111 29q-12 5 -17 9t-12 19q-33 65 -52 143t-34.5 185.5t-23.5 148.5q-4 27 -15 27q-8 0 -43 -37q-71 -76 -104.5 -114t-84.5 -103t-79.5 -122.5t-42.5 -116.5q-1 -7 -2.5 -10.5 t-8.5 -9t-20 -9.5q-17 -6 -26.5 -16.5t-14.5 -10.5q-64 0 -120 56q-9 9 -11 14.5t-2 23.5z" />
<glyph unicode="Y" horiz-adv-x="1028" d="M246 545q0 76 10 219q1 10 5.5 31t4.5 43q0 24 8.5 51t10.5 41q40 242 96 438q3 11 6 14.5t10 3.5q23 0 45 -3t48.5 -8.5t35.5 -6.5t18 -21.5t9 -37.5q0 -30 -20 -71t-27 -77q-92 -444 -92 -655q0 -7 10.5 -14t28.5 -7q33 0 61 17q135 84 231 180q104 104 224 338 q81 161 131 225q15 21 22 21q27 0 63.5 -11t59.5 -34q6 -6 14.5 -29t8.5 -31q0 -10 -13 -28q-215 -301 -356 -737.5t-221 -1032.5q-3 -22 -7.5 -39t-4.5 -22q0 -10 -2.5 -13.5t-10.5 -3.5q-6 0 -23 4t-30 6q-87 13 -96 54q-4 20 -4 61q0 40 7 80t20.5 91t17.5 71q1 3 22 123 q45 240 189 721l-17 -19q-44 -49 -114.5 -91t-157.5 -42q-13 0 -58 25t-81 57q-37 33 -59.5 66.5t-22.5 52.5z" />
<glyph unicode="Z" horiz-adv-x="1146" d="M25 156q0 37 6 51q20 45 81 107t193 167q12 10 12 15q0 8 -14 10q-72 12 -92 35q-16 20 -16 41q0 6 3 17t3 36q0 21 17.5 34t33.5 13q15 0 45 -10q96 -29 123 -29q22 0 83 10.5t75 18.5q425 258 555 450q14 19 14 29q0 29 -83.5 43t-168.5 14q-94 0 -171 -27.5 t-108 -88.5q-3 -6 -18 -10.5t-29 -4.5q-25 0 -55 15q-29 14 -42 39t-26 83q0 20 9 27q158 107 409 107q213 0 377 -93q19 -11 64 -54t45 -64q0 -54 -16.5 -84t-82.5 -101q-30 -33 -102 -98.5t-102 -89.5q-11 -9 -11 -16q0 -11 19 -11q145 0 200 -69q11 -14 11 -35 q0 -19 -10.5 -32t-22.5 -13q-3 0 -12 1t-32.5 2t-62.5 1q-74 0 -151 -13t-165 -33t-142 -28q-41 -36 -112.5 -86t-123 -86.5t-106 -91t-82.5 -111.5q-13 -26 -13 -37q0 -13 39.5 -32t73.5 -19q16 0 52.5 -8t62.5 -8q50 0 107.5 9.5t135 33.5t117.5 37.5t133 46.5 q46 16 58 16q14 0 41 -5.5t32 -14.5q4 -8 35 -48t31 -61q0 -10 -3 -13t-11 -3q-12 0 -18.5 4t-16.5 4q-7 0 -10 -2.5t-7.5 -7.5t-11.5 -8q-130 -58 -276.5 -92.5t-274.5 -34.5q-233 0 -409 112q-15 10 -50.5 64t-35.5 80z" />
<glyph unicode="[" horiz-adv-x="667" d="M61 -256q0 34 7.5 65t35.5 115l455 1372q30 90 56.5 155.5t44.5 99t36 54.5t26.5 26t20.5 9q53 19 160 19h76q89 0 128 -6.5t42 -24.5q1 -4 7.5 -14t6.5 -27q0 -15 -10 -35q-18 -36 -30 -45.5t-46 -9.5q-1 0 -29.5 2t-64.5 2h-22q-87 0 -111 -10.5t-45 -60.5 q-90 -212 -277.5 -796.5t-236.5 -723.5q-29 -82 -29 -123q0 -12 4.5 -18.5t26.5 -11.5t67 -5q56 0 109 4t66 4q19 0 32 -21t13 -34q0 -27 -7.5 -47.5t-14.5 -29t-19 -17.5t-13 -10q-11 -11 -110 -11h-39q-93 0 -193 7q-38 3 -80.5 54t-42.5 93z" />
<glyph unicode="\" horiz-adv-x="765" d="M358 1278q0 74 4 86q9 39 33 55q9 6 35 6q6 0 16 -2t15 -2q42 0 63 -21.5t21 -78.5q0 -6 -9.5 -41.5t-9.5 -67.5q0 -51 11 -141q16 -125 66 -431t81 -544q14 -109 14 -172t-10 -63q-7 0 -24.5 -10.5t-38.5 -10.5q-28 0 -42 6t-24 25q-29 56 -29 100q0 76 -8 125 l-157 1059q-7 46 -7 123z" />
<glyph unicode="]" horiz-adv-x="667" d="M-246 -338q0 15 10 35q18 36 30 45.5t46 9.5q1 0 29.5 -2t64.5 -2h23q84 0 109 11.5t47 60.5q71 161 159.5 425t191.5 593t163 501q11 32 18.5 71t7.5 52t-4 18.5t-30.5 11t-81.5 5.5q-56 0 -98.5 -4t-55.5 -4q-19 0 -32 21t-13 34q0 79 59 105q16 7 36.5 8.5t86.5 1.5 q84 0 213 -6q32 -2 77.5 -56t45.5 -92q0 -34 -7.5 -66.5t-35.5 -113.5l-455 -1372q-37 -112 -66 -183.5t-52 -103t-35 -41t-31 -16.5q-53 -19 -160 -19h-75q-89 0 -128 6.5t-42 24.5q-1 4 -8 14t-7 27z" />
<glyph unicode="^" horiz-adv-x="1126" d="M430 1114q0 10 8 27t8 18q3 11 105 62l354 174q20 10 35 10q40 0 53 -25q3 -6 13 -14t18 -25l180 -387q17 -40 17 -53q0 -14 -2.5 -17.5t-8 -4.5t-10.5 -7q-18 -24 -26 -29t-27 -5q-8 0 -25 12.5t-26 30.5l-178 333q-8 14 -12.5 17.5t-14.5 3.5q-11 0 -25 -8 q-307 -180 -342 -215q-8 -8 -20 -8t-24 6.5t-19 13t-14.5 15.5t-8.5 10q-8 8 -8 65z" />
<glyph unicode="_" horiz-adv-x="1282" d="M-244 -197h1434v-131h-1434v131z" />
<glyph unicode="`" d="M584 1657q0 31 22 53q25 25 49 25q7 0 16 -3t13 -3q3 0 6 -1.5t11 -7t18 -13t31.5 -23.5t46.5 -33l209 -144q53 -37 53 -51q0 -5 -10 -35q-2 -8 -4 -19t-3 -13q-7 -21 -26 -21q-36 0 -64 18l-209 136q-49 32 -135 67q-24 10 -24 68z" />
<glyph unicode="a" horiz-adv-x="958" d="M61 213q0 119 123 303q43 63 86.5 115t86 91t65 57t57.5 44q149 110 328 162q21 6 45 6q66 0 125 -59q26 -26 31 -41q16 -39 49 -39q40 0 57 -27q4 -6 4 -12q0 -10 -8 -22q-58 -80 -95.5 -135.5t-81 -141t-61.5 -158.5q-28 -114 -28 -182q0 -89 43 -154q4 -8 4 -12 q0 -3 -3 -8t-13.5 -11.5t-26.5 -8.5q-4 -1 -18 -5t-21 -4q-26 0 -53 11t-35 30q-35 76 -35 176q0 27 2 51t4 37.5t2 14.5q0 7 -1 8.5t-7 1.5q-12 0 -49 -37l-111 -102q-73 -69 -126 -100.5t-117 -53.5q-24 -8 -33 -8q-18 0 -46 17.5t-98 74.5q-45 36 -45 121zM199 203 q0 -56 45 -56q13 0 43.5 16.5t56.5 41.5q53 50 181 156.5t205 186t124 167.5q20 39 59 78q11 11 11 30q0 14 -12 27.5t-35 13.5q-25 0 -64 -20q-293 -155 -461 -357q-65 -79 -109 -159.5t-44 -124.5z" />
<glyph unicode="b" horiz-adv-x="790" d="M123 217q0 103 43 227q47 142 63 179q39 91 80.5 176.5t97.5 187.5t87 157.5t106.5 186t99.5 172.5q50 86 123 86q25 0 60 -12q39 -15 39 -66q0 -31 -50.5 -78t-58.5 -61q-33 -54 -109.5 -170t-127 -199t-76.5 -145q-21 -50 -69.5 -151t-76 -163.5t-51.5 -153.5t-24 -173 q0 -40 5.5 -57t28.5 -17q16 0 38 14t34 29q84 108 125.5 194.5t77.5 217.5q12 46 12 53q0 23 -10 68t-31 61q-10 8 -10 37t20 60.5t45 31.5q31 0 72 -51q44 -52 58 -62t49 -10q96 0 317 60q46 12 47 12q3 0 10 -2t15 -2q26 0 41 -12q7 -5 15.5 -19.5t8.5 -25.5 q0 -8 -5.5 -21t-12.5 -14q-66 -10 -200 -58.5t-216 -48.5q-7 0 -29 6.5t-30 6.5q-9 0 -9 -19q0 -6 2.5 -21t2.5 -22q0 -11 -2 -18.5l-6 -22.5t-7 -37q-6 -40 -19.5 -75.5t-37 -80.5t-31.5 -63q-33 -72 -57 -104q-35 -48 -56 -73t-57.5 -61.5t-74.5 -53.5t-80 -17 q-31 0 -56 8q-32 10 -76 40t-53 67q-14 61 -14 102z" />
<glyph unicode="c" horiz-adv-x="708" d="M90 182q0 17 3.5 39.5t7 35t12 42.5t10.5 37q1 2 4.5 18.5t8.5 32.5t11 29q223 447 426 549q12 6 33 6q54 0 114 -23.5t99 -62.5q8 -8 8 -29q0 -14 2 -22t2 -9q0 -6 -2 -14q-2 -7 -20 -42t-33.5 -77t-15.5 -74q0 -30 -39 -30q-24 0 -41 14l-53 39q-23 17 -23 45 q0 22 22.5 65t22.5 58q0 7 -4.5 13.5t-11.5 6.5q-13 0 -33 -20q-144 -144 -250 -330q-52 -91 -85.5 -182t-33.5 -131q0 -19 10.5 -31t24.5 -12q121 0 291 129q184 139 250 139q19 0 43 -23t24 -30q0 -4 -4 -10.5t-4 -10.5q0 -17 -16 -24q-72 -31 -225 -156 q-189 -151 -303 -151q-73 0 -133.5 37.5t-73.5 62.5q-25 52 -25 96z" />
<glyph unicode="d" horiz-adv-x="1015" d="M37 178q0 81 72 219q71 134 184 252.5t248 208.5q24 16 66.5 27.5t80.5 11.5q34 0 57 -10q7 -3 44.5 -16.5t52.5 -22.5q14 0 16 2q72 79 139.5 179t112.5 182t106.5 184.5t118.5 177.5q10 13 19 18.5t28 5.5q25 0 63 -21.5t38 -45.5q0 -33 -10 -56t-33 -57 q-8 -13 -21.5 -41.5t-25.5 -46.5q-30 -47 -92 -142t-100.5 -155t-82 -141t-67.5 -146l-33 -90q-156 -436 -156 -567q0 -44 8.5 -79t8.5 -36q0 -5 -9 -14q-7 -7 -13.5 -15.5t-10 -12.5t-10 -8t-15.5 -5.5t-24 -1.5q-14 0 -43.5 15t-30.5 24q-12 70 -12 133q0 117 53 303 q7 25 23 61t28 61t12 26q0 4 -4 4t-20 -19t-68.5 -80t-74 -85.5t-68 -76t-76.5 -80t-72.5 -67.5t-82.5 -68.5t-82 -54.5q-23 -14 -62 -14q-28 0 -83 25.5t-62 37.5q-35 59 -35 117zM193 197q0 -47 14 -47q9 0 20 8q6 5 19.5 11t23.5 13q209 163 461 500q7 9 17 20t14.5 16.5 t8 15.5t3.5 22q0 20 -47 20q-31 0 -51 -10q-150 -75 -282 -225t-195 -318q-6 -18 -6 -26z" />
<glyph unicode="e" horiz-adv-x="749" d="M109 344q0 32 10 68q40 145 129.5 279t222.5 276q32 34 91.5 63t127.5 29q58 0 125 -23q23 -8 44.5 -40t21.5 -87t-47 -147q-23 -47 -66 -96q-68 -78 -112 -125.5t-110 -113t-128.5 -114t-124.5 -82.5q-12 -7 -12 -16q0 -23 17 -50.5t32 -35.5q31 -16 63 -16 q28 0 60.5 11t97.5 46q77 42 187.5 136.5t162.5 127.5q25 15 41 15q10 0 25.5 -13.5t15.5 -27.5q0 -10 -1 -18t-1 -9q0 -21 -10 -29q-26 -22 -68 -66.5t-79 -80.5t-117.5 -93.5t-188.5 -117.5q-39 -21 -74 -21q-36 0 -77 15q-83 29 -131 57q-68 38 -103 141q-10 29 -17 78 t-7 80zM291 420q0 -10 4 -10q5 0 14 6q143 109 314 315q17 20 27.5 43.5t21.5 40.5q37 57 37 94q0 25 -13 25q-14 0 -43 -19q-7 -4 -13 -7t-8.5 -4.5t-7.5 -5t-12 -9.5q-263 -236 -321 -469z" />
<glyph unicode="f" horiz-adv-x="548" d="M29 -283q0 35 8.5 71t24.5 82.5t22 66.5q17 58 20 81q9 54 85.5 286.5t76.5 256.5q0 8 -4 14q-10 17 -47.5 54.5t-46.5 64.5q-12 32 -12 49q0 15 9.5 28t18.5 13q14 0 55 -14t62 -14q36 0 47 28q78 185 115 271t95.5 204t117.5 214q11 19 45 32t59 13q45 0 70 -35 q16 -22 16 -41q0 -22 -29 -61.5t-32 -57.5q-3 -20 -8 -33q-21 -43 -70 -105t-92.5 -124.5t-59.5 -120.5q-7 -28 -22 -61q-2 -4 -11.5 -24t-16.5 -35.5t-13 -34t-6 -27.5q0 -10 10 -10q59 0 191 49t206 49q30 0 49 -13.5t19 -25.5q0 -7 -2.5 -13.5t-5.5 -10.5t-10.5 -8.5 t-10.5 -6t-12.5 -5.5t-11.5 -5l-23 -13q-28 -11 -81.5 -35.5t-98.5 -42t-86 -24.5q-10 -2 -14 -3.5t-12 -6t-23 -10.5q-13 -5 -44 -14.5t-51.5 -18.5t-37.5 -23q-13 -10 -19 -26q-6 -17 -45 -130.5t-49.5 -145.5t-40 -128.5t-41 -150.5t-26 -135.5t-21.5 -155.5 q-1 -19 -17.5 -35.5t-39.5 -24.5q-63 -22 -64 -22q-9 0 -16.5 2.5t-11.5 5.5t-11 8.5t-12 8.5t-9.5 29.5t-4.5 49.5z" />
<glyph unicode="g" horiz-adv-x="864" d="M-25 -700q0 37 29.5 94t110.5 182q43 67 96 136.5t83 112t88.5 156t137.5 295.5v5q0 4 -4 4t-6 -2q-8 -7 -38.5 -37t-41 -39.5t-37 -33t-42 -32.5t-38.5 -22t-44 -18t-42 -5q-32 0 -61 13q-50 21 -123 94q-8 8 -11 18.5t-3 40.5q0 31 7 62t14 48t21 46t17 35 q18 38 80.5 120t120.5 146q60 68 122 119.5t106 77t83.5 41t56.5 19t23 3.5q67 0 123 -23t88 -65q22 -31 22 -72q0 -49 -16 -80q-256 -458 -256 -520q0 -8 8 -8q149 128 342 242q35 20 49 20q34 0 54 -20q12 -12 12 -31q0 -23 -16 -35q-304 -228 -457 -384t-227 -333 q-138 -332 -170 -389q-31 -57 -58.5 -71.5t-89.5 -14.5q-33 0 -66 16.5t-40 43.5q-7 25 -7 45zM195 276q0 -6 8.5 -11t15.5 -5q25 0 41 10q130 83 267 230.5t239 300.5q6 9 6 14q0 2 -2 6t-2 6q0 13 -20 21q-15 6 -35 6q-41 0 -95 -43q-20 -16 -45.5 -31.5t-40.5 -29.5 q-87 -80 -184.5 -202t-128.5 -194q-24 -58 -24 -78z" />
<glyph unicode="h" horiz-adv-x="856" d="M43 80q0 12 7 25t11 30q23 97 58.5 199.5t98.5 239.5t101.5 215.5t129.5 259.5q41 81 145 268.5t156 292.5q13 28 53 28q11 0 25 -2t18 -2q27 0 57 -30q19 -19 19 -52q0 -19 -9 -38t-18.5 -31.5t-33 -38.5t-36.5 -43q-7 -8 -39 -55q-83 -114 -163.5 -271t-192 -408 t-143.5 -319q-4 -9 -8 -17l-6 -12t-3 -6.5t-1.5 -3.5t-0.5 -2q0 -4 4 -4t15 16q218 303 465 570q38 41 57 47q30 10 47 10q39 0 76 -14q11 -5 21 -17t10 -22q0 -28 -9 -56.5t-19 -48t-34 -59.5q-13 -22 -22 -43t-17.5 -45.5t-13.5 -36.5q-107 -255 -107 -438 q0 -68 12.5 -94.5t39.5 -40.5q1 -1 51 -13q14 -4 14 -16q0 -2 -10 -27q-8 -19 -39 -28q-8 -2 -22.5 -7t-26 -7.5t-23.5 -2.5q-18 0 -59 15q-111 41 -111 194q0 100 39 230q33 108 76 211q8 19 8 24q0 4 -4 4q-8 0 -27 -22q-73 -83 -208.5 -277.5t-192.5 -261.5 q-11 -14 -22 -20q-45 -27 -78 -27q-11 0 -48 17.5t-59 39.5q-8 8 -8 23z" />
<glyph unicode="i" horiz-adv-x="450" d="M111 219q0 76 32 166q5 15 16.5 50.5t18.5 51.5q137 326 199 455q26 55 102 55q43 0 62 -16q16 -13 16 -33q0 -48 -21.5 -89t-57 -88t-52.5 -83q-58 -126 -121 -291q-49 -129 -49 -200q0 -66 37 -66q33 0 59 12.5t90 57.5q40 28 57 36.5t40 8.5q33 0 51 -15 q12 -10 12 -28q0 -16 -7.5 -27t-25.5 -29l-84 -77q-109 -99 -211 -99q-44 0 -89.5 51t-63.5 111q-10 36 -10 86zM532 1321q0 51 27 86q28 35 100 35q25 0 50.5 -7.5t35.5 -19.5q25 -29 25 -67q0 -25 -10 -37q-83 -101 -131 -101q-28 0 -50.5 13t-31.5 28q-15 30 -15 70z" />
<glyph unicode="j" horiz-adv-x="487" d="M-291 -700q0 21 10 51q38 104 108.5 241.5t134.5 269t97 244.5q12 41 47 136q26 70 75 196t88.5 232.5t68.5 201.5q9 29 35 48q18 14 33 14q10 0 25 1t22 1q45 0 57 -18q16 -28 16 -41q0 -7 -16 -39q-20 -40 -38 -78.5t-36.5 -83.5t-30.5 -75t-35.5 -90.5t-35.5 -92.5 q-8 -19 -8 -31q0 -6 4 -6q9 0 32 20q123 108 205 156q44 25 62 25t27.5 -5t9.5 -22q0 -23 -7.5 -39.5t-15.5 -25t-32.5 -28t-39.5 -32.5q-178 -160 -374 -440q-51 -72 -70 -121q-50 -123 -128.5 -343.5t-92.5 -258.5q-9 -25 -33 -50.5t-59 -25.5q-3 0 -8.5 2t-16.5 7t-25 9 q-23 7 -36.5 28.5t-16 36t-2.5 26.5zM506 1333q0 9 12 23q45 55 107 55q28 0 48 -7.5t48 -31.5q25 -22 30 -29t5 -20q0 -25 -14.5 -44.5t-31.5 -36t-20 -32.5q-7 -34 -55 -34q-72 0 -115 65q-10 15 -10 49q0 9 -2 24t-2 19z" />
<glyph unicode="k" horiz-adv-x="770" d="M49 59q0 27 14 62q2 6 5.5 17t3.5 12q62 191 140 386.5t204 484t166 382.5l22 53q14 39 33 39q3 0 68 -8q36 -4 55.5 -19.5t19.5 -37.5q0 -40 -15 -71t-46 -73q-17 -24 -27 -39.5t-16 -26t-8 -14.5q-43 -71 -79.5 -151t-79 -188t-63.5 -156q-6 -12 -6 -19q0 -6 6 -6 q8 0 25 10q116 71 203.5 144t144.5 164q15 24 41 43q29 20 62 20q25 0 55 -18q37 -22 37 -37q0 -23 -30 -67t-62 -71q-17 -15 -31.5 -33t-26.5 -28q-102 -87 -327 -235q-15 -10 -15 -27q0 -4 1 -9.5t4.5 -16.5t8 -23.5t12.5 -38t17 -53.5q9 -29 54 -122t59 -112 q47 -65 75 -89.5t93 -51.5q8 -3 21 -3t17.5 -5t4.5 -23q0 -16 -21 -34l-22 -17q-14 -23 -49 -23q-98 0 -158 60q-29 29 -37 35q-29 24 -39 41q-52 94 -90 184t-62 159t-30 83q-7 16 -16 16q-6 0 -9 -8q-87 -211 -114 -359q-26 -141 -70 -141q-7 0 -23 -3t-28 -3q-7 0 -16 2 t-23 7.5t-23.5 20t-9.5 35.5z" />
<glyph unicode="l" horiz-adv-x="475" d="M78 190q0 23 4 49t8 45t15.5 52t17 48t22 57t21.5 55q108 280 426 823q9 16 28 67.5t41 79t58 27.5q15 0 35.5 2t31.5 2q38 0 54 -22q16 -24 16 -58q0 -38 -20 -71q-45 -74 -177 -272.5t-211.5 -338.5t-134.5 -284q-7 -17 -25 -60t-26.5 -65.5t-17 -58.5t-8.5 -68 q0 -42 10 -76q8 -25 41 -25q22 0 35 8q29 17 69 58.5t72 78t71.5 65t71.5 28.5q18 0 44 -12.5t26 -34.5q0 -12 -5 -20.5t-17.5 -20t-18.5 -17.5q-22 -24 -59.5 -70t-63 -74.5t-62 -60.5t-76.5 -47.5t-85 -15.5q-8 0 -35.5 9.5t-64 26.5t-67.5 50t-38 72q-6 35 -6 69z" />
<glyph unicode="m" horiz-adv-x="1400" d="M61 176q0 66 23.5 137.5t52.5 123.5t70.5 125t62.5 120q27 59 59 115t48 98q8 22 41.5 45t83.5 23q35 0 63 -17q10 -6 10 -39q0 -36 -24 -71q-265 -369 -346 -680q0 -8 6 -15.5t12 -7.5q7 0 23 8q160 81 293.5 237t203.5 331q13 32 43 53q39 29 80 29q54 0 95 -41 q8 -8 8 -15q0 -12 -6 -30q-20 -55 -87.5 -147t-89.5 -134q-88 -170 -88 -256q0 -9 6 -21t13 -12q25 0 58.5 18.5t60.5 49.5q42 49 112 115t121 113t103.5 117t78.5 142q9 27 33.5 51.5t65.5 24.5q23 0 35.5 -7t25.5 -9q35 -4 45.5 -10.5t22.5 -30.5q8 -13 8 -29 q0 -13 -8 -24t-18.5 -17.5t-24.5 -19t-23 -27.5q-77 -129 -110 -214.5t-33 -160.5q0 -108 65 -205q9 -13 19 -18t19 -17.5t9 -23.5q0 -13 -13.5 -23t-35.5 -10q-14 0 -26.5 3t-27 7.5t-24.5 6.5q-42 7 -96 116q-51 100 -51 183q0 12 -8 12q-6 0 -17 -8q-29 -22 -75.5 -68.5 t-80.5 -80t-88 -60.5t-110 -27q-53 0 -104 23q-59 28 -78 50.5t-19 49.5q0 21 -1 26t-5 5q-3 0 -14 -11q-73 -73 -213 -143q-24 -12 -33 -12q-94 0 -172 59q-11 9 -16 27q-13 57 -13 98z" />
<glyph unicode="n" horiz-adv-x="860" d="M61 143q0 36 11.5 72t13.5 51q10 73 100 279q94 217 199 377q4 7 9 15t7 11t6 8t11 11q23 20 71 20q68 0 82 -31q11 -27 11 -36q0 -49 -45 -97q-76 -83 -131 -184q-63 -116 -146 -320q-10 -25 -25.5 -81.5t-15.5 -61.5q0 -20 6 -20q17 0 35 26q93 132 182.5 240t142 159 t93 96.5t55.5 76.5q27 57 39 70.5t33 13.5q16 0 37 -10t37 -11q17 -1 29 -18.5t12 -36.5t-21 -53q-103 -168 -143 -303q-9 -30 -17 -91.5t-8 -93.5q0 -16 3 -33t8 -33.5t6 -21.5q2 -10 8 -20.5t16 -19t17.5 -14.5t18 -12.5t11.5 -7.5q31 -23 31 -47q0 -15 -13.5 -32 t-39.5 -17q-21 0 -56 7t-51 22q-7 6 -35.5 27.5t-44.5 43.5q-35 46 -35 127q0 34 2 62.5t4.5 45.5t5.5 29t5 18t2 7q0 8 -6 8q-7 0 -13 -8q-173 -229 -188 -250q-25 -36 -54.5 -60.5t-33.5 -29.5q-20 -22 -76 -22q-19 0 -73 34.5t-74 59.5q-15 19 -15 59z" />
<glyph unicode="o" horiz-adv-x="753" d="M98 309q0 115 46.5 222.5t131.5 234.5q16 23 28.5 35.5t21.5 25.5q136 189 241 189q65 0 109 -39q24 -21 29 -35q11 -32 22 -53.5t33 -40.5t49 -19q45 0 101 3.5t75 3.5q52 0 89.5 -15t37.5 -39q0 -16 -28 -28.5t-29 -14.5q-5 -9 -23 -12q-19 -3 -72 -17t-81 -18 q-41 -6 -80 -6q-12 0 -17 -3t-8 -13q-43 -178 -104 -314.5t-154 -234.5q-39 -41 -59 -60.5t-55.5 -40t-69.5 -20.5q-29 0 -49 10q-128 61 -154 129q-31 77 -31 170zM238 244q0 -15 6 -29q5 -14 21 -37t28 -31q6 -4 18 -4q9 0 16.5 3t14 8t8.5 6q16 7 35 37l51 76.5 t45.5 71.5t45 77.5t34 72t30 80.5t16 78.5t7.5 87.5q0 33 -2 43q-2 13 -12 23q-11 11 -16 31q-10 34 -21 34q-14 0 -31 -20q-3 -4 -18 -15.5t-20 -19.5q-256 -325 -256 -573z" />
<glyph unicode="p" horiz-adv-x="901" d="M-143 -506q0 11 10 45q42 137 148.5 420t190.5 538t116 447q3 17 6.5 25.5t7 11t10.5 4.5t22.5 9t28.5 10.5t27 3.5q26 0 47 -12t21 -29q0 -39 -9.5 -81.5t-29 -104.5t-27.5 -93q-2 -5 -2.5 -9t0.5 -5q2 0 16 14q158 183 273 244q24 12 32 12q65 0 173 -70q40 -27 40 -81 q0 -79 -14 -144q-1 -4 -2 -24t-8 -41q-82 -229 -140.5 -343t-152.5 -200q-16 -14 -57 -14q-32 0 -77 20.5t-63 38.5q-59 55 -106 150q-3 10 -12 10q-8 0 -13 -10q-97 -183 -156 -340t-112 -379q-3 -15 -4 -37.5t-4.5 -33.5t-16.5 -15q-35 -13 -71 -13q-39 0 -64 29 q-2 3 -11 10.5t-12.5 15t-4.5 21.5zM426 385q0 -42 41.5 -130.5t75.5 -88.5q8 0 16 8q44 41 93.5 147.5t58.5 143.5q34 103 54 185t23 106.5t3 34.5q0 6 -9 6q-6 0 -14 -4q-180 -116 -328 -349q-14 -23 -14 -59z" />
<glyph unicode="q" horiz-adv-x="790" d="M49 272q0 30 19 78q80 203 244 367.5t350 222.5q53 16 92 16q64 0 115 -30t51 -86q0 -31 -33 -81.5t-33 -60.5q0 -14 11.5 -27t11.5 -20q0 -4 -15 -24q-365 -487 -571 -1225q-4 -15 -8 -65.5t-13 -75.5q-23 -66 -55 -66q-56 0 -111 43q-10 8 -10 17q0 10 2 20 q31 154 133 455q26 76 29 88q17 64 49 132t49 128q0 8 -2.5 10t-11.5 2q-68 -14 -98 -14q-54 0 -97 24l-28 19q-33 21 -51.5 63.5t-18.5 89.5zM190 221q0 -10 11.5 -17t21.5 -7q1 0 33 8q22 5 41 20q201 150 311 318q17 25 17 30q0 7 -6.5 14.5t-6.5 14.5q0 11 45 62 q6 7 22 23.5t22.5 24t18 22t16.5 24t9.5 22t4.5 23.5q0 14 -29 14q-20 0 -43 -14q-9 -4 -23.5 -9t-33.5 -16q-115 -70 -223 -180.5t-160 -212.5q-48 -96 -48 -164z" />
<glyph unicode="r" horiz-adv-x="614" d="M25 106q0 39 50 111.5t60 104.5q9 27 37.5 112t41.5 126t31.5 109t30.5 126q1 8 2 15t2 11t1 6q0 6 -9 22t-10 25q0 14 24 30t56 16q21 0 42 -7.5t26 -15.5q30 -48 30 -115q0 -32 -12 -69q-2 -10 -4.5 -18t-3 -10.5t-0.5 -4.5q0 -8 6 -8q9 0 27 16q170 130 284 168 q12 4 25 4q100 0 149 -57q15 -15 15 -35q0 -41 -26.5 -65.5t-45.5 -24.5q-16 0 -47 10t-45 10q-15 0 -33 -8q-89 -41 -166 -94.5t-148 -124.5t-123.5 -165.5t-78.5 -203.5q-17 -74 -51 -98q-15 -18 -37 -18q-9 1 -17 3.5t-15.5 8.5t-11 9t-10.5 12t-8 10q-35 35 -38 77z" />
<glyph unicode="s" horiz-adv-x="606" d="M-16 252q0 26 21.5 51t51.5 25q33 0 49 -5.5t29 -23.5q14 -18 56 -91.5t77 -105.5q24 -22 41 -22q9 0 15 5t6 11q0 8 -11 64q-20 92 -42.5 269t-22.5 214q0 47 20 121.5t54 128.5q40 64 93 97.5t89 33.5q79 0 122 -18t79 -56q39 -42 39 -133q0 -93 -60 -170 q-12 -15 -16.5 -18.5t-11.5 -3.5q-17 0 -39 8.5t-33 17.5q-31 24 -31 66q0 7 6 16q35 60 35 94q0 31 -14 56q-6 11 -19.5 19.5t-25.5 8.5q-8 0 -34.5 -32t-55 -84t-35.5 -95q-4 -28 -4 -53q0 -37 14 -131q7 -60 36.5 -240t29.5 -227q0 -20 -17 -37q-24 -24 -38.5 -36.5 t-39.5 -24.5t-51 -12q-31 0 -51 8q-178 72 -299 274q-12 20 -12 31z" />
<glyph unicode="t" horiz-adv-x="536" d="M111 29q0 37 8 61q15 44 65 220.5t88 267.5q4 12 4 14q0 7 -10 12q-32 16 -54.5 39t-42 49.5t-36.5 40.5q-10 8 -10 25q0 10 5 14.5t19 11.5q22 11 41 11q23 0 69.5 -16.5t64.5 -16.5q28 0 34 29q6 24 33 96q11 29 47 124t66 169t61 141q8 19 12 23t11 4q18 0 33.5 5 t23.5 5q35 0 78 -17q18 -7 18 -14q0 -10 -2 -22q-12 -72 -41.5 -143t-81 -166.5t-67.5 -129.5q-14 -29 -30.5 -75.5t-16.5 -51.5q0 -6 8 -6q11 0 51 8q67 13 145.5 42.5t129.5 60.5q17 10 22 10q28 0 64 -17.5t36 -35.5q0 -22 -17.5 -43.5t-49.5 -34.5q-28 -12 -51 -24 t-41 -19q-60 -23 -188.5 -57.5t-129.5 -34.5q-26 -9 -39 -31q-16 -30 -34 -98q-3 -10 -12 -31.5t-11 -34.5q-4 -24 -45.5 -155t-48.5 -189q-2 -18 -17 -47.5t-34 -38.5q-12 -6 -31 -6q-43 0 -74 23q-22 17 -22 49z" />
<glyph unicode="u" horiz-adv-x="860" d="M102 156q0 15 1.5 31t5 36.5t5.5 32t9 37t8.5 31.5t10 35t8.5 30q7 23 15.5 61.5t18.5 67.5q12 33 36 116t48.5 146t59.5 123q31 53 88 53q19 0 40.5 -8t28.5 -24q2 -4 8.5 -13.5t10.5 -19t4 -19.5q0 -33 -41 -59t-59 -96q-16 -62 -79.5 -254.5t-74.5 -278.5 q-4 -27 -4 -47q0 -8 9.5 -18t19.5 -10q6 0 21 6t24 14q44 39 73.5 76.5t34.5 42.5q218 235 305 459q8 21 13.5 28t23.5 17q22 12 47 12q9 0 26.5 -10t22.5 -11q41 -12 41 -36q0 -33 -12 -60q-116 -248 -149 -463q-13 -93 -13 -151q0 -26 18.5 -70.5t18.5 -66.5 q0 -28 -12 -37q-9 -6 -29 -6q-29 0 -78 30q-12 8 -22.5 12t-13.5 5.5t-7 6t-8 15.5q-20 51 -20 123q0 29 3 81t3 58q0 13 -8 13q-9 0 -29 -25q-126 -147 -229 -199q-16 -8 -27 -8q-7 0 -24 3t-46.5 12.5t-52.5 23.5q-55 34 -61 64q-11 57 -11 88z" />
<glyph unicode="v" horiz-adv-x="774" d="M143 147q0 50 19 125q1 6 9.5 47.5t25.5 108.5q3 11 17.5 67.5t18.5 74.5t16 66.5t17.5 74.5t13.5 66.5t13.5 75t9.5 69.5q3 21 20.5 33t28.5 12q7 0 23 -2t24 -2q41 0 60 -17q10 -8 10 -31q0 -73 -28 -141.5t-35 -99.5q-17 -82 -54.5 -247t-54.5 -247q-6 -29 -6 -39 q0 -5 5 -8.5t11 -3.5q31 0 53 27q55 64 114 165.5t101 206.5q8 21 15.5 47.5t13.5 40.5q17 42 17 109q0 34 -23 57q-29 25 -29 58q0 21 17 35t47 14q42 0 65 -11t43 -44q41 -66 99 -66q45 0 130 34t130 34q48 0 96 -29q17 -10 22 -19t5 -26q0 -8 -15 -17 q-65 -36 -162.5 -62.5t-107.5 -31.5q-32 -12 -47 -12t-45 6t-43 6q-19 0 -29 -8q-10 -7 -24 -65q-63 -238 -271 -500q-23 -29 -49.5 -54.5t-30.5 -29.5q-29 -33 -73 -33q-15 0 -27.5 4.5t-20 10t-22.5 17.5t-25 19q-49 33 -61.5 46t-19.5 40q-7 24 -7 49z" />
<glyph unicode="w" horiz-adv-x="1105" d="M102 168q0 24 9 55q24 98 113 345.5t108 381.5q1 10 14.5 23t24.5 16q18 6 49 6q10 0 28.5 -1t28.5 -1q13 0 31 -14.5t18 -32.5q0 -17 -16 -41q-5 -8 -10.5 -19.5t-10.5 -25t-6 -16.5q-37 -88 -70 -181t-77 -230.5t-60 -186.5q-8 -24 -8 -33q0 -6 6 -6q16 0 78 74 q212 250 307 477q11 28 54 28q11 0 26 -2t21 -2q23 0 43 -19.5t20 -41.5q0 -23 -13 -52t-54 -98q-13 -22 -21 -41.5t-13.5 -36.5t-8.5 -24q-76 -169 -76 -332q0 -18 11 -28.5t20 -10.5q13 0 37.5 14t50.5 46q42 53 72.5 124.5t44 133.5t19 100.5t5.5 52.5q0 15 5 39.5 t5 36.5q0 30 -20.5 88t-20.5 80q0 31 23 49q15 12 86 12q15 0 20.5 -3.5t20 -18t37.5 -29.5q27 -18 58 -24t97 -6q42 0 131 12t144 12q10 0 15.5 -1t14 -6t13 -17.5t4.5 -32.5q0 -42 -98 -64q-47 -11 -99 -26.5t-78 -21t-53 -5.5q-38 0 -67 4t-44 8t-20 4q-18 0 -18 -26 q0 -61 -2 -84q-8 -154 -70.5 -299t-169.5 -252q-35 -35 -90 -35q-77 0 -174 57q-22 13 -40 38t-18 57q0 20 3.5 44.5t3.5 35.5q0 16 -7 16q-5 0 -32 -27q-16 -16 -42.5 -48t-43.5 -50.5t-45.5 -34.5t-59.5 -16q-15 0 -24.5 4t-26 13t-35.5 16q-23 8 -41 21t-22 20 q-15 30 -15 59z" />
<glyph unicode="x" horiz-adv-x="684" d="M-10 92q0 10 20 35q53 63 158 179t129 143q12 13 14 20.5t2 28.5q0 211 -45 301q-11 22 -19.5 28t-10.5 9q-9 11 -9 36q0 22 26 34t54 12q47 0 80 -33q31 -31 45 -73.5t31 -160.5q4 -39 14 -39q5 0 31 21q53 43 317 241q13 10 20.5 12.5t26.5 2.5q41 0 58 -23 q4 -6 13 -16.5t13.5 -16.5t8.5 -17t4 -23q0 -3 -3.5 -7t-8 -6t-11 -5.5t-8.5 -4.5q-201 -116 -416 -311q-30 -27 -35.5 -37.5t-5.5 -40.5q0 -82 12.5 -222t12.5 -206q0 -59 -12 -148q-1 -10 -15 -16t-30 -6q-8 0 -21 2t-20 2q-5 0 -9.5 3t-12.5 9t-17 11q-13 7 -18.5 11 t-13 12.5t-9.5 19.5q-4 20 -4 36q0 46 18 82q8 16 8 21q0 3 -4 39q-4 33 -9 97t-9 97t-11 33q-5 0 -20 -22q-2 -4 -60.5 -70t-66.5 -100q-4 -18 -37 -43q-30 -23 -65 -23q-13 0 -50 37q-30 30 -30 55z" />
<glyph unicode="y" horiz-adv-x="892" d="M123 193q0 98 23 200.5t51.5 176t70.5 181.5t66 187q8 27 32.5 43t39.5 16q4 0 25 -5t32 -5q17 0 35 -13t18 -32q0 -50 -20 -86q-19 -33 -33.5 -48.5t-20.5 -29.5q-32 -69 -54 -131.5t-47.5 -150t-41.5 -136.5q-10 -32 -16 -65q-11 -63 -11 -66q0 -32 11 -32q21 0 45 12 q73 36 161 135q1 1 28.5 29.5t47.5 52.5q13 16 52.5 58t66.5 75.5t68 106t75 163.5q6 16 24 39t30 23q10 0 27.5 -7t35.5 -7q31 0 48.5 -13.5t20.5 -27t3 -33.5q0 -38 -47 -105l-39 -61q-72 -110 -125 -264q-7 -22 -56 -152t-57 -155q-24 -76 -24 -82q0 -4 8 -4q2 0 8.5 1 t9.5 1q11 0 24 -6.5t13 -16.5q0 -35 -12 -51q-175 -232 -248 -578q-2 -11 -7 -42t-8.5 -48t-13 -43.5t-21 -41.5t-31.5 -28t-46 -16q-2 0 -21 -4t-34 -4t-26 2t-24 9t-20.5 24t-7.5 43q0 61 43 162q82 192 176 350q6 53 123 411q37 115 37 129q0 9 -6 9t-29 -23 q-50 -50 -129 -104t-96 -54q-128 0 -195 82q-12 14 -12 50z" />
<glyph unicode="z" horiz-adv-x="786" d="M61 145q0 35 7 52q7 14 15.5 28t16.5 24.5t21 26t19.5 23t22.5 24.5t21 23q35 40 35 47q0 4 -0.5 5.5t-2.5 4t-7.5 4.5t-15.5 5q-50 16 -64 43q-25 46 -25 67q0 14 17 26.5t37 12.5t67 -14.5t84 -14.5q48 0 90.5 22.5t68.5 50.5t61.5 62t64.5 50q39 21 67.5 52t28.5 50 q0 7 -11 11t-22 4q-15 0 -42.5 -9t-59.5 -12q-112 -11 -190 -102q-4 -4 -19 -4q-12 0 -32 18.5t-27 40.5q-11 33 -11 49q0 52 41 62q23 6 76.5 20.5t86.5 23t80 16t85 7.5q56 0 110.5 -16.5t67.5 -32.5q1 -1 24.5 -20t29.5 -35q8 -21 8 -43q0 -18 -5 -32.5t-20.5 -31.5 t-27 -26.5t-43.5 -34t-50 -39.5q-12 -10 -12 -17q0 -6 23 -6q111 0 161 -55q17 -19 17 -31q-12 -30 -47 -30q-59 0 -159 -16t-187 -42q-41 -12 -54.5 -19t-34.5 -26q-31 -29 -101 -107t-95 -100q-11 -9 -18 -28t-7 -27q0 -18 29 -31q36 -16 59 -16q20 0 66.5 12t69.5 12 q45 0 121 40t118 40q51 0 92 -36q15 -12 15 -39q0 -13 -21 -21q-13 -5 -78 -32t-92 -36.5t-80 -26.5t-97 -23.5t-89 -6.5q-55 0 -115 14.5t-100 38.5q-62 37 -62 127z" />
<glyph unicode="{" horiz-adv-x="708" d="M164 -203q0 63 20 127l133 422q37 113 37 141q0 56 -82 56q-55 0 -66 5.5t-11 26.5q0 1 -9.5 6t-9.5 17q0 18 12 53q12 34 27.5 44t52.5 10h25q89 0 129.5 44.5t87.5 184.5l121 362q68 207 153 284t224 77h41q110 0 110 -29q0 -5 7.5 -15t7.5 -26t-11 -35 q-18 -34 -29.5 -42.5t-46.5 -8.5h-24q-76 0 -124 -20t-70.5 -51.5t-43.5 -88.5q-59 -161 -155 -477q-35 -111 -79 -169.5t-116 -69.5q-6 0 -6 -4q0 -5 6 -5q57 -33 57 -106q0 -74 -20 -135l-139 -447q-17 -52 -17 -90q0 -86 107 -86h82q19 0 32 -17.5t13 -29.5 q0 -36 -8.5 -52.5t-20 -24.5t-14.5 -19q-6 -19 -68 -19q-149 0 -232 55t-83 152z" />
<glyph unicode="|" horiz-adv-x="552" d="M0 -342q0 47 14 94q4 11 22.5 47t24.5 56l535 1601q36 111 65.5 153t75.5 42q50 0 70 -25q7 -9 19.5 -18t20 -17t7.5 -18q0 -49 -10 -64q-17 -25 -38.5 -45.5t-27.5 -33.5q-93 -212 -302 -865.5t-255 -783.5q-36 -102 -55.5 -144.5t-38.5 -42.5q-42 0 -72 21 q-11 9 -26.5 15t-22 11.5t-6.5 16.5z" />
<glyph unicode="}" horiz-adv-x="708" d="M-246 -373q0 33 17 61.5t18 32.5q4 14 23.5 21.5t40.5 7.5h30q51 0 84 5t54 12t35.5 26.5t21.5 36.5t20 55l164 496q37 112 81.5 172t117.5 74q6 0 6 4t-6 4q-60 26 -60 102q0 63 23 133l143 453q25 76 25 121q0 31 -29 43t-88 12h-84q-22 0 -34.5 12.5t-12.5 30.5 q0 22 4.5 36t15 30.5t15.5 29.5q7 19 127 19h49q31 0 66.5 -11t71.5 -33t59.5 -63t23.5 -94q0 -71 -20 -133l-142 -422q-34 -108 -34 -141q0 -55 82 -55h38q35 0 48.5 -6t13.5 -23q0 -24 -4.5 -43.5t-9 -29t-12 -21t-9.5 -15.5q-7 -15 -25 -19.5t-61 -4.5q-32 0 -56.5 -7.5 t-53.5 -30t-56 -70.5t-51 -122l-121 -362q-25 -76 -45 -126t-45 -93.5t-51 -68t-63 -42.5t-80 -24.5t-103 -6.5h-31q-77 0 -104 7t-27 30z" />
<glyph unicode="~" horiz-adv-x="1126" d="M205 614q0 35 20 48q112 72 178 99t132 27q42 0 79.5 -20t65 -49t54 -58t58 -49t64.5 -20q39 0 78 18.5t64 40t47 40t30 18.5q25 0 45.5 -15.5t22.5 -34.5q1 -8 9.5 -11.5t8.5 -22.5q0 -17 -22 -37q-71 -64 -147 -111t-130 -47q-71 0 -116 22.5t-109 86.5 q-57 57 -78 69.5t-67 12.5q-18 0 -42 -14.5t-88 -61.5q-11 -9 -16.5 -12t-21.5 -7t-39 -4q-25 0 -36.5 7t-12.5 24q-3 20 -9 29.5t-10.5 10t-8 5t-3.5 16.5z" />
<glyph unicode="&#xa1;" horiz-adv-x="655" d="M162 -301q0 67 24 137q10 30 23.5 38.5t19.5 33.5q30 127 91 316.5t100 328.5q10 39 35 39q40 0 57 -17q33 -33 45 -50.5t12 -37.5q0 -24 -14 -61q-7 -19 -8.5 -40.5t-7.5 -39.5q-55 -163 -88 -275t-40 -152.5t-13.5 -74.5t-16.5 -61q-50 -134 -59 -178q-2 -9 -9 -13 t-15.5 -5t-25.5 -1q-16 0 -23.5 5t-20.5 17t-35 23q-11 5 -18 12t-9.5 17.5t-3 18t-0.5 20.5zM489 883q0 18 17 53q2 3 5.5 13t6.5 15.5t10.5 11t18.5 5.5q29 0 59.5 -10t52.5 -13q16 -2 29.5 -16t13.5 -33q0 -11 -22 -75q-24 -66 -64 -66q-5 0 -23 -2t-36 -2 q-35 0 -51.5 33.5t-16.5 85.5z" />
<glyph unicode="&#xa2;" horiz-adv-x="888" d="M115 274q0 122 37 209q68 160 134 247.5t136 137.5q68 49 105 64.5t91 15.5q11 0 17 17q28 85 47 114t49 29q5 0 21.5 -2t27.5 -2q14 0 36 -10.5t22 -20.5q0 -4 -5 -11t-16 -24t-22 -39q-29 -63 -29 -71q0 -9 12 -13q48 -21 72 -43q28 -26 42.5 -41.5t27 -41t12.5 -54.5 q0 -22 -35 -157q-3 -12 -5.5 -29.5t-4.5 -26t-7 -17.5t-15.5 -12.5t-28.5 -3.5q-35 0 -73 27.5t-38 42.5q0 19 4.5 39t14.5 49.5t14 44.5q12 44 12 70q0 49 -39 49q-7 0 -12 -14q-34 -100 -124.5 -379.5t-90.5 -300.5q0 -6 10 -6q47 0 117 45q9 6 27.5 26.5t27.5 26.5 q85 57 139 57q25 0 49 -18q27 -19 27 -37q0 -22 -39 -49q-235 -161 -352 -174q-26 -3 -35 -6.5t-12 -12.5q-2 -4 -10.5 -28t-17.5 -47.5t-13 -34.5q-13 -31 -26 -47.5t-34 -16.5q-8 0 -15 3t-12.5 7.5t-17.5 13.5t-26 17q-27 15 -27 39q0 17 19 49t32 76q0 7 -20 16 q-77 33 -128.5 109t-51.5 149zM289 276q0 -55 12 -86q26 -59 47 -59q14 0 19 16l22 72q41 131 111 337t86 259q0 10 -11 10q-15 0 -61 -53t-97 -133t-73 -143q-8 -22 -22.5 -59t-19 -51.5t-9 -43.5t-4.5 -66z" />
<glyph unicode="&#xa3;" horiz-adv-x="1003" d="M20 63q0 4 6 16t9 15q10 10 53 10q9 0 25.5 -3t33.5 -3t17 8q-8 16 -8 37q0 28 120 322q5 13 5 14q0 7 -29 10q-38 3 -53 16t-15 56q0 9 -8 29t-8 43q0 10 11 12t54 2q27 0 105 10q27 4 35 23l24 55q70 157 137.5 270t122.5 176.5t114 100t103.5 47t98.5 10.5 q81 0 117 -43q11 -14 33.5 -38.5t32 -36t18 -31.5t8.5 -41t-32 -112t-32 -105q0 -19 -17 -37t-42 -18q-10 0 -31 7t-33 9q-22 5 -31.5 9.5t-16.5 20t-7 44.5q0 16 23 60.5t24 66.5q1 13 11 38.5t10 47.5q0 10 -5.5 23.5t-17.5 13.5q-74 0 -175 -103t-183 -280l-52 -111 q-8 -16 -8 -23q0 -10 13 -10l77 17q79 16 103 16q26 0 38.5 -6t35.5 -29q20 -20 26 -31.5t6 -31.5q0 -47 -18 -47q-12 0 -36.5 -7t-51.5 -8q-20 -1 -49.5 -6.5t-83 -16.5t-90.5 -18q-38 -6 -47.5 -12.5t-20.5 -32.5q-131 -318 -141 -366q0 -7 3.5 -9t18.5 -2q27 0 239 44.5 t230 62.5q12 12 117 12q28 0 40.5 -5.5t33.5 -29.5q7 -8 13.5 -18t12.5 -16q21 -21 25 -28.5t4 -27.5q0 -43 -55 -43q-12 0 -28 1t-40 1q-18 0 -114.5 -20t-230 -47t-216.5 -39q-119 -17 -229 -17q-38 0 -52 2q-32 4 -42.5 19.5t-14.5 42.5t-14 43q-9 12 -9 26z" />
<glyph unicode="&#xa4;" horiz-adv-x="1040" d="M70 117q0 13 15.5 51t31.5 41q28 4 139 115l74 73q8 8 8 17q0 4 -4 12q-29 49 -29 113q0 70 33 162.5t113 172.5q10 10 10 19q0 7 -6 22q-24 58 -45 129.5t-21 96.5q0 48 14 71q12 22 35 35t37 13q13 0 39 -15q25 -13 32 -21.5t7 -23.5q0 -27 2 -37q6 -27 6 -59 q0 -28 5.5 -46t31.5 -83q5 -12 16 -12q47 12 86 12q62 0 134 -29q15 -6 20 -6q9 0 23 14q54 59 115.5 113.5t99.5 79.5q30 20 69 20q15 0 35.5 -15t20.5 -38q0 -4 -7 -35q-8 -36 -18.5 -51t-27.5 -21.5t-23 -11.5t-22 -15t-48 -35t-86 -71q-20 -17 -20 -26t8 -21 q26 -54 26 -92q0 -225 -135 -360q-10 -10 -10 -17q0 -6 2 -10q20 -51 38.5 -107.5t28 -79t21.5 -32.5q17 -14 17 -39q0 -15 -10.5 -25t-55.5 -36q-15 -9 -27 -9q-16 0 -43 17q-18 10 -32.5 31t-14.5 32q0 40 -57 174q-7 13 -12 13q-3 0 -23 -4q-69 -15 -106 -15 q-69 0 -125 33q-6 4 -13 4q-6 0 -12 -6q-5 -5 -29.5 -31t-42.5 -43q-180 -172 -206 -172q-37 0 -60 23q-22 22 -22 41zM467 510q0 -31 14 -33q16 -3 33 -41q6 -14 6.5 -24.5t3 -16t15.5 -14.5q16 -12 45 -12q27 0 51 12q25 13 42 24.5t33 29t25 29t29 40.5t33 47 q47 64 47 164q0 20 -5.5 30t-23 25t-31.5 31q-3 3 -5.5 22.5t-16.5 26.5q-20 10 -72 10q-60 0 -141 -123q-41 -62 -61.5 -124.5t-20.5 -102.5z" />
<glyph unicode="&#xa5;" horiz-adv-x="970" d="M76 248q0 5 6 11.5t8 14.5q3 15 33 15q2 0 26 -3.5t60.5 -6.5t69.5 -3q55 0 70 3.5t18 15.5q1 4 6 19t8.5 26.5t3.5 15.5q0 11 -14 11q-10 0 -36 -1t-36 -1q-101 0 -119 6q-14 6 -23.5 36t-9.5 70q0 5 2.5 8t7 6.5t7.5 8.5q11 16 37 16q7 0 65.5 -8t93.5 -8q44 0 54 5.5 t10 24.5q0 41 -1 140t-1 114q0 69 3 152t3 102q0 29 -4 63.5t-4 43.5v55q0 4 -1 18t-1 23q0 22 12 37.5t29 15.5q7 0 30 4.5t35 4.5q42 0 54 -15q16 -16 16 -37q0 -6 5 -22t5 -23q-2 -61 -6.5 -158t-7 -167.5t-2.5 -124.5q0 -37 10 -37q13 0 37 24q150 150 297 306 q56 59 82.5 98.5t40.5 95.5q8 33 8 51q0 21 49 21q6 0 28 -4t29 -4q8 0 19 -8.5t24 -8.5q25 0 25 -51q0 -39 -44 -117.5t-106 -140.5q-74 -74 -188 -190t-169.5 -171t-65.5 -61q-23 -14 -23 -29q0 -8 14 -8q4 0 82 10.5t88 10.5q43 0 62 -15q10 -8 10 -28q-3 -45 -18 -70 q-3 -4 -6.5 -13.5t-7.5 -15.5t-9 -6q-6 0 -25.5 2t-35.5 2q-5 0 -102 -7t-105 -7q-22 0 -25 -12q-24 -69 -24 -72q0 -10 12 -10q8 0 104 9t105 9q41 0 55 -10q16 -24 16 -27q0 -28 -16 -82q-2 -5 -9.5 -13.5t-10.5 -8.5q-11 0 -35.5 4t-44.5 4q-137 -18 -207 -18 q-10 0 -15 -5t-12 -24q-12 -35 -28.5 -99.5t-16.5 -72.5q0 -7 2 -14.5t2 -8.5q0 -7 -17 -42.5t-20 -67.5q-1 -17 -23 -28t-54 -11q-7 0 -16.5 7t-16.5 7q-14 0 -31 7.5t-27 16t-10 11.5q0 8 16 60.5t25 74.5q5 11 18.5 59.5t20.5 67.5q12 32 12 41q0 8 -10 8q-2 0 -47 -2 t-63 -2q-54 0 -66 6q-18 9 -36.5 38.5t-18.5 62.5z" />
<glyph unicode="&#xa6;" horiz-adv-x="598" d="M29 -317q0 15 20 73q11 32 17.5 62t9.5 41l145 436q39 115 82 115q27 0 48 -8.5t34 -10.5q27 -4 41 -18.5t14 -34.5q0 -30 -8 -67.5t-24 -55.5q-36 -40 -58 -102l-190 -496q-6 -16 -11.5 -21.5t-15.5 -5.5q-18 0 -27 3.5t-10.5 8.5t-6.5 12t-13 11q-25 14 -36 27t-11 31z M385 793q0 15 66 200l104 305q42 120 78 183q9 16 47 16q9 0 28 -8.5t40 -13.5q20 -5 37.5 -18t17.5 -25q0 -30 -6 -52t-6 -34q0 -11 -21 -37q-50 -62 -92 -174q-108 -289 -123 -342q-23 -70 -30 -83.5t-21 -13.5q-44 0 -55 23q-10 21 -22.5 35t-21 18.5t-14.5 9.5t-6 11z " />
<glyph unicode="&#xa7;" horiz-adv-x="831" d="M-90 -143q0 59 27 73q12 5 40 26t41 21q48 0 48 -34q0 -11 7 -32t7 -42q0 -16 5 -36t16.5 -42.5t34 -37.5t52.5 -15q14 0 36.5 13.5t35.5 27.5q43 50 43 115q0 66 -14 124.5t-53 167.5q-19 54 -28 83.5t-19.5 89t-10.5 122.5q0 48 10 108t29 91q48 82 114 136t120 69 q26 7 32 10.5t6 9.5q0 5 -4 29q-8 40 -8 94q0 80 30.5 144.5t102.5 130.5q37 34 89.5 53.5t142.5 19.5q56 0 90 -30q23 -19 44 -68t21 -98q0 -22 -7 -38t-15 -18q-11 -2 -39 -18t-57 -16q-13 0 -19 14q-10 26 -13 53.5t-3 28.5q-11 38 -25 52.5t-41 14.5q-47 0 -91 -42.5 t-44 -125.5q0 -110 88 -301q70 -152 70 -303q0 -115 -35 -184q-13 -26 -25.5 -45.5t-31 -40t-29.5 -30.5t-41 -36.5t-45 -40.5q-14 -12 -48.5 -25t-66.5 -20q-14 -3 -18 -7.5t-4 -12.5q0 -1 1.5 -11.5t3 -30.5t1.5 -44q0 -106 -31 -156q-53 -86 -139 -151q-51 -39 -146 -39 q-101 0 -169 66.5t-68 183.5zM346 524q0 -25 8 -78q4 -27 12 -57.5t13 -47.5t19.5 -60.5t19.5 -59.5q3 -12 22 -12q17 0 62 20.5t73 53.5q56 69 56 153q0 24 -2.5 44.5t-22 87t-57.5 167.5q-6 17 -19 17q-35 0 -85 -37.5t-74 -87.5q-25 -57 -25 -103z" />
<glyph unicode="&#xa8;" d="M553 1593q0 10 9.5 39t17.5 45q17 33 71 33q67 0 82 -27q23 -44 23 -65q0 -30 -23.5 -64.5t-23.5 -35.5q-1 -15 -29.5 -25t-50.5 -10q-25 0 -31 4q-15 9 -26.5 26.5t-14.5 20.5q-4 4 -4 59zM928 1503q0 21 18 61t45 40q2 0 17.5 -1t23.5 -1q29 0 52.5 -9.5t27.5 -27.5 q1 -6 12 -29.5t11 -36.5q0 -23 -5 -33q-33 -64 -51 -73t-59 -9q-36 0 -49 31q-2 6 -22.5 35t-20.5 53z" />
<glyph unicode="&#xa9;" horiz-adv-x="1630" d="M242 561q0 115 33 231.5t97 220.5t150 184.5t202 127.5t243 47q157 0 256 -27t182 -110q9 -9 52 -47.5t73 -73t57 -82.5q74 -129 74 -274q0 -77 -17.5 -163t-57 -185.5t-117 -193.5t-183.5 -159q-96 -59 -192 -78.5t-230 -19.5q-81 0 -190 28t-166 70q-32 24 -46.5 35.5 t-48.5 42.5t-52 55t-44.5 66t-40 83.5t-24 99.5t-10.5 122zM391 504q0 -91 27.5 -164t72 -120t105 -78.5t123 -44.5t129.5 -13q126 0 233.5 41t183 110t128.5 159t78.5 188t25.5 198q0 228 -129.5 341.5t-347.5 113.5q-117 0 -219 -42.5t-176 -114.5t-127.5 -165.5t-80 -198 t-26.5 -210.5zM553 489q0 119 42 221t120 208q57 77 144.5 136.5t193.5 59.5q45 0 84 -8q68 -15 145 -92q5 -5 11.5 -23t6.5 -28q0 -27 -15 -74.5t-15 -71.5q0 -8 -18 -16t-44 -8q-36 0 -71 10q-19 6 -30 15t-11 16q0 30 17 70.5t17 60.5q0 14 -10.5 21t-21 8t-29.5 1 q-39 0 -81.5 -28t-78 -71.5t-61.5 -82.5t-43 -74q-88 -171 -88 -319q0 -48 29 -82.5t92 -34.5q42 0 83 24.5t97 94.5q50 62 78.5 84t58.5 22h47q24 0 38.5 -9.5t14.5 -24.5q0 -2 5.5 -9t5.5 -12q0 -17 -13 -24q-20 -11 -47 -46q-86 -106 -154 -158t-149 -52q-48 0 -92 8 q-148 28 -215 131q-20 31 -31.5 76.5t-11.5 80.5z" />
<glyph unicode="&#xaa;" horiz-adv-x="905" d="M61 451q0 22 13.5 28t70.5 6q14 0 29 -5t27 -5q51 0 67 -5t39 -5q60 0 184 4t187 4q22 0 62 2t59 2q71 0 94 -6q12 -3 15 -16.5t14 -22.5q14 -11 14 -33q0 -35 -16 -61q-6 -9 -20.5 -11.5t-61.5 -2.5q-13 0 -89.5 1t-136.5 1q-37 0 -161 -2t-238 -2q-63 0 -88 4 q-19 3 -29 13.5t-16 37.5q-3 15 -11 26.5t-8 47.5zM223 733q0 40 11.5 80.5t38 86.5t47 75.5t59.5 83.5q71 98 211.5 180t222.5 82q39 0 72.5 -14t51 -28.5t48.5 -45.5q9 -9 36.5 -15.5t33.5 -11.5q22 -19 22 -35q0 -33 -24 -49q-6 -4 -31 -39q-53 -75 -94 -173t-41 -181 q0 -82 45 -135q0 -37 -25 -37q-46 -16 -76 -16q-39 0 -55 30q-11 19 -18 38.5t-10 41.5t-4.5 34.5t-2.5 40t-2 36.5q0 12 -14 12q-10 -8 -60 -50t-89 -74t-85.5 -60.5t-70.5 -28.5q-20 0 -56 12.5t-76.5 42t-54.5 66.5q-10 27 -10 51zM369 715q0 -13 16 -13q28 0 126.5 69.5 t193 157t108.5 128.5q5 17 36.5 56t31.5 58q0 23 -31 23q-15 0 -35 -4.5t-41.5 -11t-23.5 -7.5q-61 -15 -151.5 -95t-160 -184t-69.5 -177z" />
<glyph unicode="&#xab;" horiz-adv-x="839" d="M205 649q0 30 22 56l158 172q61 66 77.5 81t29.5 15q28 0 38 -5.5t13 -17.5q2 -10 11 -20t13 -17q19 -33 19 -51q0 -10 -4 -17.5t-23.5 -26t-58.5 -48.5q-29 -22 -63.5 -55t-49.5 -45q-12 -9 -12 -27q0 -10 6 -25q61 -133 76 -151q16 -18 16 -59q0 -37 -6 -46 q-15 -22 -30.5 -31t-45.5 -9q-8 0 -20 13.5t-19 31.5q-3 6 -25.5 39t-58.5 85t-51 74q-8 11 -8 47q0 9 -2 22t-2 15zM528 623q0 9 1.5 15t4 10t3.5 7q8 34 22 50l162 182q55 64 69 75t39 11q38 0 64 -55q7 -15 18 -28t11 -22q0 -15 -15 -30q-18 -19 -41.5 -36.5t-36.5 -29.5 l-110 -104q-14 -14 -14 -27t6 -25l92 -170q8 -14 8 -55q0 -20 -14 -29q-1 -1 -8 -9t-21 -17q-21 -14 -29 -14q-19 0 -24 8l-9 15q-10 15 -18 26l-141 194q-19 30 -19 58z" />
<glyph unicode="&#xac;" horiz-adv-x="1208" d="M266 612q0 13 15.5 53t21.5 48q8 11 44 14.5t183 3.5h183q46 0 137.5 -3t136.5 -3q18 0 43 3t33 3q14 0 40.5 -24t26.5 -35q0 -3 -4 -23q-1 -5 -8 -26q-61 -240 -67 -258q-3 -8 -6.5 -29.5t-8.5 -40.5q-8 -33 -17.5 -43t-25.5 -10h-41q-5 0 -18.5 -2t-20.5 -2 q-41 0 -41 24q0 17 8 42t26 78t34 110q8 31 8 51q0 18 -11.5 22t-53.5 4q-49 0 -174 4.5t-220 4.5q-18 0 -30 -1.5t-20.5 -4t-12.5 -3.5q-35 -4 -125 -4q-29 0 -29 13q0 8 -3 18t-3 16z" />
<glyph unicode="&#xad;" horiz-adv-x="933" d="M242 594q0 15 6 27q7 12 31 18t43 6q62 0 173 -4t171 -4q22 0 78.5 4t74.5 4q35 0 55.5 -10t20.5 -27q0 -49 -5 -70t-24 -40q-5 -5 -22 -8t-43.5 -7t-46.5 -10t-144 -6q-73 0 -186 8t-123 8q-24 0 -47 58q-12 32 -12 53z" />
<glyph unicode="&#xae;" horiz-adv-x="1347" d="M291 745q0 70 17.5 147t49.5 153.5t82.5 145.5t112 122.5t143 85t170.5 31.5q140 0 217.5 -22t135.5 -85q12 -13 44 -39.5t64 -58.5t55 -70q37 -61 52.5 -113t15.5 -120q0 -45 -9.5 -97.5t-32 -115t-56 -121.5t-87 -114.5t-119 -97.5t-157 -67.5t-196.5 -25.5 q-62 0 -138.5 22t-128.5 55q-103 68 -147.5 120.5t-69.5 152.5q-18 74 -18 112zM442 737q0 -147 96 -241.5t246 -94.5q202 0 328 113q96 86 143.5 203t47.5 239q0 27 -3 54q-10 99 -65 167.5t-135 99t-180 30.5q-90 0 -169 -35t-134.5 -93t-96 -132.5t-59.5 -153.5t-19 -156 zM584 551q0 4 6 49q17 118 94 350q17 51 35 94q8 19 8 21t-6 8q-31 31 -31 55q0 5 12 13q123 84 244 84q62 0 123 -25q14 -6 34 -24.5t23 -26.5q11 -37 11 -78q0 -102 -95 -197q-54 -54 -168 -77q51 -103 81.5 -136.5t74.5 -46.5q10 -3 12 -8q13 -23 13 -49q0 -25 -8.5 -34 t-22.5 -13q-16 -4 -45 -4q-27 0 -56.5 15.5t-48.5 37.5q-70 83 -112 205q-8 -12 -12.5 -25t-8.5 -29.5t-6 -23.5q-7 -23 -13 -60t-8.5 -61t-2.5 -28q0 -11 -9 -15q-16 -8 -36 -8q-27 0 -39 8q-6 4 -18 8.5t-18.5 9t-6.5 11.5zM801 887q54 0 94 26q47 31 76.5 77.5t29.5 99.5 q0 24 -4 32q-7 13 -28 13q-11 0 -25.5 -4.5t-25.5 -6.5q-16 -2 -25 -18q-34 -62 -49 -99t-43 -120z" />
<glyph unicode="&#xaf;" d="M520 1583q0 29 70 29q18 0 94.5 -4t183.5 -4q48 0 146.5 3t120.5 3q9 0 13 -4.5t7.5 -12.5t7.5 -12q8 -8 8 -14q0 -3 -2 -11t-2 -12q0 -40 -12 -63q-10 -17 -33 -17q-8 0 -35.5 1t-39.5 1q-11 0 -136.5 -2t-185.5 -2q-136 0 -160 8q-45 16 -45 113z" />
<glyph unicode="&#xb0;" horiz-adv-x="786" d="M356 1006q0 60 30.5 118.5t96.5 147.5q31 42 93 78t106 36q39 0 59.5 -2t55.5 -15.5t75 -41.5q42 -30 73.5 -87.5t31.5 -109.5q0 -62 -50.5 -170.5t-144.5 -189.5q-55 -47 -143 -47q-49 0 -96 20q-44 20 -84.5 52.5t-55.5 60.5q-47 83 -47 150zM504 934q0 -62 29 -88.5 t57 -26.5q36 0 59 31q107 139 146 203.5t39 113.5q0 25 -15 62q-24 59 -55 59q-23 0 -35 -4.5t-31 -21.5q-194 -182 -194 -328z" />
<glyph unicode="&#xb1;" horiz-adv-x="1208" d="M160 203q0 14 17.5 23.5t51.5 9.5q10 0 53.5 -4t116.5 -8.5t154 -4.5q33 0 199 8.5t231 8.5q18 0 27.5 -4.5t29.5 -24.5q7 -14 7 -31q0 -40 -17 -86q-6 -16 -16 -16q-8 0 -28 2t-28 2q-28 0 -212.5 -8.5t-278.5 -8.5q-62 0 -160 7.5t-104 7.5q-18 0 -30.5 47t-12.5 80z M293 778q0 13 18 27q17 14 37 14q15 0 29 -4q42 -12 178 -12h55q44 0 49 14q54 166 60 193q24 105 47 112q20 6 39 13t29 10.5t18 3.5q13 0 32 -4t23 -8q11 -11 11 -21q0 -3 -4 -13t-5 -13l-22 -72q-49 -155 -62 -193q0 -10 9 -10q16 2 45 2q21 0 116 11.5t109 11.5 q47 0 76 -29q8 -8 8 -25q0 -13 -4 -26t-12 -30t-11 -25q-8 -21 -20 -21q-5 0 -15.5 2t-15.5 2q-21 0 -53 -4q-48 -6 -130 -13t-143 -14q-12 0 -14 -6q-26 -93 -36.5 -141.5t-24.5 -144.5q-3 -19 -5.5 -28.5t-9.5 -21t-20.5 -16t-34.5 -4.5q-5 0 -17 -3t-16 -3 q-21 0 -35.5 5.5t-20 11.5t-5.5 11q0 30 5.5 61t18.5 85t21 92l14 74q0 12 -10 12h-78q-44 0 -106 7.5t-80 13.5q-16 6 -26.5 37t-10.5 79z" />
<glyph unicode="&#xb2;" horiz-adv-x="745" d="M197 496q0 23 49 75q47 50 155 158q340 340 340 467q0 25 -16 25q-25 0 -49 -11t-47 -34t-33 -35t-29 -37q-3 -5 -18.5 -21t-20.5 -26q-11 -28 -41 -31q-10 -1 -20.5 -3.5t-13.5 -2.5q-40 0 -60 20q-26 26 -26 66q0 11 5 23.5t9 18.5t15 19l10 13q21 29 51 52t80 54 q48 29 84.5 37t101.5 8q51 0 109.5 -49.5t58.5 -83.5q0 -184 -195 -391q-27 -28 -111 -111.5t-135 -137.5t-51 -64q0 -4 11 -7q18 -4 84 -4q91 0 123.5 15.5t52.5 62.5q17 42 24 49q23 23 66 23q40 0 71 -35q11 -11 11 -31q0 -36 -20 -90t-31 -67q-23 -28 -81 -38t-188 -10 q-223 0 -266 35q-59 48 -59 99z" />
<glyph unicode="&#xb3;" horiz-adv-x="745" d="M217 567q0 18 10 26.5t37 8.5q20 0 37 2t23 2q28 0 43 -18q6 -8 19.5 -20.5t21.5 -23t8 -20.5q0 -12 29.5 -35.5t54.5 -23.5q12 0 24 8q75 50 123 158q14 31 26.5 70t12.5 49q0 29 -16 53q-7 12 -25 12q-11 0 -31 -8q-6 -2 -20.5 -6t-22.5 -8q-4 -2 -23.5 -13.5 t-33 -18.5t-35.5 -13.5t-41 -6.5q-18 0 -39 7q-18 6 -29.5 25t-11.5 38q0 11 7 18q25 22 61 41q11 6 19 13t12 12t6 6q141 94 229 270q6 12 6 19q0 4 -4 4q-6 0 -14 -4q-44 -23 -82.5 -51.5t-38.5 -42.5q0 -13 -6 -20t-16.5 -13.5t-16.5 -13.5q-10 -13 -53 -13q-32 0 -45 13 q-10 10 -22.5 31.5t-12.5 29.5q0 20 9.5 38t20.5 28t32 27.5t32 27.5q5 5 27.5 11t28.5 9q109 68 184 68q46 0 76 -21q6 -4 18 -8q38 -12 55 -45q9 -18 9 -33q0 -17 -15 -51q-2 -5 -6.5 -17t-7.5 -18q-65 -115 -150 -204q138 -29 138 -174q0 -75 -54 -185q-17 -36 -33.5 -64 t-41 -58.5t-51.5 -50.5t-64.5 -33t-79.5 -13q-129 0 -274 172q-23 27 -23 51z" />
<glyph unicode="&#xb4;" d="M553 1501q0 17 10 29q7 10 27 10q8 0 51 16l182 70q116 45 158 72q9 6 29 6q23 0 39 -16q22 -22 22 -58q0 -40 -10 -53q-13 -17 -42 -29t-106 -37l-241 -75q-21 -6 -41 -6q-15 0 -23 4q-20 14 -30 28q-8 12 -19 23q-6 6 -6 16z" />
<glyph unicode="&#xb5;" d="M-279 -492q0 33 16 58.5t85 101.5q19 21 80 135q261 480 524 1057q28 62 43 62q18 0 32 9t21 9q69 0 80 -22q10 -18 10 -64q0 -10 -19 -37.5t-24 -42.5q-5 -14 -39 -79.5t-43 -108.5q-9 -40 -24 -99t-20 -85t-10 -80.5t-5 -128.5q0 -84 25 -84q18 0 41 20q12 10 36 38 t44 53.5t48 62t35 45.5q87 110 120.5 171.5t92.5 221.5q12 33 26 45t54 12q9 0 28.5 -10t27.5 -10q18 0 27 -8t9 -19q0 -37 -14 -69q-116 -248 -149 -463q-13 -93 -13 -152q0 -20 8 -33t16.5 -38t8.5 -74q0 -31 -63 -31q-14 0 -35 10t-37 10q-24 0 -33 68q-6 43 -6 107 q0 29 2 57.5t2 34.5q0 18 -10 18q-4 0 -16.5 -16.5t-28.5 -40.5t-19 -27q-49 -65 -104 -104t-78 -39q-68 0 -115 28q-29 17 -41 29t-18 29q-10 35 -10 112q0 51 2 84q0 19 -6 19q-7 0 -107 -215q-105 -225 -256 -531q-41 -86 -65 -86q-11 0 -35 2t-29 2q-9 0 -25 16t-28 17 q-19 2 -19 53z" />
<glyph unicode="&#xb6;" horiz-adv-x="1392" d="M332 748q0 70 19.5 148.5t57 153.5t87 138.5t116 106.5t138.5 53q33 10 63 10q21 0 76 -3t67 -3q25 0 86.5 -3t83.5 -3q7 0 34 1t44 1q67 0 103 6q19 3 72.5 5t72.5 3q6 1 17 1.5t15 1t11.5 1.5t12.5 2t13 3.5t16 5.5t19 7q21 7 48 7q71 0 98 -29q29 -36 35 -46.5 t6 -21.5q0 -7 -3 -19.5t-3 -19.5q0 -4 -28.5 -15t-35.5 -11q-42 -15 -69 -17q-34 -2 -77.5 -16t-56.5 -31q-26 -36 -26 -65q0 -36 -39 -131l-80 -193q-2 -6 -28.5 -56.5t-34.5 -78.5q-4 -14 -13.5 -36t-30.5 -74.5t-47 -124.5q-28 -79 -97 -258t-87 -234q-12 -29 -29 -131 q-1 -6 -11.5 -50t-10.5 -50t4 -17.5t4 -17.5q0 -20 -37 -39q-26 -14 -66 -22.5t-69 -8.5q-35 0 -35 12q0 9 -8 17q-12 10 -12 22q0 14 5.5 49t26.5 118t54 181q19 57 60.5 160.5t47.5 122.5q15 49 67 175.5t97 244.5q54 144 109.5 279.5t75.5 189.5q10 23 10 29t-8 6 q-14 0 -44 1t-81 1q-9 0 -15 -12q-2 -8 -22.5 -58.5t-52.5 -130.5t-56 -143q-12 -32 -32.5 -73t-35 -69t-16.5 -34q-10 -35 -44.5 -117t-70 -161t-38.5 -87q-104 -263 -136.5 -355t-37.5 -134q-1 -11 -9 -39t-8 -37q0 -8 1 -18t1 -21q0 -19 -6 -37q-9 -23 -55.5 -44.5 t-81.5 -21.5q-12 0 -19 2.5t-14.5 9t-9.5 7.5q-6 3 -16.5 4t-12.5 8q-6 15 -6 35q0 22 2 47q8 93 49 201l99 248q6 14 29 70t33 79t29 63t36 70q-113 8 -201 95.5t-88 214.5z" />
<glyph unicode="&#xb7;" horiz-adv-x="704" d="M295 559q0 39 7 74t17 45q20 20 67.5 33.5t92.5 13.5q55 0 78 -29q35 -44 35 -90q0 -25 -6 -49q-21 -70 -51.5 -107.5t-81.5 -37.5q-41 0 -89.5 16t-56.5 41q-12 38 -12 90z" />
<glyph unicode="&#xb8;" horiz-adv-x="692" d="M0 -215q0 16 31 47q8 8 16 8q4 0 11.5 -3t11.5 -3q10 0 24 -9.5t15 -19.5q2 -14 24 -27.5t49 -13.5q43 0 69.5 30t61.5 100q11 22 11 38q0 21 -11 39l-55 86h111l67 -106q21 -29 21 -78q0 -16 -10.5 -45.5t-24.5 -50.5q-86 -123 -186 -123q-46 0 -121 27q-69 25 -101 71 q-14 20 -14 33z" />
<glyph unicode="&#xb9;" horiz-adv-x="745" d="M205 666q0 10 26 36q35 35 88 72q33 23 64 57q128 139 283 326q44 53 110 162q7 12 37 12q39 0 77 -20t38 -51q0 -7 -4 -19q-32 -81 -63.5 -183.5t-48 -167t-48.5 -198.5t-43 -178q-14 -54 -14 -88q0 -8 -1.5 -18t-6 -22.5t-15 -21t-25.5 -8.5q-7 0 -19 -2t-19 -2 q-50 0 -82 29q-9 9 -9 31q0 17 9 53q3 22 14 48.5t14 37.5q86 321 103 397q0 4 -4 4t-15 -14q-108 -133 -181 -212t-95.5 -98.5t-24.5 -23.5q-7 -14 -45 -14q-31 0 -45 14q-5 5 -17 12.5t-16 12.5q-22 25 -22 37z" />
<glyph unicode="&#xba;" horiz-adv-x="835" d="M61 442q0 22 13.5 28.5t70.5 6.5q14 0 59.5 -7t57.5 -7h92q72 0 153 2.5t133.5 5t55.5 2.5q71 0 115 -8q14 -3 14 -8q0 -4 -4 -8t-4 -7q0 -5 19.5 -21t19.5 -26q0 -21 -25 -57q-7 -10 -23 -12t-67 -2q-13 0 -81 2t-128 2q-37 0 -91.5 -6.5t-168.5 -6.5q-92 0 -137 9 q-34 7 -45 15t-14 26q-3 13 -6 20.5t-4.5 10t-3 13.5t-1.5 33zM270 815q0 66 29.5 140t87.5 175q54 93 136.5 153t181.5 60q28 0 46.5 -6.5t25 -13.5t17 -13.5t23.5 -6.5q44 0 89.5 -70t45.5 -156q0 -96 -53 -211t-135 -213q-55 -66 -105.5 -84t-128.5 -18q-128 0 -192 88 q-68 92 -68 176zM426 780q0 -58 27.5 -93.5t74.5 -35.5q22 0 50 22.5t51 59.5q162 258 162 348q0 54 -29 90q-14 19 -14 33q0 16 -6.5 20.5t-30.5 4.5q-21 0 -48 -16t-49 -46q-188 -257 -188 -387z" />
<glyph unicode="&#xbb;" horiz-adv-x="839" d="M190 362q0 33 3.5 49.5t15.5 30.5l174 181q16 19 16 36q0 9 -8 25l-53 98q-35 67 -35 68q-10 13 -10 24q0 8 24 40.5t37 41.5q24 15 39 15q10 0 20 5t19 5q17 0 27 -23l98 -235q12 -32 12 -74q0 -20 -14.5 -45t-30.5 -39l-248 -221q-25 -25 -40 -25q-7 0 -29 17 q-17 11 -17 26zM512 393q0 13 8 21l193 209q14 14 14 28t-8 25q-15 22 -27 53q-4 12 -15.5 28.5t-21.5 39.5q-5 11 -24 36t-19 33q0 14 7.5 23.5t26.5 25.5t34 35q16 21 51 21q19 0 27 -4q10 -5 18.5 -19t36.5 -71l78 -160q8 -16 8 -68q0 -13 -12 -38t-33 -46l-205 -205 q-24 -24 -40 -30t-48 -6q-10 0 -23.5 16.5t-13.5 32.5q0 2 -6 7t-6 13z" />
<glyph unicode="&#xbc;" horiz-adv-x="1945" d="M205 666q0 10 26 36q35 35 88 72q33 23 64 57q128 139 283 326q44 53 110 162q7 12 37 12q39 0 77 -20t38 -51q0 -7 -4 -19q-32 -81 -63.5 -183.5t-48 -167t-48.5 -198.5t-43 -178q-14 -54 -14 -88q0 -8 -1.5 -18t-6 -22.5t-15 -21t-25.5 -8.5q-7 0 -19 -2t-19 -2 q-50 0 -82 29q-9 9 -9 31q0 17 9 53q3 22 14 48.5t14 37.5q86 321 103 397q0 4 -4 4t-15 -14q-108 -133 -181 -212t-95.5 -98.5t-24.5 -23.5q-7 -14 -45 -14q-31 0 -45 14q-5 5 -17 12.5t-16 12.5q-22 25 -22 37zM596 4q0 47 5 61t17 17q15 5 34 27.5t71 101.5l625 963 q33 51 79.5 106t65.5 70q39 28 66 28q28 0 55 -24q18 -15 18 -60q0 -38 -3 -47t-15 -14q-15 -5 -31 -23q-20 -23 -44 -39.5t-32 -27.5q-107 -140 -212 -303.5t-230.5 -370.5t-210.5 -338q-57 -87 -102 -142t-56 -55q-26 0 -38.5 3t-28.5 14q-19 13 -26 23t-7 30zM1165 340 q0 30 17 49q18 20 87 99t108 122.5t105.5 110t125.5 117.5q23 20 30 30q22 35 58 35q20 0 41 -8q57 -21 57 -61q0 -18 -12.5 -51.5t-12.5 -41.5q0 -29 -12 -73q-2 -8 -27.5 -93.5t-39.5 -136.5q-21 -82 -21 -92q0 -6 6 -6l14 3q14 3 36 6t44 3q54 0 76 -22q7 -7 15 -23 q12 -28 12 -41q0 -10 -6 -16t-19 -9t-25.5 -4t-34 -2.5t-36.5 -3.5q-61 -8 -100 -18q-14 -31 -21 -67.5t-12 -85t-8 -70.5q-4 -33 -29 -33q-18 0 -35 4.5t-24.5 8.5t-25 15t-21.5 13q-21 13 -21 41q0 19 12 84l9 41q4 20 4 22q0 7 -11 7q-141 0 -217 30q-29 12 -57.5 57.5 t-28.5 59.5zM1331 326q0 -3 6.5 -7.5t14.5 -5.5q23 -4 84 -4q17 0 57 4q10 1 12 4t4 13q4 26 12 58.5t12.5 48.5t19.5 66.5t18 61.5q14 49 14 51q0 7 -2 7q-4 0 -24 -23q-97 -110 -222 -262q-6 -9 -6 -12z" />
<glyph unicode="&#xbd;" horiz-adv-x="1945" d="M205 666q0 10 26 36q35 35 88 72q33 23 64 57q128 139 283 326q44 53 110 162q7 12 37 12q39 0 77 -20t38 -51q0 -7 -4 -19q-32 -81 -63.5 -183.5t-48 -167t-48.5 -198.5t-43 -178q-14 -54 -14 -88q0 -8 -1.5 -18t-6 -22.5t-15 -21t-25.5 -8.5q-7 0 -19 -2t-19 -2 q-50 0 -82 29q-9 9 -9 31q0 17 9 53q3 22 14 48.5t14 37.5q86 321 103 397q0 4 -4 4t-15 -14q-108 -133 -181 -212t-95.5 -98.5t-24.5 -23.5q-7 -14 -45 -14q-31 0 -45 14q-5 5 -17 12.5t-16 12.5q-22 25 -22 37zM573 4q0 32 3 49.5t7.5 22t12.5 6.5q15 5 33.5 27t70.5 102 l625 963q33 51 79.5 106t65.5 70q39 28 66 28q28 0 55 -24q19 -16 19 -60q0 -37 -3.5 -46.5t-15.5 -14.5q-14 -5 -30 -23q-20 -23 -44 -39.5t-32 -27.5q-107 -140 -212 -303t-231 -371t-211 -338q-57 -88 -101.5 -142.5t-55.5 -54.5q-44 0 -68 17q-19 13 -26 23t-7 30z M1155 100q0 24 49 76q31 33 156 158q340 340 340 467q0 24 -17 24q-25 0 -49 -10.5t-46.5 -33.5t-32.5 -35t-29 -37q-3 -5 -18.5 -21t-20.5 -26q-11 -28 -41 -31q-10 -1 -21 -3.5t-14 -2.5q-39 0 -59 20q-27 27 -27 66q0 11 5 23t9.5 18.5t14 18.5t10.5 13q33 46 131 107 q48 29 84.5 37t101.5 8q51 0 109.5 -49.5t58.5 -83.5q0 -185 -194 -391q-26 -27 -111 -111.5t-135.5 -138.5t-50.5 -64q0 -4 10 -6q18 -4 84 -4q91 0 123.5 15.5t52.5 62.5q16 40 25 49q23 23 65 23q41 0 72 -35q10 -10 10 -31q0 -36 -20 -90.5t-31 -67.5q-23 -27 -80 -37 t-188 -10q-224 0 -267 35q-59 48 -59 98z" />
<glyph unicode="&#xbe;" horiz-adv-x="1945" d="M217 567q0 18 10 26.5t37 8.5q20 0 37 2t23 2q28 0 43 -18q6 -8 19.5 -20.5t21.5 -23t8 -20.5q0 -12 29.5 -35.5t54.5 -23.5q12 0 24 8q75 50 123 158q14 31 26.5 70t12.5 49q0 29 -16 53q-7 12 -25 12q-11 0 -31 -8q-6 -2 -20.5 -6t-22.5 -8q-4 -2 -23.5 -13.5 t-33 -18.5t-35.5 -13.5t-41 -6.5q-18 0 -39 7q-18 6 -29.5 25t-11.5 38q0 11 7 18q25 22 61 41q11 6 19 13t12 12t6 6q141 94 229 270q6 12 6 19q0 4 -4 4q-6 0 -14 -4q-44 -23 -82.5 -51.5t-38.5 -42.5q0 -13 -6 -20t-16.5 -13.5t-16.5 -13.5q-10 -13 -53 -13q-32 0 -45 13 q-10 10 -22.5 31.5t-12.5 29.5q0 20 9.5 38t20.5 28t32 27.5t32 27.5q5 5 27.5 11t28.5 9q109 68 184 68q46 0 76 -21q6 -4 18 -8q38 -12 55 -45q9 -18 9 -33q0 -17 -15 -51q-2 -5 -6.5 -17t-7.5 -18q-65 -115 -150 -204q138 -29 138 -174q0 -75 -54 -185q-17 -36 -33.5 -64 t-41 -58.5t-51.5 -50.5t-64.5 -33t-79.5 -13q-129 0 -274 172q-23 27 -23 51zM596 4q0 47 5 61t17 17q15 5 34 27.5t71 101.5l625 963q33 51 79.5 106t65.5 70q39 28 66 28q28 0 55 -24q18 -15 18 -60q0 -38 -3 -47t-15 -14q-15 -5 -31 -23q-20 -23 -44 -39.5t-32 -27.5 q-107 -140 -212 -303.5t-230.5 -370.5t-210.5 -338q-57 -87 -102 -142t-56 -55q-26 0 -38.5 3t-28.5 14q-19 13 -26 23t-7 30zM1165 340q0 30 17 49q18 20 87 99t108 122.5t105.5 110t125.5 117.5q23 20 30 30q22 35 58 35q20 0 41 -8q57 -21 57 -61q0 -18 -12.5 -51.5 t-12.5 -41.5q0 -29 -12 -73q-2 -8 -27.5 -93.5t-39.5 -136.5q-21 -82 -21 -92q0 -6 6 -6l14 3q14 3 36 6t44 3q54 0 76 -22q7 -7 15 -23q12 -28 12 -41q0 -10 -6 -16t-19 -9t-25.5 -4t-34 -2.5t-36.5 -3.5q-61 -8 -100 -18q-14 -31 -21 -67.5t-12 -85t-8 -70.5 q-4 -33 -29 -33q-18 0 -35 4.5t-24.5 8.5t-25 15t-21.5 13q-21 13 -21 41q0 19 12 84l9 41q4 20 4 22q0 7 -11 7q-141 0 -217 30q-29 12 -57.5 57.5t-28.5 59.5zM1331 326q0 -3 6.5 -7.5t14.5 -5.5q23 -4 84 -4q17 0 57 4q10 1 12 4t4 13q4 26 12 58.5t12.5 48.5t19.5 66.5 t18 61.5q14 49 14 51q0 7 -2 7q-4 0 -24 -23q-97 -110 -222 -262q-6 -9 -6 -12z" />
<glyph unicode="&#xbf;" horiz-adv-x="737" d="M102 -184q0 54 15 89.5t54.5 82.5t154.5 166q140 145 159 170q27 34 27 63q0 22 -26 34.5t-56 12.5q-56 0 -80 -16q-36 -23 -59 -23q-12 0 -30 7t-23 20q-2 6 -10.5 20.5t-8.5 20.5q0 12 11 31.5t20 27.5q22 18 66 30.5t87 12.5q55 0 94.5 -8t86.5 -33q90 -49 90 -127 q0 -37 -4.5 -57t-32.5 -61.5t-79.5 -95t-154.5 -154.5q-85 -83 -114 -125t-29 -74q0 -22 29.5 -44t54.5 -22q42 0 71 20t29 60q0 3 -2 20.5t-2 24.5q0 43 47 43q28 0 41.5 -5t32.5 -25q10 -10 18.5 -32.5t8.5 -39.5q0 -38 -17.5 -74t-40.5 -57q-62 -57 -161 -57 q-96 0 -168 41q-39 23 -69 58t-30 75zM516 844q0 25 10 55q16 53 34.5 68.5t43.5 15.5q23 0 82 -40t59 -64q0 -52 -18 -70q-51 -51 -98 -51q-21 0 -42.5 8.5t-29.5 19.5q-4 6 -15 18t-18.5 22t-7.5 18z" />
<glyph unicode="&#xc0;" d="M23 315q0 30 12 69.5t18 43.5q11 8 23 8q17 0 46 -17.5t42 -17.5q9 0 24 29q246 458 557 924q23 34 31 42.5t15 8.5q9 0 57 12.5t74 12.5q21 0 43.5 -6t25.5 -13q3 -10 10 -17.5t7 -15.5q0 -10 -15.5 -99.5t-15.5 -94.5q0 -28 -6 -68q-11 -70 -22.5 -195t-17 -211.5 t-5.5 -95.5q0 -12 12 -12q1 0 36 4t70 4q94 0 125 -39q13 -16 13 -22q0 -14 -8 -27q-18 -30 -52.5 -41.5t-95.5 -11.5q-57 0 -90 -20q-14 -9 -18 -15.5t-5 -25.5l-10 -205q-2 -27 -2 -129q0 -46 4 -85.5t10.5 -63t12.5 -40t10 -25t4 -10.5q0 -7 -2 -13t-8.5 -12.5t-8.5 -9 t-12 -9.5l-10 -7q-10 -8 -22 -8q-68 0 -105 37q-19 19 -29 97t-10 163q0 46 4 136.5t4 137.5q0 9 -12 9q-99 -36 -229.5 -76.5t-186.5 -48.5q-11 -2 -17 -7t-13 -22q-33 -73 -33 -143q0 -40 1.5 -64.5t3 -35t1.5 -15.5t-10 -12q-7 -5 -24 -18.5t-29 -20t-25 -6.5 q-12 0 -39 18q-34 22 -45.5 49t-11.5 90q0 35 6.5 78t13.5 72l6 29q0 8 -12 14q-41 22 -53 33t-12 30zM379 426q0 -8 12 -8q17 0 86.5 19t118.5 38l66 24t50.5 17.5t20.5 7.5q13 5 15 23q49 383 49 549q0 32 -6 32q-9 0 -19 -16q-234 -375 -369 -633q-24 -47 -24 -53z M711 1718q0 32 22 54q24 24 49 24q6 0 16 -3t13 -3t6 -1.5t11 -7t18 -13t31.5 -23.5t46.5 -33l209 -143q53 -37 53 -51q0 -5 -10 -35q-2 -8 -4 -19.5t-3 -13.5q-7 -20 -26 -20q-36 0 -64 18l-209 135q-52 35 -135 68q-24 10 -24 67z" />
<glyph unicode="&#xc1;" d="M23 315q0 30 12 69.5t18 43.5q11 8 23 8q17 0 46 -17.5t42 -17.5q9 0 24 29q246 458 557 924q23 34 31 42.5t15 8.5q9 0 57 12.5t74 12.5q21 0 43.5 -6t25.5 -13q3 -10 10 -17.5t7 -15.5q0 -10 -15.5 -99.5t-15.5 -94.5q0 -28 -6 -68q-11 -70 -22.5 -195t-17 -211.5 t-5.5 -95.5q0 -12 12 -12q1 0 36 4t70 4q94 0 125 -39q13 -16 13 -22q0 -14 -8 -27q-18 -30 -52.5 -41.5t-95.5 -11.5q-57 0 -90 -20q-14 -9 -18 -15.5t-5 -25.5l-10 -205q-2 -27 -2 -129q0 -46 4 -85.5t10.5 -63t12.5 -40t10 -25t4 -10.5q0 -7 -2 -13t-8.5 -12.5t-8.5 -9 t-12 -9.5l-10 -7q-10 -8 -22 -8q-68 0 -105 37q-19 19 -29 97t-10 163q0 46 4 136.5t4 137.5q0 9 -12 9q-99 -36 -229.5 -76.5t-186.5 -48.5q-11 -2 -17 -7t-13 -22q-33 -73 -33 -143q0 -40 1.5 -64.5t3 -35t1.5 -15.5t-10 -12q-7 -5 -24 -18.5t-29 -20t-25 -6.5 q-12 0 -39 18q-34 22 -45.5 49t-11.5 90q0 35 6.5 78t13.5 72l6 29q0 8 -12 14q-41 22 -53 33t-12 30zM379 426q0 -8 12 -8q17 0 86.5 19t118.5 38l66 24t50.5 17.5t20.5 7.5q13 5 15 23q49 383 49 549q0 32 -6 32q-9 0 -19 -16q-234 -375 -369 -633q-24 -47 -24 -53z M627 1579q0 17 10 29q7 10 27 10q8 0 51 16l182 70q116 45 158 72q9 6 28 6q22 0 39 -17q23 -23 23 -57q0 -40 -10 -53q-13 -17 -42 -29t-106 -37l-242 -76q-21 -6 -40 -6q-15 0 -23 4q-21 14 -31 29t-18 23q-6 6 -6 16z" />
<glyph unicode="&#xc2;" d="M23 315q0 30 12 69.5t18 43.5q11 8 23 8q17 0 46 -17.5t42 -17.5q9 0 24 29q246 458 557 924q23 34 31 42.5t15 8.5q9 0 57 12.5t74 12.5q21 0 43.5 -6t25.5 -13q3 -10 10 -17.5t7 -15.5q0 -10 -15.5 -99.5t-15.5 -94.5q0 -28 -6 -68q-11 -70 -22.5 -195t-17 -211.5 t-5.5 -95.5q0 -12 12 -12q1 0 36 4t70 4q94 0 125 -39q13 -16 13 -22q0 -14 -8 -27q-18 -30 -52.5 -41.5t-95.5 -11.5q-57 0 -90 -20q-14 -9 -18 -15.5t-5 -25.5l-10 -205q-2 -27 -2 -129q0 -46 4 -85.5t10.5 -63t12.5 -40t10 -25t4 -10.5q0 -7 -2 -13t-8.5 -12.5t-8.5 -9 t-12 -9.5l-10 -7q-10 -8 -22 -8q-68 0 -105 37q-19 19 -29 97t-10 163q0 46 4 136.5t4 137.5q0 9 -12 9q-99 -36 -229.5 -76.5t-186.5 -48.5q-11 -2 -17 -7t-13 -22q-33 -73 -33 -143q0 -40 1.5 -64.5t3 -35t1.5 -15.5t-10 -12q-7 -5 -24 -18.5t-29 -20t-25 -6.5 q-12 0 -39 18q-34 22 -45.5 49t-11.5 90q0 35 6.5 78t13.5 72l6 29q0 8 -12 14q-41 22 -53 33t-12 30zM379 426q0 -8 12 -8q17 0 86.5 19t118.5 38l66 24t50.5 17.5t20.5 7.5q13 5 15 23q49 383 49 549q0 32 -6 32q-9 0 -19 -16q-234 -375 -369 -633q-24 -47 -24 -53z M672 1577q0 35 4 43q5 9 11 15l7 7q7 15 113 52l182 63q18 6 27 6q32 0 39 -14q2 -5 9.5 -9.5t14.5 -17.5l123 -211q23 -40 23 -51q0 -9 -5 -15t-13 -12.5t-11 -11.5q-9 -14 -15.5 -18t-21.5 -4q-5 0 -17.5 8.5t-19.5 19.5l-129 177q-7 12 -16 12q-7 0 -21 -6 q-183 -77 -215 -105q-2 -2 -10 -2q-11 0 -20 4.5t-17 11.5t-12 9q-10 6 -10 49z" />
<glyph unicode="&#xc3;" d="M23 315q0 30 12 69.5t18 43.5q11 8 23 8q17 0 46 -17.5t42 -17.5q9 0 24 29q246 458 557 924q23 34 31 42.5t15 8.5q9 0 57 12.5t74 12.5q21 0 43.5 -6t25.5 -13q3 -10 10 -17.5t7 -15.5q0 -10 -15.5 -99.5t-15.5 -94.5q0 -28 -6 -68q-11 -70 -22.5 -195t-17 -211.5 t-5.5 -95.5q0 -12 12 -12q1 0 36 4t70 4q94 0 125 -39q13 -16 13 -22q0 -14 -8 -27q-18 -30 -52.5 -41.5t-95.5 -11.5q-57 0 -90 -20q-14 -9 -18 -15.5t-5 -25.5l-10 -205q-2 -27 -2 -129q0 -46 4 -85.5t10.5 -63t12.5 -40t10 -25t4 -10.5q0 -7 -2 -13t-8.5 -12.5t-8.5 -9 t-12 -9.5l-10 -7q-10 -8 -22 -8q-68 0 -105 37q-19 19 -29 97t-10 163q0 46 4 136.5t4 137.5q0 9 -12 9q-99 -36 -229.5 -76.5t-186.5 -48.5q-11 -2 -17 -7t-13 -22q-33 -73 -33 -143q0 -40 1.5 -64.5t3 -35t1.5 -15.5t-10 -12q-7 -5 -24 -18.5t-29 -20t-25 -6.5 q-12 0 -39 18q-34 22 -45.5 49t-11.5 90q0 35 6.5 78t13.5 72l6 29q0 8 -12 14q-41 22 -53 33t-12 30zM379 426q0 -8 12 -8q17 0 86.5 19t118.5 38l66 24t50.5 17.5t20.5 7.5q13 5 15 23q49 383 49 549q0 32 -6 32q-9 0 -19 -16q-234 -375 -369 -633q-24 -47 -24 -53z M666 1683q0 6 5 16t13 13l129 47q52 19 92 19q27 0 47 -19t52 -67q34 -50 46 -61t37 -11q5 0 80 24.5t84 24.5q17 0 28 -12t13 -27q1 -5 4.5 -17.5t3.5 -25.5q0 -10 -16 -20q-142 -92 -201 -92q-62 0 -108 36q-22 17 -49.5 60.5t-34.5 48.5q-9 6 -19 6q-30 0 -100 -43 q-10 -6 -20 -6q-70 0 -70 31q0 10 -8 36.5t-8 38.5z" />
<glyph unicode="&#xc4;" d="M23 315q0 30 12 69.5t18 43.5q11 8 23 8q17 0 46 -17.5t42 -17.5q9 0 24 29q246 458 557 924q23 34 31 42.5t15 8.5q9 0 57 12.5t74 12.5q21 0 43.5 -6t25.5 -13q3 -10 10 -17.5t7 -15.5q0 -10 -15.5 -99.5t-15.5 -94.5q0 -28 -6 -68q-11 -70 -22.5 -195t-17 -211.5 t-5.5 -95.5q0 -12 12 -12q1 0 36 4t70 4q94 0 125 -39q13 -16 13 -22q0 -14 -8 -27q-18 -30 -52.5 -41.5t-95.5 -11.5q-57 0 -90 -20q-14 -9 -18 -15.5t-5 -25.5l-10 -205q-2 -27 -2 -129q0 -46 4 -85.5t10.5 -63t12.5 -40t10 -25t4 -10.5q0 -7 -2 -13t-8.5 -12.5t-8.5 -9 t-12 -9.5l-10 -7q-10 -8 -22 -8q-68 0 -105 37q-19 19 -29 97t-10 163q0 46 4 136.5t4 137.5q0 9 -12 9q-99 -36 -229.5 -76.5t-186.5 -48.5q-11 -2 -17 -7t-13 -22q-33 -73 -33 -143q0 -40 1.5 -64.5t3 -35t1.5 -15.5t-10 -12q-7 -5 -24 -18.5t-29 -20t-25 -6.5 q-12 0 -39 18q-34 22 -45.5 49t-11.5 90q0 35 6.5 78t13.5 72l6 29q0 8 -12 14q-41 22 -53 33t-12 30zM379 426q0 -8 12 -8q17 0 86.5 19t118.5 38l66 24t50.5 17.5t20.5 7.5q13 5 15 23q49 383 49 549q0 32 -6 32q-9 0 -19 -16q-234 -375 -369 -633q-24 -47 -24 -53z M614 1602q0 10 9.5 39t17.5 45q17 32 72 32q67 0 82 -26q22 -42 22 -66q0 -30 -23.5 -64.5t-23.5 -35.5q-1 -15 -29.5 -25t-50.5 -10q-25 0 -31 4q-15 9 -26.5 26.5t-14.5 20.5q-4 4 -4 60zM1051 1536q0 21 18 60.5t45 39.5q2 0 17.5 -1t23.5 -1q29 0 52.5 -9.5t27.5 -27.5 q1 -6 11.5 -29t10.5 -36q0 -21 -4 -33q-8 -22 -23 -44.5t-28 -29.5q-16 -8 -59 -8q-35 0 -49 31q-2 6 -22.5 35t-20.5 53z" />
<glyph unicode="&#xc5;" d="M23 315q0 30 12 69.5t18 43.5q11 8 23 8q17 0 46 -17.5t42 -17.5q9 0 24 29q71 131 151 263t187 302t183 297q21 35 29.5 44.5t15.5 9.5q4 0 52 11t95 11q24 0 50 -5t30 -13q2 -5 10 -14.5t8 -18.5q0 -10 -14 -96t-14 -91q0 -32 -4 -61q-10 -70 -20.5 -182.5 t-15.5 -188.5t-5 -84q0 -12 12 -12q1 0 36 4t70 4q94 0 125 -39q13 -16 13 -22q0 -14 -8 -27q-18 -30 -52.5 -41.5t-95.5 -11.5q-57 0 -90 -20q-14 -9 -18 -15.5t-5 -25.5l-10 -205q-2 -27 -2 -129q0 -46 4 -85.5t10.5 -63t12.5 -40t10 -25t4 -10.5q0 -7 -2 -13t-8.5 -12.5 t-8.5 -9t-12 -9.5l-10 -7q-10 -8 -22 -8q-68 0 -105 37q-19 19 -29 97t-10 163q0 46 4 136.5t4 137.5q0 9 -12 9q-99 -36 -229.5 -76.5t-186.5 -48.5q-11 -2 -17 -7t-13 -22q-33 -73 -33 -143q0 -40 1.5 -64.5t3 -35t1.5 -15.5t-10 -12q-7 -5 -24 -18.5t-29 -20t-25 -6.5 q-12 0 -39 18q-34 22 -45.5 49t-11.5 90q0 35 6.5 78t13.5 72l6 29q0 8 -12 14q-41 22 -53 33t-12 30zM379 426q0 -8 12 -8q17 0 86.5 19t118.5 38l66 24t50.5 17.5t20.5 7.5q13 5 15 23q38 305 38 489q0 33 -6 33q-4 0 -30 -39q-11 -18 -89.5 -134.5t-145 -223 t-112.5 -193.5q-24 -47 -24 -53zM760 1540q0 49 42.5 125t86.5 92q43 15 76 15q25 0 53 -7q43 -11 76 -40t36 -50q5 -40 5 -49q0 -90 -54 -170q-39 -59 -118 -59q-32 0 -73.5 8t-55.5 18q-74 52 -74 117zM887 1548q0 -31 14 -51q13 -20 33 -20q22 0 29 12q4 6 15 24.5 t15.5 27.5t11.5 23.5t10 27t3 24.5q0 27 -19 57q-13 19 -24 19q-21 0 -33 -15q-55 -78 -55 -129z" />
<glyph unicode="&#xc6;" horiz-adv-x="1507" d="M33 20q0 36 14 86.5t26.5 80t37.5 87.5q10 23 10 29q0 8 -23 8q-19 0 -39 8t-20 21q0 73 20 109q17 30 24.5 35t31.5 5q5 0 32.5 -1t42.5 -1q24 0 32 6t26 33q91 140 222.5 303.5t263.5 316.5t175 208q22 30 35 30q5 0 57.5 12.5t77.5 12.5q19 0 41.5 -5t26.5 -11 q16 -19 16 -31q0 -16 -9 -47.5t-9 -34.5q0 -12 16 -12q19 0 43 6l72 16q156 39 330 39q8 0 32 -4t31 -4q21 0 52 -29t61 -71q8 -12 8 -33t-27 -41q-13 -10 -45 -10q-7 0 -27.5 11t-35.5 11q-18 0 -34 4t-32 4q-45 0 -91.5 -4.5t-80 -9t-83 -16.5t-71 -17.5t-76.5 -21 t-69 -19.5q-18 -5 -23.5 -11t-9.5 -30q-9 -50 -35.5 -169.5t-31.5 -159.5q4 -11 10 -11t33 11q34 13 128 31t165 18q70 0 108 -27q19 -15 32 -40.5t13 -53.5q0 -13 -13 -22t-32 -9q-8 0 -26 -3t-23 -3q-9 0 -24 3t-31 3q-18 0 -73 -10t-79 -18q-68 -22 -176 -62 q-29 -10 -35.5 -16t-9.5 -21q-18 -89 -36.5 -223t-18.5 -190q0 -22 11.5 -38t21.5 -16q55 0 94.5 11t94 38t79.5 37q31 12 105 61.5t122 65.5q46 15 58 15q10 0 36 -11q82 -33 82 -53q0 -18 -2 -26q-1 -6 -36 -31t-66 -43q-67 -39 -100.5 -57.5t-105.5 -52t-128 -50 t-137.5 -30t-165.5 -13.5q-39 0 -74.5 19t-56.5 49q-19 27 -19 104q0 102 33 346q4 32 4 35q0 10 -8 10q-7 0 -22 -6q-56 -21 -121.5 -38t-158 -37t-114.5 -25q-16 -3 -24.5 -9.5t-16.5 -25.5q-35 -71 -62.5 -157t-27.5 -134q0 -9 -12 -17.5t-16 -21.5q-6 -17 -12 -22.5 t-21 -5.5q-21 0 -52 3.5t-34 6.5q-24 22 -34.5 37.5t-10.5 35.5zM453 524q0 -6 6 -6q8 0 63 14q138 38 256 82q33 12 39.5 19t11.5 33q25 133 101 438q10 42 10 47q0 6 -4 6q-7 0 -33 -35q-47 -61 -142 -176.5t-166 -208.5t-126 -180q-16 -26 -16 -33z" />
<glyph unicode="&#xc7;" horiz-adv-x="966" d="M0 -215q0 16 31 47q8 8 16 8q4 0 11.5 -3t11.5 -3q10 0 24 -9.5t15 -19.5q2 -14 24 -27.5t49 -13.5q43 0 69.5 30t61.5 100q11 22 11 38q0 29 -13 39l-88 58q-31 21 -55.5 52t-30.5 58q-10 47 -10 125q0 42 10 113.5t17 91.5q48 134 105.5 254.5t135 242t180 222.5 t218.5 166q14 8 65 17t90 9q35 0 68.5 -9.5t40.5 -18.5q13 -16 43 -45t45.5 -51t15.5 -44q0 -43 -2 -47t-21 -48t-37 -89t-26 -72q-5 -16 -21.5 -27t-41.5 -11q-12 0 -60 8q-19 3 -43 24t-24 39q0 39 34 89.5t37 74.5q1 5 13 26t12 38q0 8 -5 17t-13 9q-34 0 -68 -11.5 t-68.5 -38t-63.5 -53.5t-67.5 -74t-65.5 -83t-71 -96q-144 -197 -258 -547q-12 -36 -12 -119q0 -13 8 -42t16 -36q6 -5 27.5 -25.5t36 -29t31.5 -8.5q14 0 54 13t66 26q42 21 86.5 53t74.5 58t78 70t73 65q20 16 41 16h39q45 0 69 -39q15 -22 15 -33q0 -4 -74 -76 q-55 -54 -83 -80t-73.5 -66t-75.5 -58.5t-71 -39t-80.5 -28.5t-83.5 -8q-18 0 -21.5 -1.5t-3.5 -10.5q19 -19 19 -68q0 -45 -35 -96q-86 -123 -186 -123q-45 0 -121 27q-69 25 -101 71q-14 20 -14 33z" />
<glyph unicode="&#xc8;" horiz-adv-x="1040" d="M160 147q0 59 14 125.5t29 110t44.5 119t41.5 108.5q-27 27 -27 64q0 18 4 24q6 11 60 25q13 3 18 7.5t12 21.5q86 192 103 258q0 10 -8 10q-4 0 -31.5 -8t-44.5 -8q-23 0 -39 8q-20 10 -36.5 45t-16.5 57q0 11 12 14q46 12 100.5 29.5t84 28t100.5 37t86 32.5 q86 32 252.5 68.5t302.5 36.5q45 0 69 -12q41 -21 71 -49t30 -54q0 -23 -6.5 -31t-24.5 -8q-9 0 -25.5 -6t-25.5 -6q-5 0 -28.5 10t-45.5 10q-232 0 -516 -96q-18 -6 -25 -24q-13 -36 -112 -289q0 -8 8 -8q12 4 55 20t63.5 23t56.5 17.5t66.5 15t59.5 4.5q78 0 153 -41 q27 -14 27 -66q0 -16 -39 -28.5t-59 -12.5q-13 0 -36.5 3t-31.5 3q-56 0 -117.5 -16t-130 -41.5t-102.5 -34.5q-52 -13 -61 -33q-60 -133 -83.5 -189t-48 -135t-24.5 -130q0 -25 17 -47.5t34 -22.5q77 0 166 39q36 16 83.5 35t55.5 22q37 16 101 56.5t120 66t111 25.5 q17 0 21 -6q1 -1 32 -25t31 -39q0 -24 -12 -27q-23 -6 -45 -26q-35 -31 -56 -41q-76 -41 -116 -61.5t-115.5 -53.5t-133.5 -49.5t-138 -29.5t-160 -13q-21 0 -77 23.5t-81 60.5q-16 23 -16 104zM522 1706q0 30 23 53q25 25 49 25q6 0 16 -3t13 -3t6 -1.5t11 -7t17.5 -13 t31 -23t46.5 -33.5l209 -144q53 -37 53 -51q0 -5 -10 -35q-2 -8 -3.5 -18.5t-2.5 -13.5q-3 -9 -11 -15t-16 -6q-33 0 -63 19l-209 135q-49 33 -135 67q-25 10 -25 68z" />
<glyph unicode="&#xc9;" horiz-adv-x="1040" d="M160 147q0 59 14 125.5t29 110t44.5 119t41.5 108.5q-27 27 -27 64q0 18 4 24q6 11 60 25q13 3 18 7.5t12 21.5q86 192 103 258q0 10 -8 10q-4 0 -31.5 -8t-44.5 -8q-23 0 -39 8q-20 10 -36.5 45t-16.5 57q0 11 12 14q46 12 100.5 29.5t84 28t100.5 37t86 32.5 q86 32 252.5 68.5t302.5 36.5q45 0 69 -12q41 -21 71 -49t30 -54q0 -23 -6.5 -31t-24.5 -8q-9 0 -25.5 -6t-25.5 -6q-5 0 -28.5 10t-45.5 10q-232 0 -516 -96q-18 -6 -25 -24q-13 -36 -112 -289q0 -8 8 -8q12 4 55 20t63.5 23t56.5 17.5t66.5 15t59.5 4.5q78 0 153 -41 q27 -14 27 -66q0 -16 -39 -28.5t-59 -12.5q-13 0 -36.5 3t-31.5 3q-56 0 -117.5 -16t-130 -41.5t-102.5 -34.5q-52 -13 -61 -33q-60 -133 -83.5 -189t-48 -135t-24.5 -130q0 -25 17 -47.5t34 -22.5q77 0 166 39q36 16 83.5 35t55.5 22q37 16 101 56.5t120 66t111 25.5 q17 0 21 -6q1 -1 32 -25t31 -39q0 -24 -12 -27q-23 -6 -45 -26q-35 -31 -56 -41q-76 -41 -116 -61.5t-115.5 -53.5t-133.5 -49.5t-138 -29.5t-160 -13q-21 0 -77 23.5t-81 60.5q-16 23 -16 104zM633 1397q0 20 4 28q6 12 22 17q14 5 48 28l159 113q98 70 135 107 q14 14 43 14q12 0 25 -8q30 -18 37 -49q6 -30 6 -39q0 -21 -22 -41q-26 -23 -109 -74l-215 -133q-32 -19 -55 -19q-20 0 -43 23q-7 7 -25 16q-10 7 -10 17z" />
<glyph unicode="&#xca;" horiz-adv-x="1040" d="M160 147q0 59 14 125.5t29 110t44.5 119t41.5 108.5q-27 27 -27 64q0 18 4 24q6 11 60 25q13 3 18 7.5t12 21.5q86 192 103 258q0 10 -8 10q-4 0 -31.5 -8t-44.5 -8q-23 0 -39 8q-20 10 -36.5 45t-16.5 57q0 11 12 14q46 12 100.5 29.5t84 28t100.5 37t86 32.5 q86 32 252.5 68.5t302.5 36.5q45 0 69 -12q41 -21 71 -49t30 -54q0 -23 -6.5 -31t-24.5 -8q-9 0 -25.5 -6t-25.5 -6q-5 0 -28.5 10t-45.5 10q-232 0 -516 -96q-18 -6 -25 -24q-13 -36 -112 -289q0 -8 8 -8q12 4 55 20t63.5 23t56.5 17.5t66.5 15t59.5 4.5q78 0 153 -41 q27 -14 27 -66q0 -16 -39 -28.5t-59 -12.5q-13 0 -36.5 3t-31.5 3q-56 0 -117.5 -16t-130 -41.5t-102.5 -34.5q-52 -13 -61 -33q-60 -133 -83.5 -189t-48 -135t-24.5 -130q0 -25 17 -47.5t34 -22.5q77 0 166 39q36 16 83.5 35t55.5 22q37 16 101 56.5t120 66t111 25.5 q17 0 21 -6q1 -1 32 -25t31 -39q0 -24 -12 -27q-23 -6 -45 -26q-35 -31 -56 -41q-76 -41 -116 -61.5t-115.5 -53.5t-133.5 -49.5t-138 -29.5t-160 -13q-21 0 -77 23.5t-81 60.5q-16 23 -16 104zM547 1473q0 35 4 45q5 10 11 17t7 9q6 16 113 84l182 117q21 14 43 14 q21 0 25 -4l8 -5q8 -5 14 -15l123 -183q23 -36 23 -45t-3 -16t-9.5 -15t-8.5 -12q-9 -15 -14 -18.5t-18 -3.5q-19 0 -37 18l-113 119q-7 10 -20 10q-6 0 -23 -10q-48 -35 -82 -60t-53 -39t-32.5 -25.5t-17 -14.5t-10.5 -10.5t-10 -10.5q-16 -16 -28 -16q-17 0 -26.5 7 t-12.5 7q-10 2 -22.5 18.5t-12.5 37.5z" />
<glyph unicode="&#xcb;" horiz-adv-x="1040" d="M160 147q0 59 14 125.5t29 110t44.5 119t41.5 108.5q-27 27 -27 64q0 18 4 24q6 11 60 25q13 3 18 7.5t12 21.5q86 192 103 258q0 10 -8 10q-4 0 -31.5 -8t-44.5 -8q-23 0 -39 8q-20 10 -36.5 45t-16.5 57q0 11 12 14q46 12 100.5 29.5t84 28t100.5 37t86 32.5 q86 32 252.5 68.5t302.5 36.5q45 0 69 -12q41 -21 71 -49t30 -54q0 -23 -6.5 -31t-24.5 -8q-9 0 -25.5 -6t-25.5 -6q-5 0 -28.5 10t-45.5 10q-232 0 -516 -96q-18 -6 -25 -24q-13 -36 -112 -289q0 -8 8 -8q12 4 55 20t63.5 23t56.5 17.5t66.5 15t59.5 4.5q78 0 153 -41 q27 -14 27 -66q0 -16 -39 -28.5t-59 -12.5q-13 0 -36.5 3t-31.5 3q-56 0 -117.5 -16t-130 -41.5t-102.5 -34.5q-52 -13 -61 -33q-60 -133 -83.5 -189t-48 -135t-24.5 -130q0 -25 17 -47.5t34 -22.5q77 0 166 39q36 16 83.5 35t55.5 22q37 16 101 56.5t120 66t111 25.5 q17 0 21 -6q1 -1 32 -25t31 -39q0 -24 -12 -27q-23 -6 -45 -26q-35 -31 -56 -41q-76 -41 -116 -61.5t-115.5 -53.5t-133.5 -49.5t-138 -29.5t-160 -13q-21 0 -77 23.5t-81 60.5q-16 23 -16 104zM539 1589q0 10 9 39.5t17 44.5q17 33 72 33q67 0 82 -27q22 -42 22 -65 q0 -30 -23.5 -65t-23.5 -36q-1 -15 -29 -24.5t-51 -9.5q-24 0 -30 4q-15 9 -26.5 26.5t-14.5 20.5q-4 4 -4 59zM946 1587q0 21 18.5 61t45.5 40q2 0 17.5 -1t23.5 -1q29 0 52 -9.5t27 -27.5q1 -6 12 -29.5t11 -36.5q0 -21 -4 -33q-8 -22 -23 -44t-28 -29q-18 -9 -60 -9 q-35 0 -49 31q-2 6 -22.5 35t-20.5 53z" />
<glyph unicode="&#xcc;" horiz-adv-x="520" d="M94 -29q0 12 13.5 72t25.5 82t19 49q36 144 82.5 292t109.5 330t96 285q5 16 31.5 68.5t50.5 132.5q8 25 82 25q35 0 76 -18.5t41 -41.5q0 -51 -12 -77t-50 -64q-12 -12 -26 -49q-41 -105 -87.5 -235.5t-73.5 -211.5t-83.5 -253t-75.5 -228q-4 -12 -4 -20q0 -5 2 -15 t2 -16q0 -48 -39 -125q-4 -8 -26 -8q-12 0 -25 -21q-10 -16 -18 -16t-17 10t-18 10q-14 0 -37.5 15.5t-26.5 15.5q-12 0 -12 12zM379 1657q0 31 22 53q25 25 50 25q7 0 16 -3t12 -3t6 -1.5t11 -7t18 -13t31.5 -23.5t46.5 -33l209 -144q53 -37 53 -51q0 -5 -10 -35 q-2 -8 -3.5 -18.5t-2.5 -13.5q-3 -9 -11 -15t-16 -6q-35 0 -63 18l-209 136q-47 32 -136 67q-24 10 -24 68z" />
<glyph unicode="&#xcd;" horiz-adv-x="520" d="M94 -29q0 12 13.5 72t25.5 82t19 49q36 144 82.5 292t109.5 330t96 285q5 16 31.5 68.5t50.5 132.5q8 25 82 25q35 0 76 -18.5t41 -41.5q0 -51 -12 -77t-50 -64q-12 -12 -26 -49q-41 -105 -87.5 -235.5t-73.5 -211.5t-83.5 -253t-75.5 -228q-4 -12 -4 -20q0 -5 2 -15 t2 -16q0 -48 -39 -125q-4 -8 -26 -8q-12 0 -25 -21q-10 -16 -18 -16t-17 10t-18 10q-14 0 -37.5 15.5t-26.5 15.5q-12 0 -12 12zM553 1485q0 15 10 28q8 11 27 11q8 0 51 16l182 70q120 46 158 71q11 7 29 7q22 0 39 -17q22 -22 22 -57q0 -40 -10 -53q-13 -17 -42 -29 t-106 -37l-241 -76q-21 -6 -41 -6q-15 0 -23 4q-19 13 -30 29q-6 9 -19 22q-6 6 -6 17z" />
<glyph unicode="&#xce;" horiz-adv-x="520" d="M94 -29q0 12 13.5 72t25.5 82t19 49q36 144 82.5 292t109.5 330t96 285q5 16 31.5 68.5t50.5 132.5q8 25 82 25q35 0 76 -18.5t41 -41.5q0 -51 -12 -77t-50 -64q-12 -12 -26 -49q-41 -105 -87.5 -235.5t-73.5 -211.5t-83.5 -253t-75.5 -228q-4 -12 -4 -20q0 -5 2 -15 t2 -16q0 -48 -39 -125q-4 -8 -26 -8q-12 0 -25 -21q-10 -16 -18 -16t-17 10t-18 10q-14 0 -37.5 15.5t-26.5 15.5q-12 0 -12 12zM438 1536q0 35 4 43q5 9 11.5 15.5l7.5 7.5q7 14 112 51l183 63q18 6 26 6q32 0 39 -14q2 -5 10 -9.5t15 -17.5l123 -211q22 -38 22 -51 q0 -9 -4.5 -15t-12.5 -12.5t-11 -11.5q-9 -14 -15.5 -18t-21.5 -4q-5 0 -17.5 8.5t-19.5 19.5l-129 177q-7 12 -17 12q-6 0 -20 -6q-183 -77 -215 -105q-2 -2 -10 -2q-11 0 -20 4.5t-17 11.5t-12 9q-11 7 -11 49z" />
<glyph unicode="&#xcf;" horiz-adv-x="520" d="M94 -29q0 12 13.5 72t25.5 82t19 49q36 144 82.5 292t109.5 330t96 285q5 16 31.5 68.5t50.5 132.5q8 25 82 25q35 0 76 -18.5t41 -41.5q0 -51 -12 -77t-50 -64q-12 -12 -26 -49q-41 -105 -87.5 -235.5t-73.5 -211.5t-83.5 -253t-75.5 -228q-4 -12 -4 -20q0 -5 2 -15 t2 -16q0 -48 -39 -125q-4 -8 -26 -8q-12 0 -25 -21q-10 -16 -18 -16t-17 10t-18 10q-14 0 -37.5 15.5t-26.5 15.5q-12 0 -12 12zM426 1581q0 10 9.5 39t17.5 45q17 33 71 33q67 0 82 -27q23 -44 23 -65q0 -30 -23.5 -65t-23.5 -36q-1 -15 -29.5 -25t-50.5 -10q-24 0 -31 5 q-15 9 -26.5 26.5t-14.5 20.5q-4 4 -4 59zM801 1491q0 21 18 60.5t45 39.5q2 0 17.5 -1t23.5 -1q29 0 52.5 -9.5t27.5 -27.5q1 -6 12 -29t11 -36q0 -21 -4 -33q-8 -22 -23.5 -44.5t-28.5 -29.5q-16 -8 -59 -8q-35 0 -49 31q-2 6 -22.5 35t-20.5 53z" />
<glyph unicode="&#xd0;" horiz-adv-x="1171" d="M45 174q0 35 41 35q7 0 32.5 -3t43.5 -3q14 0 31 -11.5t24 -11.5q10 0 12 6q30 132 93 322q0 8 -9 8q-22 0 -50.5 -6t-47.5 -6q-27 0 -27 24q0 82 52 129q11 11 36 17t93 16q15 2 22 17q81 212 88 229q0 10 -8 10q-6 0 -42 -23.5t-56 -23.5q-15 0 -28 13t-13 32 q0 34 2 50t7.5 34.5t23 34.5t42 35t70.5 51q95 64 211 107.5t221 43.5q131 0 197 -47q8 -5 50 -32.5t66.5 -48.5t47.5 -52q22 -29 31.5 -63.5t9.5 -104.5q0 -88 -56 -194q-8 -15 -17 -40t-19 -46q-42 -87 -77 -153.5t-81 -144t-93.5 -137.5t-103.5 -116.5t-121 -99 t-137 -68.5q-23 -8 -65 -8q-52 0 -154 26q-1 -12 -13.5 -15t-41.5 -3q-26 0 -62 24t-51 52q-38 16 -59.5 27t-52.5 30t-46.5 41t-15.5 47zM389 104q0 -10 1.5 -12.5t10.5 -5.5q18 -6 64 -6q111 0 197 86q255 255 423 668q48 120 48 165q0 14 -7.5 52.5t-17.5 54.5 q-50 72 -137 72q-46 0 -129 -28.5t-88 -29.5q8 -8 8 -14q0 -20 -16 -35.5t-23 -30.5q-16 -37 -47 -103t-55.5 -121.5t-45.5 -104.5q21 0 83 11t77 11q22 0 25 -6q18 -27 18 -61q0 -16 -6 -31q-7 -19 -19.5 -36.5t-15.5 -23.5q-6 -12 -61 -20q-13 -2 -77.5 -7t-74.5 -5 q-16 0 -24 -21q-84 -226 -111 -418z" />
<glyph unicode="&#xd1;" horiz-adv-x="1224" d="M111 0q0 40 52.5 227.5t111 380.5t61.5 205l18 70q63 242 84 331q3 12 10 17.5t13.5 5.5t12 3t5.5 11q0 4 -15 40t-15 77q0 14 20 23q45 18 123 18q8 0 16.5 -8t12.5 -21q45 -134 73.5 -297t40.5 -294t36 -297.5t60 -298.5q8 -31 17 -31q4 0 18 31q32 69 60.5 140.5 t57.5 159t46 141.5t50.5 163.5t45.5 150.5q6 19 18 52.5t19 60.5q9 34 17 109t18 112q8 29 14.5 36t28.5 7q15 0 44 -6t40 -6q19 0 46.5 -29t27.5 -39q0 -36 -23 -78q-5 -10 -9 -20.5t-9 -28.5t-10 -33q-11 -31 -131 -402.5t-220 -621.5q-16 -41 -28 -53 q-31 -30 -51.5 -41.5t-45.5 -11.5q-26 0 -73 22q-53 26 -73.5 51t-33.5 70q-42 138 -85.5 435.5t-57.5 353.5q-4 18 -7.5 23t-9.5 5q-9 0 -16 -28q-7 -26 -62.5 -203t-97 -341t-53.5 -288q-6 -65 -6 -73q0 -15 -22 -26t-54 -11q-29 0 -41.5 2.5t-22.5 10.5t-16 11 q-30 15 -30 31zM637 1610q0 6 5 15.5t13 12.5l129 48q49 18 93 18q27 0 46.5 -19t51.5 -67q34 -50 46.5 -61t37.5 -11q5 0 80 24.5t84 24.5q17 0 28 -12t13 -27q1 -5 4.5 -17.5t3.5 -25.5q0 -10 -17 -20q-142 -92 -200 -92q-62 0 -109 37q-22 17 -49.5 60t-34.5 48 q-9 6 -18 6q-31 0 -101 -43q-10 -6 -20 -6q-70 0 -70 31q0 10 -8 37t-8 39z" />
<glyph unicode="&#xd2;" horiz-adv-x="1003" d="M180 301q0 201 62.5 370.5t185.5 348.5q121 178 240 250q37 22 53 22q18 0 45 -12q76 -33 106 -33q28 0 46 -16q145 -130 145 -359q0 -61 -21 -147q-50 -207 -114 -369t-158 -280q-49 -61 -124 -93t-161 -32q-63 0 -123 18q-25 8 -59 36.5t-57 62.5q-36 54 -51 105.5 t-15 127.5zM346 303q0 -127 70 -197q6 -6 27.5 -12t39.5 -6q38 0 79 22t63 54q75 113 130 241.5t79.5 231t35.5 169t11 97.5q0 52 -2 68q-17 109 -86 131q-13 4 -13 16q0 9 -4.5 15t-9.5 6q-24 0 -84 -62q-101 -104 -179 -234.5t-122 -271.5l-7 -21q-7 -22 -9 -32 t-5.5 -31.5t-3.5 -42.5q0 -3 -5 -59t-5 -82zM604 1624q0 30 23 53q25 25 49 25q6 0 16 -3t13 -3t6 -1.5t11 -7t17.5 -13t31 -23t46.5 -33.5l209 -143q53 -37 53 -52q0 -4 -10 -34q-2 -8 -3.5 -19t-2.5 -14q-3 -9 -11 -15t-16 -6q-33 0 -63 19l-209 135q-49 33 -135 67 q-25 10 -25 68z" />
<glyph unicode="&#xd3;" horiz-adv-x="1003" d="M180 301q0 201 62.5 370.5t185.5 348.5q121 178 240 250q37 22 53 22q18 0 45 -12q76 -33 106 -33q28 0 46 -16q145 -130 145 -359q0 -61 -21 -147q-50 -207 -114 -369t-158 -280q-49 -61 -124 -93t-161 -32q-63 0 -123 18q-25 8 -59 36.5t-57 62.5q-36 54 -51 105.5 t-15 127.5zM346 303q0 -127 70 -197q6 -6 27.5 -12t39.5 -6q38 0 79 22t63 54q75 113 130 241.5t79.5 231t35.5 169t11 97.5q0 52 -2 68q-17 109 -86 131q-13 4 -13 16q0 9 -4.5 15t-9.5 6q-24 0 -84 -62q-101 -104 -179 -234.5t-122 -271.5l-7 -21q-7 -22 -9 -32 t-5.5 -31.5t-3.5 -42.5q0 -3 -5 -59t-5 -82zM651 1464q0 15 11 29q8 10 26 10q5 0 51 17l183 69q113 44 157 72q9 6 29 6q23 0 39 -16q22 -22 22 -58q0 -41 -10 -53q-13 -16 -40.5 -28t-106.5 -37l-242 -76q-21 -6 -41 -6q-14 0 -22 4q-22 15 -31 28q-8 12 -19 23 q-6 6 -6 16z" />
<glyph unicode="&#xd4;" horiz-adv-x="1003" d="M180 301q0 201 62.5 370.5t185.5 348.5q121 178 240 250q37 22 53 22q18 0 45 -12q76 -33 106 -33q28 0 46 -16q145 -130 145 -359q0 -61 -21 -147q-50 -207 -114 -369t-158 -280q-49 -61 -124 -93t-161 -32q-63 0 -123 18q-25 8 -59 36.5t-57 62.5q-36 54 -51 105.5 t-15 127.5zM346 303q0 -127 70 -197q6 -6 27.5 -12t39.5 -6q38 0 79 22t63 54q75 113 130 241.5t79.5 231t35.5 169t11 97.5q0 52 -2 68q-17 109 -86 131q-13 4 -13 16q0 9 -4.5 15t-9.5 6q-24 0 -84 -62q-101 -104 -179 -234.5t-122 -271.5l-7 -21q-7 -22 -9 -32 t-5.5 -31.5t-3.5 -42.5q0 -3 -5 -59t-5 -82zM610 1495q0 35 4 43q5 9 11.5 15.5l7.5 7.5q7 14 112 51l183 63q18 6 26 6q32 0 39 -14q2 -5 10 -9.5t15 -17.5l123 -210q22 -38 22 -52q0 -9 -4.5 -15t-12.5 -12.5t-11 -11.5q-9 -14 -15.5 -18t-21.5 -4q-5 0 -17.5 9t-19.5 20 l-129 176q-7 12 -17 12q-6 0 -20 -6q-183 -77 -215 -105q-2 -2 -10 -2q-11 0 -20 4.5t-17 11.5t-12 9q-11 7 -11 49z" />
<glyph unicode="&#xd5;" horiz-adv-x="1003" d="M180 301q0 201 62.5 370.5t185.5 348.5q121 178 240 250q37 22 53 22q18 0 45 -12q76 -33 106 -33q28 0 46 -16q145 -130 145 -359q0 -61 -21 -147q-50 -207 -114 -369t-158 -280q-49 -61 -124 -93t-161 -32q-63 0 -123 18q-25 8 -59 36.5t-57 62.5q-36 54 -51 105.5 t-15 127.5zM346 303q0 -127 70 -197q6 -6 27.5 -12t39.5 -6q38 0 79 22t63 54q75 113 130 241.5t79.5 231t35.5 169t11 97.5q0 52 -2 68q-17 109 -86 131q-13 4 -13 16q0 9 -4.5 15t-9.5 6q-24 0 -84 -62q-101 -104 -179 -234.5t-122 -271.5l-7 -21q-7 -22 -9 -32 t-5.5 -31.5t-3.5 -42.5q0 -3 -5 -59t-5 -82zM592 1565q0 6 5 15.5t13 12.5l129 47q52 19 92 19q27 0 47 -19t52 -67q34 -50 46.5 -61t37.5 -11q5 0 80.5 24.5t83.5 24.5q17 0 28 -12t13 -27q1 -5 4.5 -17.5t3.5 -25.5q0 -10 -17 -20q-142 -92 -200 -92q-62 0 -109 37 q-22 17 -49.5 60t-34.5 48q-9 6 -18 6q-31 0 -101 -43q-10 -6 -20 -6q-70 0 -70 31q0 10 -8 37t-8 39z" />
<glyph unicode="&#xd6;" horiz-adv-x="1003" d="M180 301q0 201 62.5 370.5t185.5 348.5q121 178 240 250q37 22 53 22q18 0 45 -12q76 -33 106 -33q28 0 46 -16q145 -130 145 -359q0 -61 -21 -147q-50 -207 -114 -369t-158 -280q-49 -61 -124 -93t-161 -32q-63 0 -123 18q-25 8 -59 36.5t-57 62.5q-36 54 -51 105.5 t-15 127.5zM346 303q0 -127 70 -197q6 -6 27.5 -12t39.5 -6q38 0 79 22t63 54q75 113 130 241.5t79.5 231t35.5 169t11 97.5q0 52 -2 68q-17 109 -86 131q-13 4 -13 16q0 9 -4.5 15t-9.5 6q-24 0 -84 -62q-101 -104 -179 -234.5t-122 -271.5l-7 -21q-7 -22 -9 -32 t-5.5 -31.5t-3.5 -42.5q0 -3 -5 -59t-5 -82zM571 1520q0 10 9.5 39t17.5 45q17 32 72 32q67 0 82 -26q22 -42 22 -66q0 -30 -23.5 -64.5t-23.5 -35.5q-1 -15 -29.5 -25t-50.5 -10q-25 0 -31 4q-15 9 -26.5 26.5t-14.5 20.5q-4 4 -4 60zM971 1417q0 21 18 61t45 40 q2 0 17.5 -1t23.5 -1q29 0 52.5 -9.5t27.5 -27.5q1 -6 12 -29.5t11 -36.5t-4 -33q-27 -60 -52 -73q-18 -9 -59 -9q-36 0 -49 31q-2 6 -22.5 35t-20.5 53z" />
<glyph unicode="&#xd7;" horiz-adv-x="1208" d="M160 160q0 54 90 135q38 34 128.5 113.5t131.5 115.5q27 24 27 35q0 8 -9 29q-15 40 -32 102q-22 75 -41.5 130.5t-25.5 74t-7 35.5q0 16 6 28q6 10 21 17q12 6 47 6q44 0 59 -6q6 -2 12.5 -10.5t12.5 -10.5q12 -4 19 -16t7 -23q0 -54 62 -258q4 -4 6 -4q5 0 22 15 q54 47 121 98t115 90.5t88 85.5q14 14 51 14q6 0 31 -5t41 -5q23 0 39 -20.5t18 -38.5q0 -11 -4 -17q-41 -52 -170 -135q-33 -22 -72.5 -52t-64.5 -51t-77 -65.5t-73 -62.5q-12 -9 -12 -19q0 -2 8 -26q59 -153 131 -269q5 -8 20.5 -29.5t25.5 -37t10 -21.5q0 -14 -21 -28 q-31 -25 -43 -25q-28 0 -37 2t-22 10q-7 4 -26.5 5t-27.5 14q-43 68 -70 124.5t-71 166.5q-5 14 -10 14q-7 0 -21 -12q-21 -19 -69.5 -61.5t-71.5 -64.5t-53 -58.5t-47 -73.5q-18 -39 -51 -39q-6 0 -14.5 2t-22.5 2q-13 0 -22 6.5t-18 18.5t-11 14l-9 9l-7.5 7.5l-6 6 t-5 5.5t-3 4.5t-2 4.5t-0.5 4z" />
<glyph unicode="&#xd8;" horiz-adv-x="1105" d="M131 74q0 12 74 86q12 12 12 18q0 7 -4 19q-14 42 -14 159q0 303 219 650q52 83 134.5 170t149.5 104q50 12 80 12q24 0 43 -10t52 -10q24 0 32 3t23 3q20 0 56.5 -27t70.5 -71q11 -15 14 -15q4 0 19 15q28 28 55 28q11 0 31 -8t26 -24q2 -4 8.5 -12t10.5 -17.5t4 -22.5 q0 -11 -1 -16t-8 -13.5t-22 -19.5l-47 -35q-19 -14 -19 -22q0 -2 1 -5.5t2.5 -11t3.5 -14.5q12 -60 12 -149q0 -29 -15 -103t-45 -180t-90 -232t-135 -225q-57 -74 -129.5 -113.5t-191.5 -39.5q-173 0 -242 92q-7 10 -12 10t-13 -10q-18 -23 -38 -33q-2 -1 -6 -4.5 t-9.5 -5.5t-15.5 -2q-14 0 -35 6q-3 1 -6 6t-7 12t-7 11q-21 25 -21 47zM377 397q0 -22 6 -22t47 49l498 582l28 36q0 5 -4 13q-16 28 -42 47.5t-44 21.5q-3 0 -16.5 1t-20.5 2.5t-10 5.5q-16 20 -35 20q-14 0 -49 -35q-230 -233 -321 -510q-2 -5 -9.5 -27.5t-9.5 -29 t-7 -27t-6.5 -35.5t-3 -39.5t-1.5 -52.5zM408 186q0 -9 8 -22q26 -51 57 -68q27 -16 43 -16q71 0 113 17t73 65q186 289 252 543q25 96 25 151q0 6 -4 6q-5 0 -25 -22q-105 -119 -295 -348.5t-233 -280.5q-14 -16 -14 -25z" />
<glyph unicode="&#xd9;" horiz-adv-x="1228" d="M176 201q0 151 55 323q43 136 141 380.5t128 328.5q1 3 22 45q13 26 27 40.5t35 14.5q3 0 7.5 -1.5t9 -4t16 -8t24.5 -10.5q39 -15 47 -31q10 -20 10 -53q0 -9 -18 -51q-35 -89 -95.5 -223.5t-100.5 -224.5t-78.5 -209t-53.5 -222q-8 -58 -8 -113q0 -30 10 -30 q39 0 80 41q253 253 428.5 475t274.5 385q10 16 19.5 39t29.5 55q9 16 30.5 37.5t28.5 21.5l23 -4q22 -4 45 -4q11 0 22 -18l29 -45q12 -20 12 -29q0 -10 -14 -45q-16 -43 -63 -126t-64 -126q-148 -400 -148 -813q0 -20 0.5 -34t1.5 -20.5t1 -7.5q0 -20 -29 -20q-14 0 -20 2 t-12 6t-15 6q-18 5 -72 39q-4 2 -12.5 6t-12.5 7t-8 10t-4 16q0 26 10 43q9 14 11 33q5 44 12 131.5t15 151.5t22 118q6 24 6 33q0 10 -10 10q-7 0 -17 -10q-103 -119 -158 -182t-150 -162.5t-169 -163.5q-14 -13 -41.5 -23t-52.5 -10q-20 0 -45.5 9t-38.5 22 q-17 17 -57.5 27.5t-55.5 38.5q-10 20 -10 129zM772 1636q0 31 23 54q24 24 49 24q6 0 15 -3t13 -3q3 0 6 -1.5t11 -7t18 -13t31.5 -23.5t46.5 -33l209 -143q53 -37 53 -51q0 -5 -10 -35q-2 -8 -3.5 -19t-2.5 -14q-7 -20 -27 -20q-35 0 -63 18l-209 135q-53 35 -135 68 q-25 10 -25 67z" />
<glyph unicode="&#xda;" horiz-adv-x="1228" d="M176 201q0 151 55 323q43 136 141 380.5t128 328.5q1 3 22 45q13 26 27 40.5t35 14.5q3 0 7.5 -1.5t9 -4t16 -8t24.5 -10.5q39 -15 47 -31q10 -20 10 -53q0 -9 -18 -51q-35 -89 -95.5 -223.5t-100.5 -224.5t-78.5 -209t-53.5 -222q-8 -58 -8 -113q0 -30 10 -30 q39 0 80 41q253 253 428.5 475t274.5 385q10 16 19.5 39t29.5 55q9 16 30.5 37.5t28.5 21.5l23 -4q22 -4 45 -4q11 0 22 -18l29 -45q12 -20 12 -29q0 -10 -14 -45q-16 -43 -63 -126t-64 -126q-148 -400 -148 -813q0 -20 0.5 -34t1.5 -20.5t1 -7.5q0 -20 -29 -20q-14 0 -20 2 t-12 6t-15 6q-18 5 -72 39q-4 2 -12.5 6t-12.5 7t-8 10t-4 16q0 26 10 43q9 14 11 33q5 44 12 131.5t15 151.5t22 118q6 24 6 33q0 10 -10 10q-7 0 -17 -10q-103 -119 -158 -182t-150 -162.5t-169 -163.5q-14 -13 -41.5 -23t-52.5 -10q-20 0 -45.5 9t-38.5 22 q-17 17 -57.5 27.5t-55.5 38.5q-10 20 -10 129zM860 1448q0 16 10 29q8 10 27 10q8 0 51 16l182 70q116 45 158 72q9 6 29 6q22 0 39 -17q22 -22 22 -57q0 -41 -10 -53q-13 -17 -41.5 -29.5t-105.5 -36.5l-242 -76q-21 -6 -41 -6q-15 0 -23 4q-19 13 -30 29q-8 12 -19 23 q-6 6 -6 16z" />
<glyph unicode="&#xdb;" horiz-adv-x="1228" d="M176 201q0 151 55 323q43 136 141 380.5t128 328.5q1 3 22 45q13 26 27 40.5t35 14.5q3 0 7.5 -1.5t9 -4t16 -8t24.5 -10.5q39 -15 47 -31q10 -20 10 -53q0 -9 -18 -51q-35 -89 -95.5 -223.5t-100.5 -224.5t-78.5 -209t-53.5 -222q-8 -58 -8 -113q0 -30 10 -30 q39 0 80 41q253 253 428.5 475t274.5 385q10 16 19.5 39t29.5 55q9 16 30.5 37.5t28.5 21.5l23 -4q22 -4 45 -4q11 0 22 -18l29 -45q12 -20 12 -29q0 -10 -14 -45q-16 -43 -63 -126t-64 -126q-148 -400 -148 -813q0 -20 0.5 -34t1.5 -20.5t1 -7.5q0 -20 -29 -20q-14 0 -20 2 t-12 6t-15 6q-18 5 -72 39q-4 2 -12.5 6t-12.5 7t-8 10t-4 16q0 26 10 43q9 14 11 33q5 44 12 131.5t15 151.5t22 118q6 24 6 33q0 10 -10 10q-7 0 -17 -10q-103 -119 -158 -182t-150 -162.5t-169 -163.5q-14 -13 -41.5 -23t-52.5 -10q-20 0 -45.5 9t-38.5 22 q-17 17 -57.5 27.5t-55.5 38.5q-10 20 -10 129zM750 1532q0 35 4 43q5 9 11 15l7 7q7 15 113 52l182 63q18 6 27 6q32 0 39 -14q2 -5 9.5 -9.5t14.5 -17.5l123 -211q23 -40 23 -51q0 -9 -5 -15t-13 -12.5t-11 -11.5q-9 -14 -15.5 -18t-21.5 -4q-5 0 -17.5 8.5t-19.5 19.5 l-129 177q-7 12 -16 12q-7 0 -21 -6q-183 -77 -215 -105q-2 -2 -10 -2q-11 0 -20 4.5t-17 11.5t-12 9q-10 6 -10 49z" />
<glyph unicode="&#xdc;" horiz-adv-x="1228" d="M176 201q0 151 55 323q43 136 141 380.5t128 328.5q1 3 22 45q13 26 27 40.5t35 14.5q3 0 7.5 -1.5t9 -4t16 -8t24.5 -10.5q39 -15 47 -31q10 -20 10 -53q0 -9 -18 -51q-35 -89 -95.5 -223.5t-100.5 -224.5t-78.5 -209t-53.5 -222q-8 -58 -8 -113q0 -30 10 -30 q39 0 80 41q253 253 428.5 475t274.5 385q10 16 19.5 39t29.5 55q9 16 30.5 37.5t28.5 21.5l23 -4q22 -4 45 -4q11 0 22 -18l29 -45q12 -20 12 -29q0 -10 -14 -45q-16 -43 -63 -126t-64 -126q-148 -400 -148 -813q0 -20 0.5 -34t1.5 -20.5t1 -7.5q0 -20 -29 -20q-14 0 -20 2 t-12 6t-15 6q-18 5 -72 39q-4 2 -12.5 6t-12.5 7t-8 10t-4 16q0 26 10 43q9 14 11 33q5 44 12 131.5t15 151.5t22 118q6 24 6 33q0 10 -10 10q-7 0 -17 -10q-103 -119 -158 -182t-150 -162.5t-169 -163.5q-14 -13 -41.5 -23t-52.5 -10q-20 0 -45.5 9t-38.5 22 q-17 17 -57.5 27.5t-55.5 38.5q-10 20 -10 129zM750 1561q0 10 9 39.5t17 44.5q17 32 72 32q67 0 82 -26q22 -42 22 -66q0 -30 -23.5 -64.5t-23.5 -35.5q-1 -15 -29.5 -25t-50.5 -10q-24 0 -30 4q-15 9 -26.5 26.5t-14.5 20.5q-4 4 -4 60zM1124 1470q0 21 18.5 61t45.5 40 q2 0 17.5 -1t23.5 -1q29 0 52.5 -9.5t27.5 -27.5q1 -5 11.5 -29t10.5 -37q0 -20 -4 -32q-8 -22 -23 -44.5t-28 -29.5q-16 -8 -59 -8q-37 0 -50 30q-2 6 -22.5 35t-20.5 53z" />
<glyph unicode="&#xdd;" horiz-adv-x="1028" d="M246 545q0 76 10 219q1 10 5.5 31t4.5 43q0 24 8.5 51t10.5 41q40 242 96 438q3 11 6 14.5t10 3.5q23 0 45 -3t48.5 -8.5t35.5 -6.5t18 -21.5t9 -37.5q0 -30 -20 -71t-27 -77q-92 -444 -92 -655q0 -7 10.5 -14t28.5 -7q33 0 61 17q135 84 231 180q104 104 224 338 q81 161 131 225q15 21 22 21q27 0 63.5 -11t59.5 -34q6 -6 14.5 -29t8.5 -31q0 -10 -13 -28q-215 -301 -356 -737.5t-221 -1032.5q-3 -22 -7.5 -39t-4.5 -22q0 -10 -2.5 -13.5t-10.5 -3.5q-6 0 -23 4t-30 6q-87 13 -96 54q-4 20 -4 61q0 40 7 80t20.5 91t17.5 71q1 3 22 123 q45 240 189 721l-17 -19q-44 -49 -114.5 -91t-157.5 -42q-13 0 -58 25t-81 57q-37 33 -59.5 66.5t-22.5 52.5zM700 1436q0 14 11 28q8 11 26 11q8 0 51 16l183 70q117 45 157 71q9 6 29 6q23 0 39 -16q23 -23 23 -57q0 -40 -11 -54q-13 -16 -40.5 -28t-106.5 -37l-242 -76 q-21 -6 -41 -6q-14 0 -22 4q-21 14 -31 29q-8 12 -18 22q-7 7 -7 17z" />
<glyph unicode="&#xde;" horiz-adv-x="1024" d="M113 18q0 6 9.5 45t31.5 112.5t49 143.5q37 93 37 138q-4 4 -13 11.5t-14.5 12.5t-10.5 13.5t-5 17.5q0 20 8 23q7 3 22.5 18.5t34.5 29t39 13.5q10 27 24 63.5t23 61.5t17 55q-45 16 -64 60q-1 1 -6.5 8.5t-5.5 13.5q0 33 55 74q20 15 60.5 38t52.5 31q14 33 67.5 163.5 t87.5 199.5q15 31 64 31q7 0 22 -8.5t39 -10.5q20 -2 34.5 -11.5t14.5 -25.5q0 -31 -13.5 -58t-14.5 -36q0 -14 -13 -35q-6 -9 -16.5 -23t-16 -23t-5.5 -13q0 -10 6 -10q5 0 32 10q170 61 279 61q62 0 88 -5.5t53 -30.5q30 -26 43 -67t13 -120q0 -43 -33 -117t-76 -145 q-73 -122 -156 -213t-227 -205q-21 -17 -82.5 -28t-126.5 -11q-30 0 -51.5 6t-30 11t-27 21t-26.5 22q-6 -20 -23.5 -80t-25 -87t-19 -69t-16 -66.5t-4.5 -37.5q0 -19 -18 -31q-26 -16 -50 -16q-33 0 -41 8q-14 17 -36 25.5t-35 23.5q-4 4 -4 18zM442 492q59 -55 78.5 -68.5 t40.5 -13.5q19 0 37 12q182 121 338 352q117 177 117 273q0 7 -2 10.5t-14 6.5t-36 3q-37 0 -55 -4q-199 -44 -340 -150q-6 -16 -72.5 -175.5t-91.5 -245.5z" />
<glyph unicode="&#xdf;" horiz-adv-x="888" d="M-160 -592q0 41 28.5 118t31.5 89q2 10 11 35t15 49q16 69 115 348t168 459q21 56 176 438q5 13 24 27.5t31 38.5q61 114 168 219q65 63 117 92t111 29q26 0 47.5 -7.5t40 -19t28.5 -14.5q22 -7 35.5 -13t27 -21t13.5 -36q0 -25 -22 -74q-1 -2 -6.5 -24.5t-22.5 -58 t-55 -99.5q-79 -139 -148 -213q-22 -28 -22 -31q0 -2 6 -2q1 0 13 1t20 1q51 0 78.5 -45t27.5 -114q0 -84 -76 -254q-66 -148 -141.5 -236.5t-196.5 -122.5q-31 -8 -61 -8q-97 0 -195 86q-16 16 -22 16q-5 0 -27 -69q-146 -435 -160 -606q-2 -18 -19 -35t-38 -21 q-11 -3 -24.5 -9t-22.5 -9.5t-12 -3.5q-7 0 -13 1t-12 4.5t-8.5 4.5t-10 7t-8.5 7q-10 4 -10 76zM250 193q0 -7 6 -7q1 0 12 3.5t31 3.5q15 0 25 -7t38 -39q6 -7 14 -23t15 -22q19 -16 45 -16q43 0 72 29q106 97 168 256q47 117 47 164q0 46 -16 65q-10 12 -25 12 q-23 0 -49 -26q-28 -25 -47 -38t-39 -32q-95 -92 -152 -92q-14 0 -28 13.5t-17 13.5q-7 0 -12 -19q-20 -60 -64 -166q-24 -65 -24 -73zM408 600q0 -4 4 -4t18 14l33 31q78 63 149 149.5t119 171.5t73.5 137t41.5 93q6 15 6 25q0 6 -8 6q-6 0 -24 -7t-57 -36t-77 -74 q-92 -105 -143 -232q-20 -55 -43 -55q-12 0 -33 -55l-49 -131q-10 -31 -10 -33z" />
<glyph unicode="&#xe0;" horiz-adv-x="958" d="M61 213q0 119 123 303q43 63 86.5 115t86 91t65 57t57.5 44q149 110 328 162q21 6 45 6q66 0 125 -59q26 -26 31 -41q16 -39 49 -39q40 0 57 -27q4 -6 4 -12q0 -10 -8 -22q-58 -80 -95.5 -135.5t-81 -141t-61.5 -158.5q-28 -114 -28 -182q0 -89 43 -154q4 -8 4 -12 q0 -3 -3 -8t-13.5 -11.5t-26.5 -8.5q-4 -1 -18 -5t-21 -4q-26 0 -53 11t-35 30q-35 76 -35 176q0 27 2 51t4 37.5t2 14.5q0 7 -1 8.5t-7 1.5q-12 0 -49 -37l-111 -102q-73 -69 -126 -100.5t-117 -53.5q-24 -8 -33 -8q-18 0 -46 17.5t-98 74.5q-45 36 -45 121zM199 203 q0 -56 45 -56q13 0 43.5 16.5t56.5 41.5q53 50 181 156.5t205 186t124 167.5q20 39 59 78q11 11 11 30q0 14 -12 27.5t-35 13.5q-25 0 -64 -20q-293 -155 -461 -357q-65 -79 -109 -159.5t-44 -124.5zM756 1288q0 31 22 53q25 25 49 25q7 0 16.5 -3t12.5 -3t6 -1.5t11 -7 t18 -13t31.5 -23.5t46.5 -33l209 -143q53 -37 53 -52q0 -4 -10 -34q-2 -8 -4 -19.5t-3 -13.5q-7 -21 -26 -21q-34 0 -64 19l-209 135q-52 35 -135 68q-24 10 -24 67z" />
<glyph unicode="&#xe1;" horiz-adv-x="958" d="M61 213q0 119 123 303q43 63 86.5 115t86 91t65 57t57.5 44q149 110 328 162q21 6 45 6q66 0 125 -59q26 -26 31 -41q16 -39 49 -39q40 0 57 -27q4 -6 4 -12q0 -10 -8 -22q-58 -80 -95.5 -135.5t-81 -141t-61.5 -158.5q-28 -114 -28 -182q0 -89 43 -154q4 -8 4 -12 q0 -3 -3 -8t-13.5 -11.5t-26.5 -8.5q-4 -1 -18 -5t-21 -4q-26 0 -53 11t-35 30q-35 76 -35 176q0 27 2 51t4 37.5t2 14.5q0 7 -1 8.5t-7 1.5q-12 0 -49 -37l-111 -102q-73 -69 -126 -100.5t-117 -53.5q-24 -8 -33 -8q-18 0 -46 17.5t-98 74.5q-45 36 -45 121zM199 203 q0 -56 45 -56q13 0 43.5 16.5t56.5 41.5q53 50 181 156.5t205 186t124 167.5q20 39 59 78q11 11 11 30q0 14 -12 27.5t-35 13.5q-25 0 -64 -20q-293 -155 -461 -357q-65 -79 -109 -159.5t-44 -124.5zM766 1165q0 17 10 29q7 10 27 10q5 0 51 17l182 69q116 45 158 72 q9 6 29 6q23 0 39 -16q22 -22 22 -58q0 -40 -10 -53q-13 -16 -41 -28t-107 -37l-241 -76q-21 -6 -41 -6q-15 0 -23 4q-20 14 -30 28q-8 12 -19 23q-6 6 -6 16z" />
<glyph unicode="&#xe2;" horiz-adv-x="958" d="M61 213q0 119 123 303q43 63 86.5 115t86 91t65 57t57.5 44q149 110 328 162q21 6 45 6q66 0 125 -59q26 -26 31 -41q16 -39 49 -39q40 0 57 -27q4 -6 4 -12q0 -10 -8 -22q-58 -80 -95.5 -135.5t-81 -141t-61.5 -158.5q-28 -114 -28 -182q0 -89 43 -154q4 -8 4 -12 q0 -3 -3 -8t-13.5 -11.5t-26.5 -8.5q-4 -1 -18 -5t-21 -4q-26 0 -53 11t-35 30q-35 76 -35 176q0 27 2 51t4 37.5t2 14.5q0 7 -1 8.5t-7 1.5q-12 0 -49 -37l-111 -102q-73 -69 -126 -100.5t-117 -53.5q-24 -8 -33 -8q-18 0 -46 17.5t-98 74.5q-45 36 -45 121zM199 203 q0 -56 45 -56q13 0 43.5 16.5t56.5 41.5q53 50 181 156.5t205 186t124 167.5q20 39 59 78q11 11 11 30q0 14 -12 27.5t-35 13.5q-25 0 -64 -20q-293 -155 -461 -357q-65 -79 -109 -159.5t-44 -124.5zM721 1184q0 35 4 43q5 9 11 15l7 7q7 14 113 51l182 64q18 6 27 6 q32 0 39 -14q2 -5 9.5 -9.5t14.5 -17.5l123 -211q23 -40 23 -51q0 -9 -5 -15t-13 -12.5t-11 -11.5q-9 -14 -15.5 -18t-21.5 -4q-5 0 -17.5 8.5t-19.5 19.5l-129 176q-8 13 -16 13q-6 0 -20 -6q-183 -77 -215 -105q-2 -2 -11 -2q-11 0 -20 4.5t-17 11.5t-12 9q-10 6 -10 49z " />
<glyph unicode="&#xe3;" horiz-adv-x="958" d="M61 213q0 119 123 303q43 63 86.5 115t86 91t65 57t57.5 44q149 110 328 162q21 6 45 6q66 0 125 -59q26 -26 31 -41q16 -39 49 -39q40 0 57 -27q4 -6 4 -12q0 -10 -8 -22q-58 -80 -95.5 -135.5t-81 -141t-61.5 -158.5q-28 -114 -28 -182q0 -89 43 -154q4 -8 4 -12 q0 -3 -3 -8t-13.5 -11.5t-26.5 -8.5q-4 -1 -18 -5t-21 -4q-26 0 -53 11t-35 30q-35 76 -35 176q0 27 2 51t4 37.5t2 14.5q0 7 -1 8.5t-7 1.5q-12 0 -49 -37l-111 -102q-73 -69 -126 -100.5t-117 -53.5q-24 -8 -33 -8q-18 0 -46 17.5t-98 74.5q-45 36 -45 121zM199 203 q0 -56 45 -56q13 0 43.5 16.5t56.5 41.5q53 50 181 156.5t205 186t124 167.5q20 39 59 78q11 11 11 30q0 14 -12 27.5t-35 13.5q-25 0 -64 -20q-293 -155 -461 -357q-65 -79 -109 -159.5t-44 -124.5zM748 1266q0 6 5 15.5t13 12.5l129 47q52 19 92 19q27 0 46.5 -19 t51.5 -67q34 -50 46.5 -61t37.5 -11q5 0 80 24.5t84 24.5q17 0 28 -12t13 -27q1 -5 4.5 -17.5t3.5 -25.5q0 -10 -16 -20q-142 -92 -201 -92q-61 0 -108 37q-22 17 -49.5 60t-34.5 48q-9 6 -19 6q-30 0 -100 -43q-10 -6 -20 -6q-70 0 -70 31q0 10 -8 37t-8 39z" />
<glyph unicode="&#xe4;" horiz-adv-x="958" d="M61 213q0 119 123 303q43 63 86.5 115t86 91t65 57t57.5 44q149 110 328 162q21 6 45 6q66 0 125 -59q26 -26 31 -41q16 -39 49 -39q40 0 57 -27q4 -6 4 -12q0 -10 -8 -22q-58 -80 -95.5 -135.5t-81 -141t-61.5 -158.5q-28 -114 -28 -182q0 -89 43 -154q4 -8 4 -12 q0 -3 -3 -8t-13.5 -11.5t-26.5 -8.5q-4 -1 -18 -5t-21 -4q-26 0 -53 11t-35 30q-35 76 -35 176q0 27 2 51t4 37.5t2 14.5q0 7 -1 8.5t-7 1.5q-12 0 -49 -37l-111 -102q-73 -69 -126 -100.5t-117 -53.5q-24 -8 -33 -8q-18 0 -46 17.5t-98 74.5q-45 36 -45 121zM199 203 q0 -56 45 -56q13 0 43.5 16.5t56.5 41.5q53 50 181 156.5t205 186t124 167.5q20 39 59 78q11 11 11 30q0 14 -12 27.5t-35 13.5q-25 0 -64 -20q-293 -155 -461 -357q-65 -79 -109 -159.5t-44 -124.5zM713 1257q0 10 9 39.5t17 44.5q17 33 72 33q67 0 82 -26q22 -42 22 -66 q0 -30 -23.5 -64.5t-23.5 -35.5q-1 -15 -29.5 -25t-50.5 -10q-24 0 -30 4q-15 9 -26.5 26.5t-14.5 20.5q-4 4 -4 59zM1087 1167q0 21 18.5 61t45.5 40q2 0 17.5 -1t23.5 -1q29 0 52.5 -9.5t27.5 -27.5q1 -5 11.5 -29t10.5 -37q0 -25 -4 -33q-33 -64 -51 -73q-16 -8 -59 -8 q-37 0 -50 30q-2 6 -22.5 35t-20.5 53z" />
<glyph unicode="&#xe5;" horiz-adv-x="958" d="M61 213q0 119 123 303q43 63 86.5 115t86 91t65 57t57.5 44q149 110 328 162q21 6 45 6q66 0 125 -59q26 -26 31 -41q16 -39 49 -39q40 0 57 -27q4 -6 4 -12q0 -10 -8 -22q-58 -80 -95.5 -135.5t-81 -141t-61.5 -158.5q-28 -114 -28 -182q0 -89 43 -154q4 -8 4 -12 q0 -3 -3 -8t-13.5 -11.5t-26.5 -8.5q-4 -1 -18 -5t-21 -4q-26 0 -53 11t-35 30q-35 76 -35 176q0 27 2 51t4 37.5t2 14.5q0 7 -1 8.5t-7 1.5q-12 0 -49 -37l-111 -102q-73 -69 -126 -100.5t-117 -53.5q-24 -8 -33 -8q-18 0 -46 17.5t-98 74.5q-45 36 -45 121zM199 203 q0 -56 45 -56q13 0 43.5 16.5t56.5 41.5q53 50 181 156.5t205 186t124 167.5q20 39 59 78q11 11 11 30q0 14 -12 27.5t-35 13.5q-25 0 -64 -20q-293 -155 -461 -357q-65 -79 -109 -159.5t-44 -124.5zM891 1167q0 49 42.5 125t86.5 92q43 15 76 15q29 0 53 -6 q43 -11 76.5 -40t36.5 -50q4 -32 4 -50q0 -90 -54 -170q-39 -59 -118 -59q-32 0 -73 8.5t-56 18.5q-74 52 -74 116zM1018 1176q0 -32 14 -52q13 -20 33 -20q22 0 29 12q4 6 15 24.5t15.5 27.5t11.5 23.5t10 27t3 24.5q0 27 -19 57q-13 19 -24 19q-22 0 -33 -14 q-55 -78 -55 -129z" />
<glyph unicode="&#xe6;" horiz-adv-x="1275" d="M61 215q0 116 99 289q61 106 123 181t155 155q80 69 187 128.5t180 59.5q66 0 108 -33q11 -8 17 -8q13 0 28 25l15 22q8 13 14 17t19 4q6 0 38.5 -12.5t45.5 -12.5q6 0 22 4q9 2 35.5 9.5t43 10.5t34.5 3q72 0 100 -33q43 -47 43 -115q0 -49 -27.5 -114.5t-46.5 -92.5 q-93 -134 -254.5 -288t-269.5 -197q-8 -3 -10 -7.5t-2 -21.5q0 -31 22.5 -53t48.5 -22q49 0 114 25.5t108 54.5q49 32 95 67t104 80.5t89 69.5q37 28 88 51q31 14 41 14t25.5 -13.5t15.5 -27.5q0 -10 -1 -17t-1 -9q0 -18 -16 -31q-22 -18 -78 -73t-100 -93 q-112 -95 -285 -186q-77 -41 -190 -41q-63 0 -119 16q-125 38 -125 156q0 15 1.5 28.5t3 21t1.5 9.5q0 6 -4 6q-5 0 -27 -26q-85 -95 -129 -127q-46 -34 -103 -53t-77 -19q-34 0 -145 80q-17 12 -35.5 49.5t-18.5 89.5zM207 186q0 -11 3 -21t14 -20t30 -10q22 0 53 11.5 t41 21.5q133 133 215 209q58 54 122.5 150t111.5 184l61 114q21 41 21 56q0 12 -7.5 23t-25.5 11q-23 0 -37 -8q-440 -251 -561 -573q-41 -109 -41 -148zM801 395q0 -4 4 -4q5 0 29 19q84 68 171 164t142 178q57 85 57 137q0 45 -22 45q-29 0 -64 -35q-82 -80 -166.5 -214.5 t-140.5 -260.5q-10 -23 -10 -29z" />
<glyph unicode="&#xe7;" horiz-adv-x="708" d="M4 -174q0 18 33 47q10 10 22 10t19 -10q3 -4 16 -12.5t19 -16.5q5 -7 21 -15.5t30 -8.5q45 0 71 24.5t66 92.5q10 17 10 28q0 19 -45 27q-46 8 -93.5 40t-57.5 54q-25 52 -25 96q0 17 3.5 39.5t7 35t12 42.5t10.5 37q1 2 4.5 18.5t8.5 32.5t11 29q223 447 426 549 q12 6 33 6q54 0 114 -23.5t99 -62.5q8 -8 8 -29q0 -14 2 -22t2 -9q0 -6 -2 -14q-2 -7 -20 -42t-33.5 -77t-15.5 -74q0 -30 -39 -30q-24 0 -41 14l-53 39q-23 17 -23 45q0 22 22.5 65t22.5 58q0 7 -4.5 13.5t-11.5 6.5q-13 0 -33 -20q-144 -144 -250 -330q-52 -91 -85.5 -182 t-33.5 -131q0 -19 10.5 -31t24.5 -12q121 0 291 129q184 139 250 139q19 0 43 -23t24 -30q0 -4 -4 -10.5t-4 -10.5q0 -17 -16 -24q-72 -31 -225 -156q-125 -103 -222 -137q-8 -3 -8 -8t6 -8q31 -16 31 -62q0 -19 -14.5 -52.5t-30.5 -55.5q-79 -97 -182 -97q-65 0 -131 37 q-33 18 -51.5 38t-18.5 34z" />
<glyph unicode="&#xe8;" horiz-adv-x="749" d="M109 344q0 32 10 68q40 145 129.5 279t222.5 276q32 34 91.5 63t127.5 29q58 0 125 -23q23 -8 44.5 -40t21.5 -87t-47 -147q-23 -47 -66 -96q-68 -78 -112 -125.5t-110 -113t-128.5 -114t-124.5 -82.5q-12 -7 -12 -16q0 -23 17 -50.5t32 -35.5q31 -16 63 -16 q28 0 60.5 11t97.5 46q77 42 187.5 136.5t162.5 127.5q25 15 41 15q10 0 25.5 -13.5t15.5 -27.5q0 -10 -1 -18t-1 -9q0 -21 -10 -29q-26 -22 -68 -66.5t-79 -80.5t-117.5 -93.5t-188.5 -117.5q-39 -21 -74 -21q-36 0 -77 15q-83 29 -131 57q-68 38 -103 141q-10 29 -17 78 t-7 80zM291 420q0 -10 4 -10q5 0 14 6q143 109 314 315q17 20 27.5 43.5t21.5 40.5q37 57 37 94q0 25 -13 25q-14 0 -43 -19q-7 -4 -13 -7t-8.5 -4.5t-7.5 -5t-12 -9.5q-263 -236 -321 -469zM526 1440q0 30 23 53q25 25 49 25q6 0 16 -3.5t13 -3.5q2 0 4 -0.5t6 -3t8.5 -6 t13 -10t18.5 -13.5t27 -19t35 -25l209 -144q53 -37 53 -51q0 -5 -10 -35q-2 -8 -3.5 -19t-2.5 -14q-7 -20 -27 -20q-35 0 -63 18l-209 136q-49 33 -135 67q-25 10 -25 68z" />
<glyph unicode="&#xe9;" horiz-adv-x="749" d="M109 344q0 32 10 68q40 145 129.5 279t222.5 276q32 34 91.5 63t127.5 29q58 0 125 -23q23 -8 44.5 -40t21.5 -87t-47 -147q-23 -47 -66 -96q-68 -78 -112 -125.5t-110 -113t-128.5 -114t-124.5 -82.5q-12 -7 -12 -16q0 -23 17 -50.5t32 -35.5q31 -16 63 -16 q28 0 60.5 11t97.5 46q77 42 187.5 136.5t162.5 127.5q25 15 41 15q10 0 25.5 -13.5t15.5 -27.5q0 -10 -1 -18t-1 -9q0 -21 -10 -29q-26 -22 -68 -66.5t-79 -80.5t-117.5 -93.5t-188.5 -117.5q-39 -21 -74 -21q-36 0 -77 15q-83 29 -131 57q-68 38 -103 141q-10 29 -17 78 t-7 80zM291 420q0 -10 4 -10q5 0 14 6q143 109 314 315q17 20 27.5 43.5t21.5 40.5q37 57 37 94q0 25 -13 25q-14 0 -43 -19q-7 -4 -13 -7t-8.5 -4.5t-7.5 -5t-12 -9.5q-263 -236 -321 -469zM651 1255q0 15 11 29q8 10 26 10q5 0 51 17l183 69q114 44 157 72q9 6 29 6 q23 0 39 -16q22 -22 22 -58q0 -41 -10 -53q-13 -16 -40.5 -28t-106.5 -37l-242 -76q-21 -6 -41 -6q-14 0 -22 4q-21 14 -31 29q-6 9 -19 22q-6 6 -6 16z" />
<glyph unicode="&#xea;" horiz-adv-x="749" d="M109 344q0 32 10 68q40 145 129.5 279t222.5 276q32 34 91.5 63t127.5 29q58 0 125 -23q23 -8 44.5 -40t21.5 -87t-47 -147q-23 -47 -66 -96q-68 -78 -112 -125.5t-110 -113t-128.5 -114t-124.5 -82.5q-12 -7 -12 -16q0 -23 17 -50.5t32 -35.5q31 -16 63 -16 q28 0 60.5 11t97.5 46q77 42 187.5 136.5t162.5 127.5q25 15 41 15q10 0 25.5 -13.5t15.5 -27.5q0 -10 -1 -18t-1 -9q0 -21 -10 -29q-26 -22 -68 -66.5t-79 -80.5t-117.5 -93.5t-188.5 -117.5q-39 -21 -74 -21q-36 0 -77 15q-83 29 -131 57q-68 38 -103 141q-10 29 -17 78 t-7 80zM291 420q0 -10 4 -10q5 0 14 6q143 109 314 315q17 20 27.5 43.5t21.5 40.5q37 57 37 94q0 25 -13 25q-14 0 -43 -19q-7 -4 -13 -7t-8.5 -4.5t-7.5 -5t-12 -9.5q-263 -236 -321 -469zM537 1282q0 35 4 43q5 9 11 15.5t7 7.5q7 14 113 51l182 63q18 6 27 6 q32 0 39 -14q2 -5 9.5 -9.5t14.5 -17.5l123 -210q23 -40 23 -52q0 -9 -5 -15t-13 -12.5t-11 -11.5q-9 -14 -15.5 -18t-21.5 -4q-5 0 -17.5 9t-19.5 20l-129 176q-7 12 -16 12q-7 0 -21 -6q-183 -77 -215 -105q-2 -2 -10 -2q-11 0 -20 4.5t-17 11.5t-12 9q-10 6 -10 49z" />
<glyph unicode="&#xeb;" horiz-adv-x="749" d="M109 344q0 32 10 68q40 145 129.5 279t222.5 276q32 34 91.5 63t127.5 29q58 0 125 -23q23 -8 44.5 -40t21.5 -87t-47 -147q-23 -47 -66 -96q-68 -78 -112 -125.5t-110 -113t-128.5 -114t-124.5 -82.5q-12 -7 -12 -16q0 -23 17 -50.5t32 -35.5q31 -16 63 -16 q28 0 60.5 11t97.5 46q77 42 187.5 136.5t162.5 127.5q25 15 41 15q10 0 25.5 -13.5t15.5 -27.5q0 -10 -1 -18t-1 -9q0 -21 -10 -29q-26 -22 -68 -66.5t-79 -80.5t-117.5 -93.5t-188.5 -117.5q-39 -21 -74 -21q-36 0 -77 15q-83 29 -131 57q-68 38 -103 141q-10 29 -17 78 t-7 80zM291 420q0 -10 4 -10q5 0 14 6q143 109 314 315q17 20 27.5 43.5t21.5 40.5q37 57 37 94q0 25 -13 25q-14 0 -43 -19q-7 -4 -13 -7t-8.5 -4.5t-7.5 -5t-12 -9.5q-263 -236 -321 -469zM569 1364q0 10 9.5 39t17.5 45q17 33 72 33q67 0 82 -27q22 -42 22 -65 q0 -30 -23.5 -65t-23.5 -36q-1 -15 -29.5 -25t-50.5 -10q-25 0 -31 4q-15 9 -26 26.5t-15 21.5t-4 59zM944 1274q0 21 18.5 60.5t45.5 39.5q2 0 17.5 -1t23.5 -1q29 0 52 -9.5t27 -27.5q1 -6 12 -29t11 -36q0 -25 -4 -33q-33 -65 -51 -74q-16 -8 -60 -8q-36 0 -49 31 q-2 6 -22.5 35t-20.5 53z" />
<glyph unicode="&#xec;" horiz-adv-x="450" d="M111 219q0 76 32 166q5 15 16.5 50.5t18.5 51.5q137 326 199 455q26 55 102 55q43 0 62 -16q16 -13 16 -33q0 -48 -21.5 -89t-57 -88t-52.5 -83q-58 -126 -121 -291q-49 -129 -49 -200q0 -66 37 -66q33 0 59 12.5t90 57.5q40 28 57 36.5t40 8.5q33 0 51 -15 q12 -10 12 -28q0 -16 -7.5 -27t-25.5 -29l-84 -77q-109 -99 -211 -99q-44 0 -89.5 51t-63.5 111q-10 36 -10 86zM301 1350q0 30 23 53q24 24 49 24q7 0 16 -3t12 -3t6 -1.5t11 -7t18 -13t31.5 -23.5t46.5 -33l209 -143q53 -37 53 -51q0 -5 -10 -35q-2 -8 -3.5 -19t-2.5 -14 q-7 -20 -27 -20q-35 0 -63 18l-209 135q-53 35 -135 68q-25 10 -25 68z" />
<glyph unicode="&#xed;" horiz-adv-x="450" d="M111 219q0 76 32 166q5 15 16.5 50.5t18.5 51.5q137 326 199 455q26 55 102 55q43 0 62 -16q16 -13 16 -33q0 -48 -21.5 -89t-57 -88t-52.5 -83q-58 -126 -121 -291q-49 -129 -49 -200q0 -66 37 -66q33 0 59 12.5t90 57.5q40 28 57 36.5t40 8.5q33 0 51 -15 q12 -10 12 -28q0 -16 -7.5 -27t-25.5 -29l-84 -77q-109 -99 -211 -99q-44 0 -89.5 51t-63.5 111q-10 36 -10 86zM434 1194q0 16 10 29q8 10 27 10q8 0 51 16l183 70q113 44 157 72q9 6 29 6q22 0 39 -17q22 -22 22 -57q0 -41 -10 -53q-13 -17 -41.5 -29.5t-105.5 -36.5 l-242 -76q-21 -6 -41 -6q-15 0 -23 4q-19 13 -30 29q-8 12 -19 23q-6 6 -6 16z" />
<glyph unicode="&#xee;" horiz-adv-x="450" d="M111 219q0 76 32 166q5 15 16.5 50.5t18.5 51.5q137 326 199 455q26 55 102 55q43 0 62 -16q16 -13 16 -33q0 -48 -21.5 -89t-57 -88t-52.5 -83q-58 -126 -121 -291q-49 -129 -49 -200q0 -66 37 -66q33 0 59 12.5t90 57.5q40 28 57 36.5t40 8.5q33 0 51 -15 q12 -10 12 -28q0 -16 -7.5 -27t-25.5 -29l-84 -77q-109 -99 -211 -99q-44 0 -89.5 51t-63.5 111q-10 36 -10 86zM299 1212q0 35 4 43q5 9 11.5 15.5l7.5 7.5q7 14 112 51l182 64q18 6 27 6q31 0 39 -15q2 -5 10 -9t15 -17l122 -211q23 -40 23 -51q0 -9 -5 -15t-13 -12.5 t-11 -11.5q-9 -14 -16 -18.5t-21 -4.5q-5 0 -17 9t-19 20l-129 176q-7 12 -17 12q-6 0 -20 -6q-185 -78 -215 -104q-2 -2 -11 -2q-11 0 -20 4.5t-17.5 11t-11.5 8.5q-10 6 -10 49z" />
<glyph unicode="&#xef;" horiz-adv-x="450" d="M111 219q0 76 32 166q5 15 16.5 50.5t18.5 51.5q137 326 199 455q26 55 102 55q43 0 62 -16q16 -13 16 -33q0 -48 -21.5 -89t-57 -88t-52.5 -83q-58 -126 -121 -291q-49 -129 -49 -200q0 -66 37 -66q33 0 59 12.5t90 57.5q40 28 57 36.5t40 8.5q33 0 51 -15 q12 -10 12 -28q0 -16 -7.5 -27t-25.5 -29l-84 -77q-109 -99 -211 -99q-44 0 -89.5 51t-63.5 111q-10 36 -10 86zM307 1327q0 10 9.5 39t17.5 45q17 33 72 33q66 0 81 -27q23 -44 23 -65q0 -30 -23.5 -65t-23.5 -36q-1 -15 -29 -24.5t-51 -9.5q-25 0 -31 4q-15 9 -26.5 26.5 t-14.5 20.5q-4 4 -4 59zM682 1237q0 21 18 60.5t45 39.5q2 0 17.5 -1t23.5 -1q29 0 52.5 -9.5t27.5 -27.5q1 -6 12 -29t11 -36q0 -25 -4 -33q-33 -65 -51 -74q-16 -8 -60 -8q-36 0 -49 31q-2 6 -22.5 35t-20.5 53z" />
<glyph unicode="&#xf0;" horiz-adv-x="819" d="M119 295q0 108 48.5 230.5t90.5 174.5q14 18 82 109q74 102 172 102q55 0 102 -34q47 -35 54 -35q6 0 6 8q0 31 -16.5 92t-49.5 129q-5 10 -10 10q-6 0 -63.5 -30.5t-77.5 -46.5q-9 -7 -34.5 -19t-37.5 -12q-9 0 -23 20q-16 22 -16 47q0 16 6 27t15 19.5t12 13.5 q13 24 139 88q12 6 12 10q0 14 -77 98q-36 39 -72 70q-38 33 -45.5 44t-7.5 32q0 16 1 25.5t8.5 18.5t20.5 9q4 0 26 14.5t30 14.5q12 0 22.5 -5.5t50.5 -31.5q38 -25 47 -35.5t9 -21.5t28 -46q57 -68 86 -106q7 -10 13 -10q4 0 16 6q45 21 85.5 45.5t60 36.5t30.5 12 q9 0 26.5 -9.5t29.5 -23.5q10 -10 10 -26t-18.5 -38.5t-18.5 -27.5q0 -6 -5.5 -12.5t-34 -23.5t-83.5 -44q-23 -11 -23 -20q0 -7 23 -64q40 -102 54 -187.5t14 -205.5q0 -138 -61 -311t-179 -291q-5 -5 -30.5 -31.5t-36 -35.5t-32 -25.5t-42 -22.5t-43.5 -6q-43 0 -67 5.5 t-40.5 15.5t-21.5 12q-57 22 -86 43t-45 59q-33 75 -33 197zM272 233q0 -95 54 -124q19 -11 36 -11q39 0 91 49q101 95 157 227.5t60 219.5q-29 7 -33 29q-14 71 -30.5 110.5t-28 48.5t-25.5 9q-16 0 -44.5 -16.5t-51.5 -51.5q-41 -63 -57 -88t-44 -73.5t-38 -76.5 t-23.5 -71.5t-18 -86t-4.5 -94.5z" />
<glyph unicode="&#xf1;" horiz-adv-x="860" d="M61 143q0 36 11.5 72t13.5 51q10 73 100 279q94 217 199 377q4 7 9 15t7 11t6 8t11 11q23 20 71 20q68 0 82 -31q11 -27 11 -36q0 -49 -45 -97q-76 -83 -131 -184q-63 -116 -146 -320q-10 -25 -25.5 -81.5t-15.5 -61.5q0 -20 6 -20q17 0 35 26q93 132 182.5 240t142 159 t93 96.5t55.5 76.5q27 57 39 70.5t33 13.5q16 0 37 -10t37 -11q17 -1 29 -18.5t12 -36.5t-21 -53q-103 -168 -143 -303q-9 -30 -17 -91.5t-8 -93.5q0 -16 3 -33t8 -33.5t6 -21.5q2 -10 8 -20.5t16 -19t17.5 -14.5t18 -12.5t11.5 -7.5q31 -23 31 -47q0 -15 -13.5 -32 t-39.5 -17q-21 0 -56 7t-51 22q-7 6 -35.5 27.5t-44.5 43.5q-35 46 -35 127q0 34 2 62.5t4.5 45.5t5.5 29t5 18t2 7q0 8 -6 8q-7 0 -13 -8q-173 -229 -188 -250q-25 -36 -54.5 -60.5t-33.5 -29.5q-20 -22 -76 -22q-19 0 -73 34.5t-74 59.5q-15 19 -15 59zM502 1278q0 6 5 16 t13 13l129 47q49 18 92 18q27 0 47 -19t52 -67q34 -50 46.5 -61t37.5 -11q6 0 80 25t83 25q17 0 28 -12t13 -27q1 -5 5 -17.5t4 -25.5q0 -11 -17 -21q-142 -92 -200 -92q-62 0 -109 37q-22 17 -49.5 60t-34.5 48q-11 7 -18 7q-31 0 -101 -43q-12 -7 -20 -7q-70 0 -70 31 q0 10 -8 37t-8 39z" />
<glyph unicode="&#xf2;" horiz-adv-x="753" d="M98 309q0 115 46.5 222.5t131.5 234.5q16 23 28.5 35.5t21.5 25.5q136 189 241 189q65 0 109 -39q24 -21 29 -35q11 -32 22 -53.5t33 -40.5t49 -19q45 0 101 3.5t75 3.5q52 0 89.5 -15t37.5 -39q0 -16 -28 -28.5t-29 -14.5q-5 -9 -23 -12q-19 -3 -72 -17t-81 -18 q-41 -6 -80 -6q-12 0 -17 -3t-8 -13q-43 -178 -104 -314.5t-154 -234.5q-39 -41 -59 -60.5t-55.5 -40t-69.5 -20.5q-29 0 -49 10q-128 61 -154 129q-31 77 -31 170zM238 244q0 -15 6 -29q5 -14 21 -37t28 -31q6 -4 18 -4q9 0 16.5 3t14 8t8.5 6q16 7 35 37l51 76.5 t45.5 71.5t45 77.5t34 72t30 80.5t16 78.5t7.5 87.5q0 33 -2 43q-2 13 -12 23q-11 11 -16 31q-10 34 -21 34q-14 0 -31 -20q-3 -4 -18 -15.5t-20 -19.5q-256 -325 -256 -573zM432 1337q0 31 23 54q24 24 49 24q6 0 15 -3t13 -3q3 0 6 -1.5t11 -7t18 -13t31.5 -23.5t46.5 -33 l209 -143q53 -37 53 -51q0 -5 -10 -35q-2 -8 -3.5 -19t-2.5 -14q-7 -20 -27 -20q-35 0 -63 18l-209 135q-53 35 -135 68q-25 10 -25 67z" />
<glyph unicode="&#xf3;" horiz-adv-x="753" d="M98 309q0 115 46.5 222.5t131.5 234.5q16 23 28.5 35.5t21.5 25.5q136 189 241 189q65 0 109 -39q24 -21 29 -35q11 -32 22 -53.5t33 -40.5t49 -19q45 0 101 3.5t75 3.5q52 0 89.5 -15t37.5 -39q0 -16 -28 -28.5t-29 -14.5q-5 -9 -23 -12q-19 -3 -72 -17t-81 -18 q-41 -6 -80 -6q-12 0 -17 -3t-8 -13q-43 -178 -104 -314.5t-154 -234.5q-39 -41 -59 -60.5t-55.5 -40t-69.5 -20.5q-29 0 -49 10q-128 61 -154 129q-31 77 -31 170zM238 244q0 -15 6 -29q5 -14 21 -37t28 -31q6 -4 18 -4q9 0 16.5 3t14 8t8.5 6q16 7 35 37l51 76.5 t45.5 71.5t45 77.5t34 72t30 80.5t16 78.5t7.5 87.5q0 33 -2 43q-2 13 -12 23q-11 11 -16 31q-10 34 -21 34q-14 0 -31 -20q-3 -4 -18 -15.5t-20 -19.5q-256 -325 -256 -573zM500 1198q0 16 10 29q8 10 27 10q8 0 51 16l182 70q116 45 158 72q9 6 28 6q22 0 39 -17 q23 -23 23 -57q0 -41 -10 -53q-13 -17 -42 -29t-106 -37l-242 -75q-24 -7 -40 -7q-15 0 -23 4q-21 14 -31 29t-18 23q-6 6 -6 16z" />
<glyph unicode="&#xf4;" horiz-adv-x="753" d="M98 309q0 115 46.5 222.5t131.5 234.5q16 23 28.5 35.5t21.5 25.5q136 189 241 189q65 0 109 -39q24 -21 29 -35q11 -32 22 -53.5t33 -40.5t49 -19q45 0 101 3.5t75 3.5q52 0 89.5 -15t37.5 -39q0 -16 -28 -28.5t-29 -14.5q-5 -9 -23 -12q-19 -3 -72 -17t-81 -18 q-41 -6 -80 -6q-12 0 -17 -3t-8 -13q-43 -178 -104 -314.5t-154 -234.5q-39 -41 -59 -60.5t-55.5 -40t-69.5 -20.5q-29 0 -49 10q-128 61 -154 129q-31 77 -31 170zM238 244q0 -15 6 -29q5 -14 21 -37t28 -31q6 -4 18 -4q9 0 16.5 3t14 8t8.5 6q16 7 35 37l51 76.5 t45.5 71.5t45 77.5t34 72t30 80.5t16 78.5t7.5 87.5q0 33 -2 43q-2 13 -12 23q-11 11 -16 31q-10 34 -21 34q-14 0 -31 -20q-3 -4 -18 -15.5t-20 -19.5q-256 -325 -256 -573zM381 1217q0 35 4 43q5 9 11 15l7 7q7 14 113 51l182 64q18 6 27 6q32 0 39 -14q2 -5 9.5 -9.5 t14.5 -17.5l123 -211q23 -40 23 -51q0 -9 -5 -15t-13 -12.5t-11 -11.5q-9 -14 -16 -18.5t-21 -4.5q-5 0 -17.5 9t-19.5 20l-129 176q-7 12 -16 12q-6 0 -20 -6q-185 -78 -215 -104q-2 -2 -11 -2q-11 0 -20 4.5t-17.5 11t-11.5 8.5q-10 6 -10 50z" />
<glyph unicode="&#xf5;" horiz-adv-x="753" d="M98 309q0 115 46.5 222.5t131.5 234.5q16 23 28.5 35.5t21.5 25.5q136 189 241 189q65 0 109 -39q24 -21 29 -35q11 -32 22 -53.5t33 -40.5t49 -19q45 0 101 3.5t75 3.5q52 0 89.5 -15t37.5 -39q0 -16 -28 -28.5t-29 -14.5q-5 -9 -23 -12q-19 -3 -72 -17t-81 -18 q-41 -6 -80 -6q-12 0 -17 -3t-8 -13q-43 -178 -104 -314.5t-154 -234.5q-39 -41 -59 -60.5t-55.5 -40t-69.5 -20.5q-29 0 -49 10q-128 61 -154 129q-31 77 -31 170zM238 244q0 -15 6 -29q5 -14 21 -37t28 -31q6 -4 18 -4q9 0 16.5 3t14 8t8.5 6q16 7 35 37l51 76.5 t45.5 71.5t45 77.5t34 72t30 80.5t16 78.5t7.5 87.5q0 33 -2 43q-2 13 -12 23q-11 11 -16 31q-10 34 -21 34q-14 0 -31 -20q-3 -4 -18 -15.5t-20 -19.5q-256 -325 -256 -573zM416 1303q0 6 5 15.5t13 12.5l129 47q52 19 92 19q27 0 47 -19t52 -67q34 -50 46.5 -61t37.5 -11 q6 0 80 24.5t83 24.5q17 0 28 -12t13 -27q1 -5 5 -17.5t4 -25.5q0 -10 -17 -20q-142 -92 -200 -92q-63 0 -109 36q-22 17 -49.5 60.5t-34.5 48.5q-9 6 -18 6q-31 0 -101 -43q-10 -6 -20 -6q-70 0 -70 31q0 10 -8 37t-8 39z" />
<glyph unicode="&#xf6;" horiz-adv-x="753" d="M98 309q0 115 46.5 222.5t131.5 234.5q16 23 28.5 35.5t21.5 25.5q136 189 241 189q65 0 109 -39q24 -21 29 -35q11 -32 22 -53.5t33 -40.5t49 -19q45 0 101 3.5t75 3.5q52 0 89.5 -15t37.5 -39q0 -16 -28 -28.5t-29 -14.5q-5 -9 -23 -12q-19 -3 -72 -17t-81 -18 q-41 -6 -80 -6q-12 0 -17 -3t-8 -13q-43 -178 -104 -314.5t-154 -234.5q-39 -41 -59 -60.5t-55.5 -40t-69.5 -20.5q-29 0 -49 10q-128 61 -154 129q-31 77 -31 170zM238 244q0 -15 6 -29q5 -14 21 -37t28 -31q6 -4 18 -4q9 0 16.5 3t14 8t8.5 6q16 7 35 37l51 76.5 t45.5 71.5t45 77.5t34 72t30 80.5t16 78.5t7.5 87.5q0 33 -2 43q-2 13 -12 23q-11 11 -16 31q-10 34 -21 34q-14 0 -31 -20q-3 -4 -18 -15.5t-20 -19.5q-256 -325 -256 -573zM442 1323q0 10 9.5 39t17.5 45q17 33 72 33q67 0 82 -27q22 -42 22 -65q0 -30 -23.5 -65 t-23.5 -36q-1 -15 -29.5 -25t-50.5 -10q-24 0 -31 5q-15 9 -26.5 26.5t-14.5 20.5q-4 4 -4 59zM817 1233q0 21 18.5 60.5t45.5 39.5q2 0 17.5 -1t23.5 -1q29 0 52 -9.5t27 -27.5q1 -6 12 -29t11 -36q0 -25 -4 -33q-33 -65 -51 -74q-16 -8 -60 -8q-36 0 -49 31q-2 6 -22.5 35 t-20.5 53z" />
<glyph unicode="&#xf7;" horiz-adv-x="1208" d="M246 614q0 14 17.5 23.5t51.5 9.5q10 0 53.5 -4t116.5 -8t154 -4q33 0 199 8t231 8q18 0 27.5 -4.5t29.5 -24.5q7 -7 7 -30q0 -40 -17 -86q-7 -17 -16 -17q-8 0 -28 2t-28 2q-28 0 -212.5 -8t-278.5 -8q-62 0 -160 7t-104 7q-18 0 -30.5 47t-12.5 80zM467 201 q0 23 9 58.5t32 69t53 33.5q31 0 62 -22q5 -4 17 -15t22 -18q25 -17 36 -46.5t11 -55.5q0 -67 -22.5 -95t-88.5 -28q-20 0 -33.5 4.5t-19 9t-13.5 15t-12 14.5q-7 8 -19 18.5t-18 16.5t-11 17t-5 24zM618 842q0 41 9 71t28.5 63.5t24.5 45.5q8 18 57 18q26 0 77.5 -39 t51.5 -59q0 -16 -5 -44t-15.5 -63t-33 -60t-52.5 -25q-11 0 -43 9.5t-65.5 32.5t-33.5 50z" />
<glyph unicode="&#xf8;" horiz-adv-x="831" d="M37 86q0 8 1.5 12t6.5 7t11.5 6.5t20.5 12t29 21.5q29 23 29 33q0 3 -6 21t-12 51.5t-6 73.5q0 58 16 118t46.5 118t52.5 93t55 82q28 40 59 76q9 10 39 47t50 59t50.5 49.5t61.5 41.5t63 14q67 0 141 -74q5 -5 25.5 -17t24.5 -18q7 -10 14 -10q4 0 14 10 q24 24 33.5 32.5t22 15t26.5 6.5q19 0 36 -27.5t17 -58.5q0 -5 -8 -10.5t-22 -13.5t-23 -15q-41 -34 -41 -45q0 -3 2 -20.5t2 -33.5q0 -25 -6 -69q-32 -180 -101.5 -331.5t-137.5 -236.5q-43 -53 -92.5 -85t-78.5 -39t-53 -7q-20 0 -57 13q-92 32 -133 73q-11 11 -14 11 q-7 0 -23 -19q-12 -15 -43 -34t-43 -19q-21 0 -23 12q-2 11 -14 35t-12 39zM266 328q0 -9 4 -9q6 0 62 58q55 57 202.5 220.5t184.5 203.5q4 4 4 6q0 4 -6 4q-30 0 -53 35q-12 21 -18 27t-15 6q-43 0 -78 -45q-123 -150 -184 -250t-95 -217q-8 -28 -8 -39zM285 166 q0 -7 18 -23q34 -30 62 -30q30 0 60.5 14t43.5 31q81 100 127.5 191.5t89.5 223.5q8 25 8 31q0 4 -4 4t-18 -14l-146 -160q-13 -14 -47.5 -50t-69 -73.5t-63.5 -72.5q-25 -30 -49 -54q-12 -12 -12 -18z" />
<glyph unicode="&#xf9;" horiz-adv-x="860" d="M102 156q0 15 1.5 31t5 36.5t5.5 32t9 37t8.5 31.5t10 35t8.5 30q7 23 15.5 61.5t18.5 67.5q12 33 36 116t48.5 146t59.5 123q31 53 88 53q19 0 40.5 -8t28.5 -24q2 -4 8.5 -13.5t10.5 -19t4 -19.5q0 -33 -41 -59t-59 -96q-16 -62 -79.5 -254.5t-74.5 -278.5 q-4 -27 -4 -47q0 -8 9.5 -18t19.5 -10q6 0 21 6t24 14q44 39 73.5 76.5t34.5 42.5q218 235 305 459q8 21 13.5 28t23.5 17q22 12 47 12q9 0 26.5 -10t22.5 -11q41 -12 41 -36q0 -33 -12 -60q-116 -248 -149 -463q-13 -93 -13 -151q0 -26 18.5 -70.5t18.5 -66.5 q0 -28 -12 -37q-9 -6 -29 -6q-29 0 -78 30q-12 8 -22.5 12t-13.5 5.5t-7 6t-8 15.5q-20 51 -20 123q0 29 3 81t3 58q0 13 -8 13q-9 0 -29 -25q-126 -147 -229 -199q-16 -8 -27 -8q-7 0 -24 3t-46.5 12.5t-52.5 23.5q-55 34 -61 64q-11 57 -11 88zM432 1255q0 31 23 54 q24 24 49 24q6 0 15 -3t13 -3q3 0 6 -1.5t11 -7t18 -13t31.5 -23.5t46.5 -33l209 -143q53 -37 53 -51q0 -5 -10 -35q-2 -8 -3.5 -19t-2.5 -14q-7 -20 -27 -20q-35 0 -63 18l-209 135q-53 35 -135 68q-25 10 -25 67z" />
<glyph unicode="&#xfa;" horiz-adv-x="860" d="M102 156q0 15 1.5 31t5 36.5t5.5 32t9 37t8.5 31.5t10 35t8.5 30q7 23 15.5 61.5t18.5 67.5q12 33 36 116t48.5 146t59.5 123q31 53 88 53q19 0 40.5 -8t28.5 -24q2 -4 8.5 -13.5t10.5 -19t4 -19.5q0 -33 -41 -59t-59 -96q-16 -62 -79.5 -254.5t-74.5 -278.5 q-4 -27 -4 -47q0 -8 9.5 -18t19.5 -10q6 0 21 6t24 14q44 39 73.5 76.5t34.5 42.5q218 235 305 459q8 21 13.5 28t23.5 17q22 12 47 12q9 0 26.5 -10t22.5 -11q41 -12 41 -36q0 -33 -12 -60q-116 -248 -149 -463q-13 -93 -13 -151q0 -26 18.5 -70.5t18.5 -66.5 q0 -28 -12 -37q-9 -6 -29 -6q-29 0 -78 30q-12 8 -22.5 12t-13.5 5.5t-7 6t-8 15.5q-20 51 -20 123q0 29 3 81t3 58q0 13 -8 13q-9 0 -29 -25q-126 -147 -229 -199q-16 -8 -27 -8q-7 0 -24 3t-46.5 12.5t-52.5 23.5q-55 34 -61 64q-11 57 -11 88zM528 1124q0 15 11 29 q7 10 26 10q5 0 51 17l183 69q114 44 157 72q9 6 29 6q23 0 39 -16q23 -23 23 -58q0 -39 -11 -53q-13 -16 -40.5 -28t-106.5 -37l-242 -76q-21 -6 -41 -6q-14 0 -22 4q-22 15 -31 28q-10 15 -18 23q-7 7 -7 16z" />
<glyph unicode="&#xfb;" horiz-adv-x="860" d="M102 156q0 15 1.5 31t5 36.5t5.5 32t9 37t8.5 31.5t10 35t8.5 30q7 23 15.5 61.5t18.5 67.5q12 33 36 116t48.5 146t59.5 123q31 53 88 53q19 0 40.5 -8t28.5 -24q2 -4 8.5 -13.5t10.5 -19t4 -19.5q0 -33 -41 -59t-59 -96q-16 -62 -79.5 -254.5t-74.5 -278.5 q-4 -27 -4 -47q0 -8 9.5 -18t19.5 -10q6 0 21 6t24 14q44 39 73.5 76.5t34.5 42.5q218 235 305 459q8 21 13.5 28t23.5 17q22 12 47 12q9 0 26.5 -10t22.5 -11q41 -12 41 -36q0 -33 -12 -60q-116 -248 -149 -463q-13 -93 -13 -151q0 -26 18.5 -70.5t18.5 -66.5 q0 -28 -12 -37q-9 -6 -29 -6q-29 0 -78 30q-12 8 -22.5 12t-13.5 5.5t-7 6t-8 15.5q-20 51 -20 123q0 29 3 81t3 58q0 13 -8 13q-9 0 -29 -25q-126 -147 -229 -199q-16 -8 -27 -8q-7 0 -24 3t-46.5 12.5t-52.5 23.5q-55 34 -61 64q-11 57 -11 88zM455 1159q0 35 4 43 q5 10 11 16l7 7q7 14 113 51l182 63q21 7 27 7q31 0 39 -15q2 -5 9.5 -9t14.5 -17l123 -211q23 -40 23 -52q0 -9 -5 -15t-12.5 -12t-11.5 -11q-9 -14 -16 -18.5t-21 -4.5q-5 0 -17.5 9t-19.5 20l-129 176q-7 12 -16 12q-7 0 -21 -6q-183 -77 -215 -105q-2 -2 -10 -2 q-11 0 -20 4.5t-17 11.5t-12 9q-10 6 -10 49z" />
<glyph unicode="&#xfc;" horiz-adv-x="860" d="M102 156q0 15 1.5 31t5 36.5t5.5 32t9 37t8.5 31.5t10 35t8.5 30q7 23 15.5 61.5t18.5 67.5q12 33 36 116t48.5 146t59.5 123q31 53 88 53q19 0 40.5 -8t28.5 -24q2 -4 8.5 -13.5t10.5 -19t4 -19.5q0 -33 -41 -59t-59 -96q-16 -62 -79.5 -254.5t-74.5 -278.5 q-4 -27 -4 -47q0 -8 9.5 -18t19.5 -10q6 0 21 6t24 14q44 39 73.5 76.5t34.5 42.5q218 235 305 459q8 21 13.5 28t23.5 17q22 12 47 12q9 0 26.5 -10t22.5 -11q41 -12 41 -36q0 -33 -12 -60q-116 -248 -149 -463q-13 -93 -13 -151q0 -26 18.5 -70.5t18.5 -66.5 q0 -28 -12 -37q-9 -6 -29 -6q-29 0 -78 30q-12 8 -22.5 12t-13.5 5.5t-7 6t-8 15.5q-20 51 -20 123q0 29 3 81t3 58q0 13 -8 13q-9 0 -29 -25q-126 -147 -229 -199q-16 -8 -27 -8q-7 0 -24 3t-46.5 12.5t-52.5 23.5q-55 34 -61 64q-11 57 -11 88zM510 1262q0 10 9.5 39 t17.5 45q17 32 71 32q67 0 82 -26q23 -44 23 -66q0 -30 -23.5 -64.5t-23.5 -35.5q-1 -15 -29.5 -25t-50.5 -10q-25 0 -31 4q-15 9 -26.5 26.5t-14.5 20.5q-4 4 -4 60zM829 1071q0 21 18.5 60.5t45.5 39.5q2 0 17.5 -1t23.5 -1q29 0 52.5 -9t27.5 -27q1 -5 11.5 -29t10.5 -37 q0 -21 -4 -33q-8 -22 -23 -44t-28 -29q-18 -9 -59 -9q-36 0 -50 31q-2 6 -22.5 35t-20.5 53z" />
<glyph unicode="&#xfd;" horiz-adv-x="892" d="M123 193q0 98 23 200.5t51.5 176t70.5 181.5t66 187q8 27 32.5 43t39.5 16q4 0 25 -5t32 -5q17 0 35 -13t18 -32q0 -50 -20 -86q-19 -33 -33.5 -48.5t-20.5 -29.5q-32 -69 -54 -131.5t-47.5 -150t-41.5 -136.5q-10 -32 -16 -65q-11 -63 -11 -66q0 -32 11 -32q21 0 45 12 q73 36 161 135q1 1 28.5 29.5t47.5 52.5q13 16 52.5 58t66.5 75.5t68 106t75 163.5q6 16 24 39t30 23q10 0 27.5 -7t35.5 -7q31 0 48.5 -13.5t20.5 -27t3 -33.5q0 -38 -47 -105l-39 -61q-72 -110 -125 -264q-7 -22 -56 -152t-57 -155q-24 -76 -24 -82q0 -4 8 -4q2 0 8.5 1 t9.5 1q11 0 24 -6.5t13 -16.5q0 -35 -12 -51q-175 -232 -248 -578q-2 -11 -7 -42t-8.5 -48t-13 -43.5t-21 -41.5t-31.5 -28t-46 -16q-2 0 -21 -4t-34 -4t-26 2t-24 9t-20.5 24t-7.5 43q0 61 43 162q82 192 176 350q6 53 123 411q37 115 37 129q0 9 -6 9t-29 -23 q-50 -50 -129 -104t-96 -54q-128 0 -195 82q-12 14 -12 50zM553 1100q0 16 10 28q8 11 27 11q8 0 51 16l182 70q120 46 158 71q11 7 29 7q22 0 39 -17q22 -22 22 -57q0 -41 -10 -53q-13 -17 -42 -29t-106 -37l-241 -76q-21 -6 -41 -6q-15 0 -23 4q-19 13 -30 29q-6 9 -19 22 q-6 6 -6 17z" />
<glyph unicode="&#xfe;" horiz-adv-x="935" d="M-154 -487q0 9 19 67q57 170 160.5 429t219 568t220.5 654q22 71 22 123q0 15 11.5 25t25.5 10q16 0 39 7t37 7q42 0 56 -10.5t14 -30.5q0 -23 -18 -87.5t-48 -152.5t-57 -166t-58.5 -164t-39.5 -110q0 -4 6 -4q27 22 81.5 76.5t108.5 100.5t111 77q23 12 32 12 q67 0 173 -70q32 -21 32 -81q0 -62 -20 -144q-1 -3 -3.5 -21.5t-8.5 -35.5q-166 -430 -340 -574q-17 -14 -58 -14q-33 0 -75.5 20t-61.5 39q-82 82 -102 181q-135 -202 -285 -682q-7 -22 -10.5 -48t-4.5 -39.5t-8 -22.5t-22 -9q-17 0 -36.5 4t-25.5 4q-46 0 -57 14 q-2 3 -11 10.5t-13 15.5t-5 22zM434 346q0 -58 29 -130.5t67 -72.5q10 0 19 9q43 40 91 129.5t67 136.5q57 130 86 241q26 104 26 127q0 13 -6 13q-4 0 -16 -8q-96 -62 -195.5 -169t-157.5 -204q-10 -17 -10 -72z" />
<glyph unicode="&#xff;" horiz-adv-x="892" d="M123 193q0 98 23 200.5t51.5 176t70.5 181.5t66 187q8 27 32.5 43t39.5 16q4 0 25 -5t32 -5q17 0 35 -13t18 -32q0 -50 -20 -86q-19 -33 -33.5 -48.5t-20.5 -29.5q-32 -69 -54 -131.5t-47.5 -150t-41.5 -136.5q-10 -32 -16 -65q-11 -63 -11 -66q0 -32 11 -32q21 0 45 12 q73 36 161 135q1 1 28.5 29.5t47.5 52.5q13 16 52.5 58t66.5 75.5t68 106t75 163.5q6 16 24 39t30 23q10 0 27.5 -7t35.5 -7q31 0 48.5 -13.5t20.5 -27t3 -33.5q0 -38 -47 -105l-39 -61q-72 -110 -125 -264q-7 -22 -56 -152t-57 -155q-24 -76 -24 -82q0 -4 8 -4q2 0 8.5 1 t9.5 1q11 0 24 -6.5t13 -16.5q0 -35 -12 -51q-175 -232 -248 -578q-2 -11 -7 -42t-8.5 -48t-13 -43.5t-21 -41.5t-31.5 -28t-46 -16q-2 0 -21 -4t-34 -4t-26 2t-24 9t-20.5 24t-7.5 43q0 61 43 162q82 192 176 350q6 53 123 411q37 115 37 129q0 9 -6 9t-29 -23 q-50 -50 -129 -104t-96 -54q-128 0 -195 82q-12 14 -12 50zM504 1241q0 10 9 39.5t17 44.5q17 33 72 33q67 0 82 -27q23 -44 23 -65q0 -30 -24 -65t-24 -36q-1 -15 -29 -25t-50 -10q-24 0 -31 5q-15 9 -26.5 26.5t-14.5 20.5q-4 4 -4 59zM879 1151q0 21 18 60.5t45 39.5 q2 0 17.5 -1t23.5 -1q29 0 52.5 -9.5t27.5 -27.5q1 -6 11.5 -29t10.5 -36q0 -25 -4 -33q-33 -65 -51 -74q-16 -8 -59 -8q-36 0 -49 31q-2 6 -22.5 35t-20.5 53z" />
<glyph unicode="&#x152;" horiz-adv-x="1544" d="M188 301q4 204 66 375t182 344q95 137 178 204.5t129 67.5q133 0 205 -37q43 -20 66 -53q8 -10 20 -10q9 0 49 14q140 51 273 82q217 51 362 51q11 0 32 -3.5t28 -4.5q48 -5 81 -26t33 -54q0 -37 -9 -57t-23 -20q-23 0 -74.5 8t-106.5 8q-119 0 -254.5 -32.5 t-248.5 -78.5q-27 -11 -35.5 -20t-14.5 -33l-49 -229q-8 -36 -8 -41q0 -11 10 -11q7 0 39 13q182 73 291 73q53 0 123 -24q20 -6 25.5 -13t5.5 -28q0 -26 -7.5 -45.5t-16.5 -28.5t-22 -14t-18.5 -5.5t-11.5 -0.5q-11 0 -32 3t-32 3q-60 0 -125 -18.5t-140.5 -47.5 t-119.5 -41q-21 -5 -30 -13t-19 -34q-83 -215 -137 -338q-12 -27 -12 -47q0 -7 9 -13.5t23 -6.5q36 0 134 22t194 54q43 14 105 49t118.5 58.5t114.5 23.5q23 0 51.5 -26t28.5 -46q0 -37 -25 -55q-14 -10 -30.5 -19t-37.5 -18.5t-30 -14.5q-171 -91 -380.5 -139.5 t-307.5 -48.5q-28 0 -64.5 13.5t-44.5 13.5q-16 0 -70.5 -17.5t-133.5 -17.5q-90 0 -129 20q-177 98 -177 330zM354 303q0 -35 6 -69t20 -68.5t43 -56t69 -21.5q31 0 66.5 17.5t62.5 48.5q43 51 84 129t96 225q8 21 8 29q0 9 -10 24q-13 20 -17 36t-4 50q0 17 43 23 q21 3 29 8.5t14 21.5q30 77 54 170t24 115q0 10 -3 14.5t-7.5 5t-11.5 2t-13 5.5q-43 29 -55 108q-5 33 -59 33q-27 0 -62 -33q-243 -231 -346 -561q-18 -59 -18 -86q0 -16 -6.5 -75t-6.5 -95z" />
<glyph unicode="&#x153;" horiz-adv-x="1193" d="M98 291q0 206 215 518q166 242 305 242q61 0 125 -52q25 -21 38.5 -39.5t31.5 -60.5l8 -27q61 66 88 89q45 41 114.5 68.5t131.5 27.5q102 0 137 -74q11 -25 11 -49q0 -55 -27.5 -128t-56.5 -108q-123 -152 -238 -266t-242 -184q-20 -11 -20 -25q0 -34 35 -67 q21 -19 34 -25t33 -6q45 0 162 72q82 51 189.5 139t154.5 123q13 10 33 10q18 0 35 -4.5t20 -9.5q12 -18 12 -33q0 -21 -16 -37q-173 -173 -285.5 -255.5t-216.5 -127.5q-19 -8 -53 -8q-91 0 -201 76q-26 18 -39 38t-26 52q-6 16 -12 16q-5 0 -12 -8t-31 -41 q-34 -47 -85 -89t-104 -42q-22 0 -49 10q-126 51 -164 127q-35 69 -35 158zM246 244q0 -28 26.5 -62.5t49.5 -34.5q11 0 21.5 6.5t24.5 20.5l15 14q32 29 98 130t127.5 239t61.5 227q0 33 -6.5 45t-34.5 29q-23 13 -23 37q0 8 -10 8q-29 0 -61 -43q-66 -86 -110 -150.5 t-89 -146t-67.5 -161t-22.5 -158.5zM731 428q0 -6 4 -6q12 0 37 20q39 32 82.5 74.5t69.5 70.5t79.5 88.5t71.5 80.5q21 23 45.5 70.5t24.5 78.5q0 25 -19 25q-33 0 -69 -33q-124 -115 -205.5 -219.5t-114.5 -220.5q-6 -21 -6 -29z" />
<glyph unicode="&#x178;" horiz-adv-x="1028" d="M246 545q0 76 10 219q1 10 5.5 31t4.5 43q0 24 8.5 51t10.5 41q40 242 96 438q3 11 6 14.5t10 3.5q23 0 45 -3t48.5 -8.5t35.5 -6.5t18 -21.5t9 -37.5q0 -30 -20 -71t-27 -77q-92 -444 -92 -655q0 -7 10.5 -14t28.5 -7q33 0 61 17q135 84 231 180q104 104 224 338 q81 161 131 225q15 21 22 21q27 0 63.5 -11t59.5 -34q6 -6 14.5 -29t8.5 -31q0 -10 -13 -28q-215 -301 -356 -737.5t-221 -1032.5q-3 -22 -7.5 -39t-4.5 -22q0 -10 -2.5 -13.5t-10.5 -3.5q-6 0 -23 4t-30 6q-87 13 -96 54q-4 20 -4 61q0 40 7 80t20.5 91t17.5 71q1 3 22 123 q45 240 189 721l-17 -19q-44 -49 -114.5 -91t-157.5 -42q-13 0 -58 25t-81 57q-37 33 -59.5 66.5t-22.5 52.5zM623 1589q0 10 9 39.5t17 44.5q17 33 72 33q67 0 82 -27q22 -42 22 -65q0 -30 -23.5 -65t-23.5 -36q-1 -15 -29 -24.5t-51 -9.5q-24 0 -30 4q-15 9 -26.5 26.5 t-14.5 20.5q-4 4 -4 59zM997 1499q0 21 18.5 60.5t45.5 39.5q2 0 17.5 -1t23.5 -1q29 0 52.5 -9t27.5 -27q1 -5 11.5 -29t10.5 -37q0 -21 -4 -33q-8 -22 -23 -44t-28 -29q-18 -9 -59 -9q-36 0 -50 31q-2 6 -22.5 35t-20.5 53z" />
<glyph unicode="&#x2c6;" d="M561 1561q0 35 4 43q5 9 11.5 15t7.5 7q7 14 112 51l183 64q18 6 26 6q32 0 39 -14q2 -5 10 -9.5t15 -17.5l123 -211q22 -38 22 -51q0 -9 -5 -15t-13 -12.5t-11 -11.5q-10 -15 -16 -19t-20 -4q-5 0 -17.5 9t-19.5 20l-129 176q-7 12 -17 12q-6 0 -20 -6 q-185 -78 -215 -104q-2 -2 -10 -2q-11 0 -20.5 4.5t-18 11t-11.5 8.5q-10 6 -10 50z" />
<glyph unicode="&#x2dc;" d="M526 1622q0 6 5.5 16t13.5 13l129 47q49 18 92 18q27 0 46.5 -19t51.5 -67q33 -49 46 -60t38 -11q6 0 81 24.5t83 24.5q17 0 28 -12t13 -27q1 -5 4.5 -17.5t3.5 -25.5q0 -11 -16 -21q-142 -92 -201 -92q-61 0 -108 37q-22 17 -49.5 60.5t-34.5 48.5q-9 6 -19 6 q-30 0 -100 -43q-10 -6 -21 -6q-69 0 -69 30q0 10 -8.5 37t-8.5 39z" />
<glyph unicode="&#x2000;" horiz-adv-x="898" />
<glyph unicode="&#x2001;" horiz-adv-x="1796" />
<glyph unicode="&#x2002;" horiz-adv-x="898" />
<glyph unicode="&#x2003;" horiz-adv-x="1796" />
<glyph unicode="&#x2004;" horiz-adv-x="598" />
<glyph unicode="&#x2005;" horiz-adv-x="449" />
<glyph unicode="&#x2006;" horiz-adv-x="299" />
<glyph unicode="&#x2007;" horiz-adv-x="299" />
<glyph unicode="&#x2008;" horiz-adv-x="224" />
<glyph unicode="&#x2009;" horiz-adv-x="359" />
<glyph unicode="&#x200a;" horiz-adv-x="99" />
<glyph unicode="&#x2010;" horiz-adv-x="933" d="M242 594q0 15 6 27q7 12 31 18t43 6q62 0 173 -4t171 -4q22 0 78.5 4t74.5 4q35 0 55.5 -10t20.5 -27q0 -49 -5 -70t-24 -40q-5 -5 -22 -8t-43.5 -7t-46.5 -10t-144 -6q-73 0 -186 8t-123 8q-24 0 -47 58q-12 32 -12 53z" />
<glyph unicode="&#x2011;" horiz-adv-x="933" d="M242 594q0 15 6 27q7 12 31 18t43 6q62 0 173 -4t171 -4q22 0 78.5 4t74.5 4q35 0 55.5 -10t20.5 -27q0 -49 -5 -70t-24 -40q-5 -5 -22 -8t-43.5 -7t-46.5 -10t-144 -6q-73 0 -186 8t-123 8q-24 0 -47 58q-12 32 -12 53z" />
<glyph unicode="&#x2012;" horiz-adv-x="933" d="M242 594q0 15 6 27q7 12 31 18t43 6q62 0 173 -4t171 -4q22 0 78.5 4t74.5 4q35 0 55.5 -10t20.5 -27q0 -49 -5 -70t-24 -40q-5 -5 -22 -8t-43.5 -7t-46.5 -10t-144 -6q-73 0 -186 8t-123 8q-24 0 -47 58q-12 32 -12 53z" />
<glyph unicode="&#x2013;" horiz-adv-x="1208" d="M246 614q0 14 17.5 23.5t51.5 9.5q10 0 53.5 -4t116.5 -8t154 -4q65 0 151.5 4t129.5 4q41 0 75.5 5t53.5 5q46 0 77 -31q7 -7 7 -30q0 -40 -17 -86q-6 -15 -22 -15h-50q-77 0 -242 -7t-249 -7q-223 0 -262 16q-19 8 -32 43t-13 82z" />
<glyph unicode="&#x2014;" horiz-adv-x="1792" d="M246 612q0 31 61 31h1350q17 0 25.5 -5t27.5 -24q6 -6 6 -28q0 -49 -16 -92q-4 -11 -31 -11h-1356q-29 0 -39 13q-28 35 -28 116z" />
<glyph unicode="&#x2018;" horiz-adv-x="393" d="M266 846q0 8 13 31l127 221q98 179 98 180q14 39 49 39q2 0 11 -1t16 -1q12 0 31 -6t30 -17q23 -23 23 -71q0 -26 -12 -48.5t-42.5 -64.5t-52.5 -78l-127 -215q-8 -14 -29 -23.5t-36 -9.5q-17 0 -31.5 3t-24.5 7.5t-12 4.5q-13 3 -22 17t-9 32z" />
<glyph unicode="&#x2019;" horiz-adv-x="393" d="M266 846q0 8 13 31l127 221q98 179 98 180q14 39 49 39q2 0 11 -1t16 -1q12 0 31 -6t30 -17q23 -23 23 -71q0 -26 -12 -48.5t-42.5 -64.5t-52.5 -78l-127 -215q-8 -14 -29 -23.5t-36 -9.5q-17 0 -31.5 3t-24.5 7.5t-12 4.5q-13 3 -22 17t-9 32z" />
<glyph unicode="&#x201a;" horiz-adv-x="393" d="M-98 -250q0 9 12 31l127 221q98 179 98 180q14 39 49 39q2 0 11 -1t16 -1q39 0 61 -22q23 -23 23 -72q0 -26 -11.5 -48t-42.5 -64.5t-52 -78.5l-127 -215q-8 -14 -29 -23t-37 -9q-17 0 -31.5 3t-24.5 7t-12 4q-13 3 -21.5 17t-8.5 32z" />
<glyph unicode="&#x201c;" horiz-adv-x="696" d="M285 897q0 5 2.5 8.5t9.5 11.5t14 21q99 167 131 225q46 83 82 170q18 43 56 43t71 -41q4 -5 14 -15t15.5 -18t5.5 -16q0 -25 -6 -33q-59 -90 -102 -174l-107 -200q-8 -16 -33.5 -28.5t-40.5 -12.5q-13 0 -41 8q-21 6 -39 6q-10 0 -21 17.5t-11 27.5zM575 838q0 16 13 39 l127 221q91 158 102 188q7 19 17.5 25t29.5 6q61 0 86 -25q23 -23 23 -69q0 -26 -16 -56t-47 -72.5t-44 -64.5l-125 -211q-22 -37 -69 -37q-13 0 -26.5 3t-24.5 7t-15 5q-12 1 -21.5 15.5t-9.5 25.5z" />
<glyph unicode="&#x201d;" horiz-adv-x="696" d="M285 897q0 5 2.5 8.5t9.5 11.5t14 21q99 167 131 225q46 83 82 170q18 43 56 43t71 -41q4 -5 14 -15t15.5 -18t5.5 -16q0 -25 -6 -33q-59 -90 -102 -174l-107 -200q-8 -16 -33.5 -28.5t-40.5 -12.5q-13 0 -41 8q-21 6 -39 6q-10 0 -21 17.5t-11 27.5zM575 838q0 16 13 39 l127 221q91 158 102 188q7 19 17.5 25t29.5 6q61 0 86 -25q23 -23 23 -69q0 -26 -16 -56t-47 -72.5t-44 -64.5l-125 -211q-22 -37 -69 -37q-13 0 -26.5 3t-24.5 7t-15 5q-12 1 -21.5 15.5t-9.5 25.5z" />
<glyph unicode="&#x201e;" horiz-adv-x="696" d="M-88 -213q0 5 2.5 8.5t10 11.5t14.5 21q99 167 131 225q46 83 82 170q18 43 55 43q39 0 72 -41q4 -5 13.5 -15t15 -18t5.5 -16q0 -25 -6 -33q-59 -90 -102 -174l-107 -200q-8 -16 -33 -28.5t-40 -12.5q-13 0 -41 8q-21 6 -39 6q-10 0 -21.5 17.5t-11.5 27.5zM203 -272 q0 17 12 39l127 221q91 158 102 188q11 31 48 31q61 0 86 -25q22 -22 22 -69q0 -26 -15.5 -56t-46.5 -72.5t-44 -64.5l-125 -211q-22 -37 -70 -37q-13 0 -26.5 3t-24.5 7t-15 5q-12 1 -21 15.5t-9 25.5z" />
<glyph unicode="&#x2022;" horiz-adv-x="1003" d="M143 379q0 65 22.5 144.5t67 158.5t102 145t135 107t159.5 41q89 0 146.5 -22t98.5 -81q4 -6 42.5 -48t58.5 -85q33 -70 33 -135q0 -77 -23.5 -158t-70 -155.5t-109.5 -133t-150 -93.5t-184 -35q-46 0 -100.5 18t-89.5 45q-67 53 -97 97.5t-37 123.5q-4 46 -4 66z" />
<glyph unicode="&#x2026;" horiz-adv-x="1454" d="M123 90q0 9 3 31.5t3 25.5q1 9 14.5 27.5t14.5 28.5q3 31 20 51q13 16 76 16q26 0 55 -25.5t39 -29.5q21 -9 21 -76q0 -46 -18 -89.5t-42 -43.5q-2 0 -29.5 -9t-46.5 -9q-32 0 -54 17t-48 54q-8 11 -8 31zM584 115q0 9 2 22.5t9 39.5t26.5 50.5t48.5 38.5q16 8 35 8 q81 0 131 -90q6 -10 6 -30q0 -29 -17 -60q-2 -3 -16.5 -24.5t-15.5 -28.5q-1 -11 -8 -19t-27 -22q-11 -8 -27 -8q-32 0 -76 14q-55 19 -65 76q-6 30 -6 33zM1051 154q0 40 8 59q4 9 11 17.5t16 17t12 12.5q9 12 45 12q107 0 139 -75q12 -28 12 -58q0 -66 -59 -133 q-7 -7 -29 -12.5t-47 -5.5q-30 0 -61 20.5t-41 50.5q-4 12 -4 31q0 1 -1 20.5t-1 43.5z" />
<glyph unicode="&#x202f;" horiz-adv-x="359" />
<glyph unicode="&#x2039;" horiz-adv-x="522" d="M205 649q0 30 22 56l158 172q61 66 77.5 81t29.5 15q28 0 38 -5.5t13 -17.5q2 -10 11 -20t13 -17q19 -33 19 -51q0 -10 -4 -17.5t-23.5 -26t-58.5 -48.5q-29 -22 -63.5 -55t-49.5 -45q-12 -9 -12 -27q0 -10 6 -25q61 -133 76 -151q16 -18 16 -59q0 -37 -6 -46 q-15 -22 -30.5 -31t-45.5 -9q-8 0 -20 13.5t-19 31.5q-3 6 -25.5 39t-58.5 85t-51 74q-8 11 -8 47q0 9 -2 22t-2 15z" />
<glyph unicode="&#x203a;" horiz-adv-x="522" d="M188 393q0 10 11 23l190 207q14 14 14 28t-8 25q-13 19 -26 53q-4 12 -15.5 28.5t-21.5 39.5q-4 10 -23.5 35.5t-19.5 33.5q0 14 7.5 23t26 25.5t33.5 35.5q16 21 52 21q18 0 26 -4q10 -5 18.5 -19t36.5 -71l78 -160q8 -18 8 -68q0 -13 -12 -38t-33 -46l-204 -205 q-24 -24 -40 -30t-48 -6q-10 0 -23.5 16.5t-13.5 32.5q0 2 -6.5 7t-6.5 13z" />
<glyph unicode="&#x205f;" horiz-adv-x="449" />
<glyph unicode="&#x20ac;" horiz-adv-x="1036" d="M-2 582q0 5 6 12t8 14q6 17 37 17q8 0 28.5 -3.5t56 -8t73.5 -7.5l47 107q-147 7 -186 20q-35 9 -35 115q0 9 18 31q10 12 31 12q17 0 33 -4q101 -23 217 -23q187 329 446 482q28 11 106 22.5t134 11.5q48 0 88 -18q24 -12 29 -19q7 -10 30 -31.5t42 -45.5t24 -49 q2 -10 2 -23q0 -16 -16 -57q0 -37 -36 -92t-36 -89q0 -16 -23 -27t-41 -11q-11 0 -59 8l-17 10q-17 11 -34 25.5t-17 25.5q0 43 34.5 92t37.5 74q1 5 13 26t12 35q0 31 -19 31q-51 0 -127 -27t-117 -55q-49 -45 -131.5 -142t-99.5 -138q167 18 186 18q31 0 44 -3.5t26 -16.5 q8 -8 8 -35q0 -41 -18 -82q-8 -16 -33 -16h-31q-45 0 -100 -7l-184 -22q-4 -9 -25.5 -51t-32.5 -66q79 5 189 23q69 10 123 10q40 0 59 -17q23 -18 23 -32q-1 -14 -4.5 -29t-9.5 -34t-9 -29q-5 -15 -18 -15q-8 0 -25 2t-25 2q-29 0 -41 -2q-169 -28 -305 -28h-16 q-18 -52 -39 -121q-10 -34 -10 -119q0 -14 8.5 -39.5t17.5 -32.5q9 -8 23.5 -21t22 -20t19 -12.5t23.5 -5.5q173 0 476 258q27 27 39 34t38 7h33q47 0 70 -39q12 -19 12 -33q0 -5 -3 -8t-11 -10t-13 -12q-26 -22 -84 -73t-89 -77.5t-86.5 -65.5t-99 -59t-103 -35.5 t-119.5 -15.5q-36 0 -85 8.5t-75 20.5q-54 26 -107.5 72t-58.5 85q-10 78 -10 125q0 90 23 191q-83 3 -93 10q-20 14 -39.5 46t-19.5 71z" />
<glyph unicode="&#x2122;" horiz-adv-x="1589" d="M319 1239q0 20 8 30t14.5 11.5t16.5 1.5q4 0 14.5 -2.5t40.5 -5t81 -2.5q87 0 225 24.5t190 24.5q164 0 164 -33q0 -12 -3 -29t-3 -30q0 -9 -5 -16.5t-16 -16.5t-12 -10q-8 -8 -57 -8q-2 0 -29 9t-71 9q-29 0 -45 -2.5t-44.5 -8.5t-70.5 -11q2 -2 2 -23q0 -9 -8 -25 q-52 -87 -112.5 -226.5t-90.5 -256.5q-4 -46 -4 -82q0 -6 1 -20t1 -21q0 -53 -47 -53q-30 0 -90 33q-6 3 -14.5 16.5t-8.5 22.5q0 7 13 58.5t38.5 139t53.5 166.5q48 126 106 240q0 8 -10 8q-6 -1 -31.5 -3.5t-50 -4.5t-43.5 -2q-71 0 -96 28q-7 7 -7 70zM795 543 q0 19 5.5 42t11 38t16 38.5t12.5 28.5q59 147 162.5 328t152.5 293q4 10 19 10q4 0 17 3t30 3q21 0 28 -2.5t12.5 -9t16.5 -10.5q12 -5 12 -35q0 -14 -35 -131q-3 -11 -5 -34t-5 -38q-10 -55 -10 -227q0 -19 8 -19q5 0 8 6q49 62 138.5 152.5t163.5 162t87 87.5 q8 10 18.5 25.5t15.5 22.5t14.5 13t21.5 6q20 0 29.5 -5t13.5 -5t14.5 -4t22.5 -16t12 -29q0 -11 -12 -29q-122 -184 -194 -415t-72 -355q0 -10 -8 -17t-19 -7q-10 0 -22.5 3t-30.5 3q-21 0 -55 24q-11 9 -11 19q0 29 2.5 50t5.5 34.5t10 42t13 59.5q5 27 29 111.5t28 103.5 q0 4 -4 4q-2 0 -10 -4q-136 -140 -156 -178q-7 -13 -17 -16.5t-30 -3.5q-11 0 -25 3t-30 3q-36 0 -59 41q-25 40 -25 108q0 13 3 54.5t3 44.5q0 8 -4 8q-1 0 -4 -6q-42 -64 -75.5 -135t-43.5 -105q-6 -18 -21 -55.5t-22.5 -64t-7.5 -52.5q0 -7 -14 -17t-19 -10 q-13 0 -21.5 -7t-13.5 -7q-6 0 -27 12.5t-24 12.5q-6 0 -15 17.5t-9 31.5z" />
<glyph unicode="&#x25fc;" horiz-adv-x="921" d="M0 0v922h922v-922h-922z" />
<glyph unicode="&#xfb01;" horiz-adv-x="999" d="M29 -283q0 35 8.5 71t24.5 82.5t22 66.5q17 58 20 81q9 54 85.5 286.5t76.5 256.5q0 8 -4 14q-10 17 -47.5 54.5t-46.5 64.5q-12 32 -12 49q0 15 9.5 28t18.5 13q14 0 55 -14t62 -14q36 0 47 28q78 185 115 271t95.5 204t117.5 214q11 19 45 32t59 13q45 0 70 -35 q16 -22 16 -41q0 -22 -29 -61.5t-32 -57.5q-3 -20 -8 -33q-21 -43 -70 -105t-92.5 -124.5t-59.5 -120.5q-7 -28 -22 -61q-2 -4 -11.5 -24t-16.5 -35.5t-13 -34t-6 -27.5q0 -10 14 -10q65 0 199 53q100 40 141.5 64.5t59.5 60.5q22 44 45 57.5t65 13.5q39 0 60 -16 q16 -13 16 -33q0 -48 -21.5 -89t-57 -88t-52.5 -83q-40 -84 -121 -291q-49 -129 -49 -200q0 -66 37 -66q33 0 59 12.5t90 57.5q40 29 56.5 37t39.5 8q34 0 52 -15q12 -10 12 -28q0 -11 -4 -20t-9.5 -15.5t-19.5 -20.5l-84 -77q-104 -99 -211 -99q-44 0 -89.5 51t-63.5 111 q-11 37 -11 86q0 74 33 166q41 126 105 268q14 32 14 41q0 6 -6 6q-5 0 -43 -16q-79 -33 -178 -61q-97 -28 -125 -56q-14 -14 -23 -37q-10 -30 -45 -131t-48.5 -141t-40.5 -128t-39.5 -145.5t-26.5 -136.5t-21 -153q-1 -19 -17.5 -35.5t-39.5 -24.5q-10 -3 -25 -9 t-25.5 -9.5t-13.5 -3.5q-9 0 -16.5 2.5t-11.5 5.5t-11 8.5t-12 8.5t-9.5 29.5t-4.5 49.5zM1081 1321q0 51 27 86q28 35 100 35q25 0 50.5 -7.5t35.5 -19.5q25 -29 25 -67q0 -25 -10 -37q-83 -101 -131 -101q-28 0 -50.5 13t-31.5 28q-15 30 -15 70z" />
<glyph unicode="&#xfb02;" horiz-adv-x="1024" d="M29 -283q0 35 8.5 71t24.5 82.5t22 66.5q17 58 20 81q9 54 85.5 286.5t76.5 256.5q0 8 -4 14q-10 17 -47.5 54.5t-46.5 64.5q-12 32 -12 49q0 15 9.5 28t18.5 13q14 0 55 -14t62 -14q36 0 47 28q78 185 115 271t95.5 204t117.5 214q11 19 42 29.5t62 10.5q38 0 62 -23.5 t24 -47.5q0 -45 -18.5 -86.5t-73.5 -108.5q-57 -68 -114.5 -158.5t-75.5 -138.5q-2 -6 -31 -71q-2 -4 -11.5 -24t-16.5 -35.5t-13 -34t-6 -27.5q0 -10 10 -10q74 0 209 55q45 18 73 35t60 46t69 83t83 127.5t118 199.5q7 11 30 70t49 94t61 35q15 0 35.5 2t31.5 2 q37 0 54 -22q16 -24 16 -58q0 -36 -21 -71q-44 -72 -176.5 -272t-211.5 -339.5t-134 -283.5q-7 -18 -25 -60t-27 -65.5t-17.5 -59t-8.5 -67.5q0 -39 11 -76q8 -25 39 -25q21 0 38 11q31 21 72 63t71.5 76t69 61t70.5 27q18 0 44 -12.5t26 -34.5q0 -12 -5 -20.5t-17.5 -20 t-18.5 -17.5q-22 -24 -59.5 -70t-63 -74.5t-61.5 -60.5t-75.5 -47.5t-84.5 -15.5q-9 0 -37 9.5t-64.5 26.5t-67.5 50t-38 72q-6 35 -6 69q0 23 4 49t8 45t15.5 52t17 48t22 57t21.5 55q12 31 55 131q25 55 25 59q0 6 -7 6q-4 0 -34 -12q-53 -22 -129 -45q-82 -27 -115 -39.5 t-53 -28.5q-13 -10 -19 -26q-6 -17 -45 -130.5t-49.5 -145.5t-40 -128.5t-41 -150.5t-26 -135.5t-21.5 -155.5q-2 -19 -18 -36.5t-39 -23.5q-10 -2 -24.5 -8t-25.5 -10t-14 -4q-9 0 -16.5 2.5t-11.5 5.5t-11 8.5t-12 8.5t-9.5 29.5t-4.5 49.5z" />
</font>
</defs>
</svg>
