<svg viewBox="0 0 120 40" xmlns="http://www.w3.org/2000/svg"><title>Telefonica</title><path d="M36.218 18.188c-1.75 2.536-4.164 4.83-6.276 4.83-.845 0-1.268-.482-1.268-1.51 0-.603.18-1.508.242-1.93 2.052-.967 4.044-2.114 5.853-3.986.965-1.086 1.69-2.174 1.69-3.26 0-1.027-.604-1.63-1.932-1.63-1.93 0-4.224 1.268-5.673 2.898-1.93 2.113-3.44 5.072-3.5 7.79 0 1.87.906 3.38 3.32 3.32 2.594-.12 5.19-2.114 6.457-3.563-.12.604-.24 1.208-.24 1.69 0 1.692.843 2.838 2.473 3.382l.3-.183c-.12-.482-.12-.905-.12-1.448.12-1.63.786-3.504 1.69-5.918 1.81-4.59 4.467-9.782 5.673-12.86l-2.836.482c-.362.12-.664.423-.785.785-1.327 2.776-2.715 5.856-4.465 9.78-.18.423-.362.846-.604 1.328zm-2.595-6.098c.422 0 .603.302.603.665 0 1.81-2.172 4.045-5.008 5.736.724-2.777 2.715-6.4 4.405-6.4zm47.375 10.626c.06 1.27.844 2.054 2.353 1.993 1.57 0 3.2-.966 4.528-2.235.3 1.33 1.266 2.355 3.26 2.295 2.11-.06 4.102-1.39 5.49-2.898 0 .12 0 .24-.06.422.06 1.39.784 2.415 2.353 2.415 1.75 0 3.743-1.27 5.252-3.502l.06.06c-.12.483-.302 1.388-.302 1.992 0 1.69.966 2.657 2.354 2.96l.3-.183c-.48-1.207.243-4.226.545-5.252 1.025-3.32 2.654-7.125 3.62-9.117-.422-.363-1.45-.604-2.535-.664-3.56-.12-7.182 1.328-9.837 6.037-.423.786-.966 1.692-1.327 2.718-.36.484-.723.906-.905 1.087-.905.906-2.293 2.114-3.68 2.114-.786 0-1.208-.545-1.208-1.51.06-3.744 3.32-9.42 5.552-9.42.602 0 .904.24.844.785.06.603-.362 1.51-.965 2.052l.24.243c1.51-.604 2.897-1.63 2.897-2.718 0-1.328-1.45-1.51-2.776-1.51-1.69 0-3.922.846-5.672 2.778-2.173 2.355-3.26 5.253-3.5 7.245-.966 1.208-2.113 1.993-2.837 1.993-.42 0-.723-.182-.723-.664 0-.362.18-1.148.603-2.174.966-2.415 2.354-5.434 4.043-8.936 0 0-2.594.423-2.956.484-.423.12-.725.362-.906.784-1.085 2.295-2.413 5.072-3.258 7.125-.482 1.268-.784 2.476-.844 3.2zm24.44-10.203c.846-.362 1.57-.423 2.113-.242-.18.424-1.206 2.417-1.99 4.288-1.207 2.838-3.078 5.676-4.828 6.158-.543.122-.905-.12-.905-.663.06-2.596 2.836-8.212 5.612-9.54zM44.366 13.6c-1.93 2.113-3.44 5.072-3.5 7.79 0 1.81.965 3.38 3.44 3.32 2.655-.12 5.13-1.69 7.182-3.865-.483 1.39-.966 2.596-1.208 3.32-.785 1.933-1.39 3.503-2.595 4.408l.12.242c3.56.18 4.89-2.294 6.277-6.28 1.508-4.105 2.715-7.607 3.68-10.022 1.51 0 3.743.06 4.95-.18-3.2 1.388-5.915 6.46-5.613 9.84.18 1.45 1.025 2.476 2.956 2.476 3.62.06 6.7-4.288 7.906-7.186.664-1.63 1.086-3.02 1.147-4.408.904-.18 1.75-.362 2.11-.362.846-.12.665.724.424 1.45-1.45 4.165-4.044 10.263-4.105 10.324h2.896c1.208-2.596 1.992-4.226 2.958-5.977 1.206-2.053 3.862-5.494 4.888-5.494.423 0 .482.24.423.604-.182 1.388-3.622 6.762-3.56 9.42.06 1.75.964 2.776 2.533 3.14l.302-.183c-.18-.362-.18-.845-.24-1.388 0-1.752 1.447-4.832 1.99-6.04.906-1.932 2.475-4.648 2.353-6.158 0-.724-.603-1.388-1.87-1.388-2.293 0-4.647 2.233-6.578 5.313l-.06-.06c.784-1.75 1.388-3.442 1.388-4.167-.06-.724-.423-1.026-1.328-1.026-.604 0-1.448.24-2.294.483-1.085.242-2.352.604-3.68.905-.784.06-1.086.182-1.086.544.18 4.59-2.957 10.083-5.07 10.083-.905 0-1.146-.665-1.146-1.57 0-3.2 2.656-8.574 5.25-9.42.242-.12.423-.18.604-.18l.302-.846c-.544.06-1.81.12-2.535.12h-5.674c1.51-3.562 3.62-5.856 6.7-5.977 1.93-.12 3.197.604 3.258 1.75.12.907-.12 1.63-.906 2.416l.242.242c1.69-.846 2.836-2.174 2.836-3.08 0-1.448-1.69-2.354-4.466-2.294-3.44 0-7.785.786-10.802 7.065-.845.12-1.69.484-2.354 1.208l.12.242c.484-.18 1.088-.242 1.69-.18-.36 1.025-1.206 3.198-2.05 5.493-2.536 3.38-5.07 4.95-6.94 4.95-1.027 0-1.45-.543-1.45-1.51 0-.603.12-1.508.242-1.93 1.99-.967 4.043-2.114 5.793-3.986 1.025-1.086 1.69-2.174 1.75-3.26 0-1.027-.664-1.63-1.992-1.63-1.87 0-4.164 1.268-5.613 2.898zm4.768-1.51c.422 0 .603.302.603.665 0 1.81-2.232 4.045-5.01 5.736.726-2.777 2.657-6.4 4.407-6.4zm39.89-3.2c.786 0 1.63-.725 1.75-1.63.243-.906-.3-1.57-1.085-1.57-.785 0-1.63.724-1.81 1.63-.12.907.36 1.57 1.146 1.57zM60.36 34.43C31.39 34.37 2 34.732 2 35.215c0 .362 29.39.725 58.358.785 28.967-.06 58.418-.423 58.418-.785 0-.483-29.45-.845-58.418-.785zm-46.77-20.71l.18-.12c-.242-.483-.362-1.208-.362-1.63.12-3.805 4.104-5.978 10.32-5.917 0 0 1.57-.06 3.44 0-1.992 1.146-3.682 2.656-4.95 5.615-.542 1.207-3.197 7.97-4.284 11.048-1.328 3.563-2.172 5.194-3.26 5.857l.182.303c3.018.18 4.768-1.39 5.915-4.167 1.085-2.717 2.533-6.944 3.257-8.815 2.294-6.04 3.32-8.635 5.13-9.842 2.535-.06 5.01-.06 5.01 0 2.775-.12 3.922-.785 4.767-1.872l-.18-.18c-.665.302-2.173.362-3.44.422H22.94c-6.94 0-11.224 2.235-11.948 5.676-.302 1.63.603 3.442 2.595 3.623z" fill="#FFF" fill-rule="evenodd"/></svg>
