<svg viewBox="0 0 115 35" xmlns="http://www.w3.org/2000/svg"><title>PCI - Light</title><g fill="#FFF" fill-rule="evenodd"><path d="M111.9 11.36h.373l.89 2.173.892-2.173h.345v2.47h-.24v-2.226h-.008l-.885 2.226h-.206l-.913-2.226h-.006v2.226h-.24v-2.47zm-1.335.215h-.728v-.212h1.7v.212h-.728v2.257h-.245v-2.257zm3.366 7.695h.446v5.306h-.445V19.27zm-1.853.142h.446v.594h-.446v-.594zm0 1.556h.446v3.61h-.446v-3.61zm-1.075.48c-.24-.105-.53-.183-.77-.183-.87 0-1.36.63-1.36 1.507 0 .82.496 1.507 1.31 1.507.282 0 .544-.064.813-.164l.043.418c-.305.106-.588.128-.927.128-1.16 0-1.726-.885-1.726-1.89 0-1.11.715-1.89 1.783-1.89.432 0 .743.1.87.143l-.035.424zm-6.565.37c0-.277 0-.56-.03-.85h.433v.644h.014c.15-.326.418-.73 1.168-.73.89 0 1.23.595 1.23 1.388v2.306h-.445v-2.193c0-.68-.24-1.118-.856-1.118-.813 0-1.068.715-1.068 1.316v1.996h-.445v-2.76zm-1.4 1.91c0 .275 0 .558.027.848h-.43v-.643h-.015c-.15.325-.42.73-1.17.73-.89 0-1.23-.596-1.23-1.388v-2.307h.446v2.193c0 .68.24 1.12.856 1.12.814 0 1.068-.715 1.068-1.317v-1.995h.446v2.76zm-5.625-2.845c1.167 0 1.684.906 1.684 1.89 0 .983-.517 1.89-1.684 1.89-1.168 0-1.684-.907-1.684-1.89 0-.984.516-1.89 1.684-1.89zm0 3.396c.778 0 1.196-.673 1.196-1.508s-.418-1.507-1.196-1.507-1.196.672-1.196 1.507c0 .835.418 1.507 1.196 1.507zm-2.97-4.09c-.313-.163-.758-.212-1.105-.212-1.28 0-2.002.905-2.002 2.13 0 1.244.7 2.13 2.002 2.13.326 0 .82-.044 1.104-.213l.03.424c-.27.162-.822.212-1.133.212-1.557 0-2.49-1.027-2.49-2.555 0-1.5.962-2.554 2.49-2.554.29 0 .877.05 1.132.184l-.03.453zm-9 3.863c.27.134.594.226.94.226.425 0 .8-.234.8-.645 0-.856-1.733-.72-1.733-1.768 0-.715.58-.984 1.173-.984.19 0 .573.043.892.163l-.043.39c-.233-.107-.552-.17-.8-.17-.46 0-.778.14-.778.6 0 .673 1.776.588 1.776 1.77 0 .764-.714 1.026-1.26 1.026-.346 0-.693-.043-1.01-.17l.042-.44zm-1.082.523h-.446v-.573H83.9c-.24.46-.61.66-1.125.66-.99 0-1.486-.823-1.486-1.89 0-1.098.423-1.89 1.485-1.89.707 0 1.06.517 1.124.693h.014V19.27h.446v5.306zm-1.515-.297c.793 0 1.07-.85 1.07-1.508s-.277-1.507-1.07-1.507c-.848 0-1.068.807-1.068 1.507 0 .7.22 1.507 1.068 1.507zm-3.857-2.506c0-.396 0-.544-.028-.806h.446v.693h.014c.163-.402.467-.777.927-.777.106 0 .233.02.31.043v.467c-.09-.03-.21-.043-.324-.043-.708 0-.9.793-.9 1.443v1.783h-.445v-2.802zm-1.747 2.222h-.013c-.198.432-.7.666-1.146.666-1.025 0-1.188-.694-1.188-1.02 0-1.21 1.288-1.266 2.222-1.266h.085v-.184c0-.616-.22-.927-.822-.927-.375 0-.73.085-1.06.297v-.43c.275-.136.742-.25 1.06-.25.892 0 1.267.404 1.267 1.345v1.592c0 .29 0 .51.035.756h-.44v-.58zm-.04-1.238h-.13c-.77 0-1.69.078-1.69.87 0 .474.34.65.75.65 1.047 0 1.07-.91 1.07-1.3v-.22zm-3.39 1.818h-.446v-.573h-.014c-.24.46-.608.66-1.125.66-.99 0-1.485-.823-1.485-1.89 0-1.098.424-1.89 1.485-1.89.708 0 1.06.517 1.125.693h.014V19.27h.446v5.306zm-1.514-.297c.792 0 1.068-.85 1.068-1.508s-.276-1.507-1.068-1.507c-.85 0-1.068.807-1.068 1.507 0 .7.22 1.507 1.068 1.507zm-5.56-2.463c0-.276 0-.56-.03-.85h.433v.645h.013c.148-.326.417-.73 1.167-.73.892 0 1.23.595 1.23 1.388v2.306h-.444v-2.193c0-.68-.24-1.118-.857-1.118-.814 0-1.07.715-1.07 1.316v1.996h-.445v-2.76zm-1.748 2.18h-.014c-.198.43-.7.665-1.146.665-1.026 0-1.188-.694-1.188-1.02 0-1.21 1.287-1.266 2.22-1.266h.086v-.184c0-.616-.22-.927-.82-.927-.376 0-.73.085-1.062.297v-.43c.276-.136.743-.25 1.06-.25.893 0 1.268.404 1.268 1.345v1.592c0 .29 0 .51.035.756h-.44v-.58zm-.042-1.24h-.127c-.773 0-1.693.08-1.693.87 0 .475.34.652.75.652 1.047 0 1.07-.913 1.07-1.302v-.22zm-3.113-1.407h-.82v2.335c0 .326.12.594.48.594.17 0 .283-.036.41-.086l.03.37c-.107.04-.327.098-.546.098-.792 0-.82-.546-.82-1.204V21.35h-.708v-.382h.706v-.87l.446-.156v1.026h.82v.382zm-5.462 2.597c.29.184.63.29 1.09.29.61 0 1.112-.31 1.112-1.012 0-.97-2.264-1.09-2.264-2.384 0-.792.693-1.287 1.563-1.287.242 0 .63.036.97.163l-.077.445c-.22-.12-.566-.182-.9-.182-.508 0-1.067.212-1.067.848 0 .99 2.264.998 2.264 2.442 0 .997-.856 1.394-1.62 1.394-.482 0-.857-.1-1.118-.213l.05-.503zm23.574-6.918c-.17.494-.425.99-.927.99-.163 0-.333-.022-.48-.057l.04-.382c.086.03.17.057.334.057.382 0 .51-.318.652-.785l.092-.318-1.28-3.65h.487l1.013 3.013-.007-.007h.014l1.04-3.007h.467l-1.443 4.146zm-2.158-3.765h-.82V15.6c0 .325.12.594.48.594.17 0 .283-.035.41-.085l.03.367c-.107.043-.327.1-.546.1-.792 0-.82-.546-.82-1.204v-2.108h-.708v-.382h.707v-.87l.445-.156v1.026h.82v.382zm-3.41-1.94h.446v.596h-.446v-.594zm0 1.558h.446v3.61h-.446v-3.61zm-2.64.806c0-.397 0-.545-.027-.807h.444v.693h.015c.162-.403.466-.778.926-.778.106 0 .233.02.31.043v.468c-.09-.03-.21-.043-.325-.043-.706 0-.897.792-.897 1.443v1.783h-.446v-2.8zm-1.4 1.952c0 .276 0 .56.03.85h-.433v-.644h-.014c-.15.325-.418.728-1.168.728-.89 0-1.23-.594-1.23-1.386v-2.307h.444v2.193c0 .68.24 1.118.857 1.118.813 0 1.068-.714 1.068-1.316v-1.995h.447v2.76zm-3.89-2.278c-.24-.106-.53-.184-.772-.184-.87 0-1.358.63-1.358 1.507 0 .82.495 1.507 1.31 1.507.282 0 .543-.063.813-.163l.04.42c-.303.105-.586.126-.926.126-1.16 0-1.726-.884-1.726-1.89 0-1.11.714-1.888 1.783-1.888.432 0 .744.1.87.142l-.034.424zm-3.75 3.014c-.31.127-.715.198-1.047.198-1.197 0-1.642-.806-1.642-1.89 0-1.103.608-1.888 1.52-1.888 1.02 0 1.437.82 1.437 1.79v.227h-2.47c0 .764.41 1.38 1.19 1.38.325 0 .8-.135 1.01-.27v.453zm-.22-1.946c0-.63-.254-1.252-.92-1.252-.657 0-1.06.658-1.06 1.252h1.98zm-6.105 1.43c.29.184.63.29 1.09.29.61 0 1.112-.312 1.112-1.012 0-.97-2.264-1.09-2.264-2.384 0-.793.693-1.288 1.563-1.288.242 0 .63.035.97.163l-.077.446c-.22-.12-.566-.183-.9-.183-.508 0-1.067.212-1.067.848 0 .992 2.264 1 2.264 2.443 0 .997-.856 1.393-1.62 1.393-.482 0-.857-.1-1.118-.212l.05-.502zM42.5.01l9.91 21.925L11.865 35 0 2.712 42.5.01M38.87 10.93h5.13v13.942h-5.13v-13.94zm5.54-4.142c0 1.692-1.37 3.063-3.06 3.063-1.693 0-3.065-1.37-3.065-3.062 0-1.69 1.372-3.063 3.064-3.063s3.063 1.372 3.063 3.063m-8.15 8.506c-.927-1-2.435-1.22-3.99-1.22-2.785 0-4.03 1.702-4.03 3.865 0 2.2 1.27 3.79 4.1 3.79 1.485 0 2.97-.07 3.92-.976v3.84c-1.507.37-2.598.648-4.013.648-2.437 0-4.757-.74-6.567-2.052-1.927-1.386-2.81-3.2-2.81-5.27 0-1.904.907-3.735 2.578-5.103 1.718-1.405 4.2-2.256 6.66-2.256 1.462 0 2.81.26 4.154.704v4.03M7.982 10.93h7.196c3.688 0 6.24 1.388 6.24 4.587 0 3.29-2.187 4.733-6.08 4.733H12.81v4.623H7.982V10.93zm5.19 6.4h.753c1.616 0 2.664-.002 2.72-1.702.043-1.278-.99-1.775-2.72-1.775h-.752v3.476z"/></g></svg>