<svg viewBox="0 0 185 40" xmlns="http://www.w3.org/2000/svg"><title>Movistar</title><g fill="none" fill-rule="evenodd"><path d="M83.748 12.535h-.86c-2.476 0-4.12.66-4.91 1.632h-.02c-.794-.973-2.54-1.632-5.013-1.632h-.882c-2.79 0-5.076.972-5.992 2.958-.4.856-.525 2.002-.525 3.243V29.1c0 .23.135.386.37.386h2.803c.227 0 .366-.156.366-.386l.006-8.63c0-1.238.03-2.134.09-2.687.16-1.448 1.238-2.156 3.285-2.156h.235c2.05 0 3.175.708 3.333 2.156.065.553.094 1.45.094 2.687v8.64c0 .228.137.376.37.376h2.817c.23 0 .366-.182.366-.405v-8.61c0-1.238.03-2.134.09-2.687.167-1.448 1.284-2.156 3.34-2.156h.234c2.048 0 3.12.708 3.285 2.156.063.553.084 1.45.084 2.687v8.64c0 .234.137.376.375.376H89.9c.23 0 .358-.182.358-.405V18.737c0-1.24-.127-2.387-.52-3.243-.915-1.986-3.21-2.958-5.992-2.958zm17.36 0h-.442c-3.7 0-5.983 1.15-6.85 4.04-.34 1.13-.527 2.433-.527 4.59 0 2.15.187 3.452.527 4.583.866 2.89 3.148 4.04 6.85 4.04h.442c3.7 0 5.98-1.15 6.844-4.04.343-1.13.53-2.433.53-4.583 0-2.157-.187-3.46-.53-4.59-.863-2.89-3.144-4.04-6.845-4.04zm3.648 11.054c-.277 2.695-1.638 3.115-3.826 3.115h-.09c-2.18 0-3.55-.42-3.82-3.116-.082-.817-.152-1.49-.152-2.425 0-.942.07-1.62.15-2.43.272-2.698 1.642-3.12 3.822-3.12h.09c2.188 0 3.55.422 3.826 3.12.083.81.15 1.488.15 2.43 0 .936-.067 1.608-.15 2.424zm19.886-10.74h-2.873c-.332 0-.43.11-.45.41-.128 2.12-.582 4.584-1.23 6.784-.677 2.28-1.53 4.447-2.36 6.058-.828-1.61-1.685-3.78-2.36-6.058-.656-2.216-1.107-4.698-1.24-6.827-.015-.304-.184-.367-.47-.367h-2.895c-.312 0-.395.145-.372.455.406 5.71 2.182 10.144 5.264 15.902.105.203.268.28.54.28h3.084c.264 0 .375-.09.495-.295 1.994-3.758 5.047-10.184 5.255-16.008.006-.234-.088-.334-.388-.334zm45.34.367c-.946-.408-2.388-.682-4.253-.682h-.238c-1.13 0-2.68.14-4.17.41-.257.042-.35.173-.35.465v2.125c0 .265.133.36.438.312 1.305-.197 2.657-.332 3.696-.332h.14c1.474 0 2.656.135 3.376.616.705.48 1.063 1.193 1.063 2.742v.458a18.09 18.09 0 0 0-3.568-.377h-.31c-1.986 0-3.845.477-5.033 1.586-.91.853-1.51 2.135-1.51 3.774v.145c0 3.295 2.278 5.327 6.893 5.327h.825c1.814 0 3.548-.543 4.588-1.403 1.193-.99 1.653-2.448 1.653-4.79v-4.768c0-3.25-1.265-4.756-3.242-5.61zm-.297 10.297c0 1.247-.04 1.98-.498 2.503-.474.545-1.325.81-2.476.81h-.564c-2.134 0-3.365-.857-3.365-2.492 0-.752.3-1.42.753-1.815.54-.464 1.33-.692 2.687-.692h.297c1.03 0 2.2.104 3.168.358v1.328zm14.808-10.98h-1.908c-2.745 0-4.88.953-5.797 2.935-.4.854-.52 2.005-.52 3.242v10.443c0 .237.114.33.35.33h2.846c.237 0 .345-.093.345-.33V20.42c0-1.23.025-2.13.088-2.687.16-1.446 1.037-2.128 3.09-2.128h1.517c.242 0 .35-.13.35-.36v-2.35c0-.242-.12-.36-.362-.36zm-56.18.32c-.238 0-.358.093-.358.324l.008 15.977c0 .237.112.33.35.33h2.843c.24 0 .35-.093.35-.33V13.178c0-.23-.112-.324-.35-.324h-2.844zm27.937 13.564c-1.134 0-1.825-.27-2.25-.722-.566-.59-.68-1.55-.68-2.69V15.8h3.13c.242 0 .357-.09.357-.325v-2.3c0-.23-.115-.32-.357-.32h-3.13V9.867c0-.23-.12-.323-.352-.323h-2.853c-.234 0-.346.092-.346.323v13.334c0 2.317.462 3.803 1.48 4.813.96.948 2.458 1.47 4.62 1.47h.754c.246 0 .377-.133.377-.346v-2.375c0-.213-.13-.347-.376-.347h-.374zm-13.926-6.705c-.91-.337-1.62-.6-2.248-.83-1.422-.516-1.816-1.007-1.816-1.735 0-1.208 1.182-1.68 3.084-1.68l.14.007c1.1 0 2.427.152 4.044.45.292.05.463-.013.463-.325v-2.176c0-.288-.076-.367-.37-.433-1.055-.223-2.95-.455-4.02-.455h-.256c-2.228 0-3.88.415-4.98 1.375-.895.78-1.49 1.956-1.49 3.364l-.007.103c0 1.305.456 2.355 1.225 3.076.73.668 1.713 1.09 3.004 1.573.77.283 1.406.52 2.168.787 1.634.582 2.325 1.044 2.325 2.037 0 1.29-1.09 1.97-3.543 1.97h-.088c-1.384 0-2.97-.268-4.368-.718-.29-.09-.452.014-.452.308v2.123c0 .265.05.43.344.532 1.336.465 3.176.722 4.675.722h.11c4.37 0 6.735-1.946 6.735-5.082v-.048c0-1.208-.4-2.308-1.14-3.04-.73-.713-1.836-1.27-3.54-1.904z" fill="#FFF"/><path d="M54.7 14.32C53.792 4.355 49.917 0 45.733 0c-.203 0-.393.01-.596.03-3.045.294-4.9 1.886-4.9 1.886C36.91 4.564 35.53 8.4 34.06 12.463c-.092.247-.177.497-.266.747l-.143.385c-.937 2.588-1.996 5.52-5.032 5.52h-.02c-3.323-.005-4.55-1.836-6.25-4.38l-.173-.25c-.38-.56-.754-1.156-1.155-1.78-2.316-3.65-5.22-8.194-9.597-8.194h-.01c-.26 0-6.404.083-8.878 7.72C.243 19.346.553 28.3 3.222 34.742c1.057 2.56 2.357 4.492 3.56 4.984.29.12.575.17.847.17.757 0 1.395-.402 1.663-.818 1.203-1.868.138-4.467-.762-7.132-.623-1.834-1.405-3.365-1.994-6.525-.487-2.61-.24-5.206.585-5.38.025-.005.045-.005.07-.005.55 0 2.007 1.184 2.99 2.32 1.983 2.27 3.607 5.445 3.84 5.872 2.276 4.122 4.25 7.805 8.595 9.536 1.08.435 2.15.657 3.36.703.15.01.318.01.477.01 2.488 0 5.125-.816 6.873-2.134 1.016-.762 2.03-2.027 2.776-3.464.67-1.28 1.246-2.69 1.812-4.423.257-.786.488-1.57.72-2.325.622-2.037 1.214-4.032 2.156-5.916 1.577-3.18 4.932-5.748 6.575-5.748.594 0 .967.338.953 1.105-.043 2.354-.882 11.95.16 14.66.485 1.278 1.477 1.986 2.533 1.986.925 0 1.897-.54 2.626-1.704.98-1.557 1.186-5.706 1.257-6.64.142-1.756.25-6.042-.194-9.552zM6.74 36.436l.026.04c.052.07.102.142.155.21.368.497.697.88.975 1.172v.003c.342.374.002.883-.527.734-.036-.012-.074-.02-.11-.034-.657-.266-1.8-1.702-2.87-4.298-2.568-6.198-2.828-14.9-.648-21.642 2.187-6.77 7.453-6.85 7.685-6.85.11 0 .224.005.332.012.356.026.347.158 0 .187-2.25.195-4.288 1.846-5.396 3.403-2.22 3.134-3.863 11.193-2.61 17.71.65 3.41 1.762 7.53 2.99 9.353zm28.15-3.776c-2.61 4.62-8.31 5.216-11.81 3.93-3.894-1.428-5.71-4.895-7.853-8.784l-.105-.187-.08-.16c-1.332-2.49-2.646-4.49-3.912-5.93-.243-.285-2.436-2.756-3.94-2.756-.322 0-.648.066-1.004.24-.467.227-.6.154-.376-.297.48-.938 1.384-1.074 1.97-1.074 1.676 0 2.997 1.136 3.74 1.858 3.32 3.322 4.902 7.46 6.904 10.52 1.823 2.792 3.68 4.617 6.032 5.34 2.797.86 6.737.318 9.704-2.65.938-.938 2.126-2.52.73-.05zm8.882-30.856c-2.133 1.072-3.784 3.636-5 6.083-1.546 3.105-3.937 11.036-4.41 12.113-.468 1.076-1.577 2.75-4.15 2.783-2.538.03-4.424-.583-6.703-3.883-.573-.825-.702-1.27.292-.276.995.996 2.604 1.748 4.792 1.75h.027c3.92 0 5.25-3.67 6.22-6.352l.136-.384c.056-.155.116-.313.168-.47l.097-.277.02-.045c1.4-3.87 2.727-7.53 5.76-9.942l.025-.016.01-.01c.01-.01.95-.783 2.53-1.26.5-.154.78-.112.187.187zm6.786 24.474c-.003.047-.003.096-.007.142v.01c-.007.57-.007 1.1.02 1.58.027.845.086 1.578.136 2.098v.004c.058.625-.597.585-.948-.085a4.03 4.03 0 0 1-.106-.25c-.727-1.89-.348-8.603-.188-11.83.155-3.108.005-4.084-.605-4.712-.15-.153-.055-.32.148-.243 1.424.556 1.698 2.108 1.866 3.238.307 2.038-.203 6.348-.308 9.704v-.004c-.004.118-.008.234-.008.348z" fill="#84BF41"/></g></svg>
