<svg viewBox="0 0 60 40" xmlns="http://www.w3.org/2000/svg"><title>MasterCard</title><g fill="none" fill-rule="evenodd"><path d="M54.19 39.29v.105h.094c.022 0 .04-.005.053-.013.012-.008.02-.022.02-.04 0-.017-.008-.03-.02-.038-.013-.008-.03-.013-.053-.013h-.095zm.096-.07c.05 0 .088.01.114.032.028.022.04.052.04.09 0 .033-.01.06-.03.08-.023.02-.053.033-.093.038l.127.147h-.1l-.117-.146h-.038v.147h-.084v-.388h.18zm-.025.52c.046 0 .088-.01.126-.026.04-.017.073-.04.103-.07.03-.03.052-.063.068-.103.017-.038.025-.08.025-.126 0-.045-.008-.087-.025-.127-.016-.04-.04-.074-.07-.103-.03-.03-.062-.053-.102-.07-.038-.016-.08-.024-.125-.024s-.088.008-.128.025c-.04.016-.074.04-.104.07-.028.028-.052.063-.07.102-.015.04-.023.082-.023.127s.008.088.024.127c.016.04.04.075.068.104.03.03.065.053.104.07.04.017.083.026.13.026zm0-.744c.06 0 .115.01.166.033.052.02.097.05.135.09.04.037.07.08.093.132.02.05.033.105.033.162 0 .058-.012.11-.033.162-.023.05-.053.095-.092.133-.037.036-.082.066-.134.09-.05.02-.107.032-.165.032-.06 0-.115-.01-.167-.033-.053-.024-.098-.054-.136-.09-.04-.04-.068-.084-.09-.134-.023-.05-.034-.104-.034-.162 0-.057.01-.11.033-.162.023-.05.052-.095.09-.133.04-.04.084-.07.137-.09.052-.023.108-.034.168-.034zm-39.197-1.49c0-.74.483-1.346 1.275-1.346.756 0 1.265.58 1.265 1.345 0 .764-.51 1.345-1.265 1.345-.792 0-1.275-.607-1.275-1.345zm3.402 0v-2.102h-.915v.51c-.29-.378-.73-.616-1.327-.616-1.178 0-2.1.924-2.1 2.207s.922 2.206 2.1 2.206c.598 0 1.038-.236 1.327-.614v.51h.915v-2.1zm30.87 0c0-.74.484-1.346 1.275-1.346.756 0 1.266.58 1.266 1.345 0 .764-.51 1.345-1.266 1.345-.79 0-1.275-.607-1.275-1.345zm3.402 0v-3.79h-.914v2.198c-.29-.378-.73-.616-1.327-.616-1.178 0-2.1.924-2.1 2.207s.922 2.206 2.1 2.206c.597 0 1.037-.236 1.327-.614v.51h.914v-2.1zm-22.933-1.39c.59 0 .967.37 1.063 1.02h-2.18c.097-.607.466-1.02 1.117-1.02zm.018-.818c-1.23 0-2.093.897-2.093 2.207 0 1.336.896 2.206 2.153 2.206.633 0 1.213-.157 1.723-.588l-.45-.677c-.35.282-.798.44-1.22.44-.59 0-1.125-.273-1.257-1.03h3.12c.008-.113.017-.227.017-.35-.01-1.31-.818-2.207-1.995-2.207zm11.03 2.207c0-.738.484-1.345 1.275-1.345.757 0 1.266.58 1.266 1.345 0 .764-.51 1.345-1.266 1.345-.79 0-1.274-.607-1.274-1.345zm3.403 0v-2.1h-.914v.51c-.29-.38-.73-.617-1.327-.617-1.178 0-2.1.924-2.1 2.207s.922 2.206 2.1 2.206c.598 0 1.038-.236 1.328-.614v.51h.915v-2.1zm-8.562 0c0 1.274.888 2.206 2.242 2.206.632 0 1.054-.14 1.512-.5l-.44-.738c-.343.246-.703.378-1.1.378-.73-.01-1.264-.537-1.264-1.345 0-.81.535-1.336 1.265-1.345.396 0 .756.132 1.1.378l.44-.738c-.46-.36-.88-.502-1.513-.502-1.354 0-2.242.932-2.242 2.207zm11.78-2.207c-.528 0-.87.247-1.11.616v-.51h-.904v4.202h.913V37.25c0-.694.3-1.08.897-1.08.185 0 .378.025.57.104l.283-.86c-.203-.08-.467-.116-.65-.116zm-24.49.44c-.44-.29-1.046-.44-1.714-.44-1.065 0-1.75.51-1.75 1.346 0 .685.51 1.107 1.45 1.24l.43.06c.502.07.74.202.74.44 0 .325-.335.51-.96.51-.632 0-1.09-.203-1.397-.44l-.43.712c.5.37 1.134.545 1.82.545 1.212 0 1.915-.57 1.915-1.37 0-.74-.553-1.125-1.468-1.257l-.43-.06c-.396-.054-.712-.133-.712-.415 0-.307.298-.492.8-.492.536 0 1.054.202 1.31.36l.395-.738zm11.787-.44c-.527 0-.87.247-1.107.616v-.51h-.906v4.202h.914V37.25c0-.694.3-1.08.898-1.08.185 0 .378.025.57.104l.283-.86c-.202-.08-.465-.116-.65-.116zm-7.796.106H25.48V34.13h-.924v1.274h-.852v.835h.852v1.915c0 .976.378 1.556 1.46 1.556.395 0 .852-.122 1.142-.324l-.263-.782c-.273.158-.572.237-.81.237-.456 0-.606-.28-.606-.702v-1.9h1.494v-.834zm-13.66 4.202V36.97c0-.995-.633-1.663-1.653-1.672-.535-.008-1.09.16-1.475.748-.29-.466-.748-.748-1.39-.748-.448 0-.887.132-1.23.625v-.52H6.65v4.203h.924v-2.33c0-.73.404-1.116 1.028-1.116.607 0 .914.396.914 1.108v2.338h.924v-2.33c0-.73.422-1.116 1.028-1.116.624 0 .923.396.923 1.108v2.338h.924z" fill="#FFF"/><path fill="#F57D1F" d="M22.68 28.265h13.844V3.383H22.68"/><path d="M54.71 25.63v-.614h-.16l-.184.422-.185-.422h-.16v.614h.114v-.463l.173.4h.117l.173-.4v.463h.113zm-1.015 0v-.51h.205v-.103h-.523v.103h.205v.51h.113zm1.51-9.806c0 8.74-7.085 15.824-15.823 15.824-3.692 0-7.088-1.264-9.78-3.383 3.68-2.897 6.044-7.393 6.044-12.44 0-5.048-2.363-9.544-6.044-12.442C32.294 1.265 35.69 0 39.382 0c8.738 0 15.822 7.085 15.822 15.824z" fill="#F2A837"/><path d="M29.602 3.383C26.91 1.265 23.514 0 19.822 0 11.085 0 4 7.085 4 15.824c0 8.74 7.084 15.824 15.823 15.824 3.69 0 7.087-1.264 9.78-3.383-3.68-2.897-6.045-7.393-6.045-12.44 0-5.048 2.364-9.544 6.044-12.442z" fill="#DE1F31"/></g></svg>