<svg viewBox="0 0 150 35" xmlns="http://www.w3.org/2000/svg"><title>NovoPayment - Light</title><g fill="#FFF" fill-rule="evenodd"><path d="M145.968 27.412h-1.372v-8.386h-2.982v-1.243h7.353v1.243h-3v8.386zm-7.976 0h-1.28l-.03-.04-5.32-7.28v7.32h-1.373v-9.63h1.35l.03.04 5.252 7.127v-7.167h1.37v9.63zm-12.22 0h-6.376v-9.63h6.377v1.244h-5.007v2.844h4.907v1.243h-4.907v3.056h5.007v1.242zm-10.93 0h-1.372v-7.365l-3.047 7.365h-.612l-.025-.062-3.005-7.3v7.362h-1.373v-9.63h1.85l.023.063 2.836 6.88 2.877-6.942h1.848v9.63zm-15.87 0h-1.37v-4.057l-3.81-5.572h1.614l2.874 4.305 2.875-4.305h1.61l-3.793 5.572v4.057zm-6.19 0H91.23l-.835-2.094h-4.56l-.835 2.094H83.44l3.87-9.63h1.59l3.883 9.63zm-6.532-3.336h3.71l-1.848-4.71-1.862 4.71zm-10.173 3.336h-1.372v-9.63h3.89c1.797 0 3.053 1.21 3.053 2.944 0 1.73-1.256 2.94-3.053 2.94h-2.518v3.746zm0-4.99h2.377c1.064 0 1.78-.683 1.78-1.696 0-1.018-.716-1.7-1.78-1.7h-2.377v3.396zm-10.068 5.16c-2.77 0-4.78-2.093-4.78-4.978 0-2.883 2.01-4.976 4.78-4.976 2.768 0 4.78 2.093 4.78 4.976 0 2.885-2.012 4.978-4.78 4.978m0-8.71c-2.014 0-3.366 1.5-3.366 3.732 0 2.198 1.384 3.735 3.365 3.735 1.98 0 3.365-1.538 3.365-3.736 0-2.198-1.384-3.733-3.366-3.733m-10.67 8.542h-1.592l-.023-.062-3.845-9.567h1.558l.023.063 3.09 7.91 3.116-7.973h1.557l-3.884 9.63zm-12.273.17c-2.77 0-4.778-2.093-4.778-4.978 0-2.883 2.007-4.976 4.777-4.976s4.78 2.093 4.78 4.976c0 2.885-2.01 4.978-4.78 4.978m0-8.71c-2.013 0-3.366 1.5-3.366 3.732 0 2.198 1.386 3.735 3.367 3.735 1.98 0 3.366-1.538 3.366-3.736 0-2.198-1.385-3.733-3.366-3.733m-8.387 8.542H33.4l-.03-.04-5.32-7.28v7.32h-1.373v-9.63h1.35l.03.04 5.252 7.127v-7.167h1.37v9.63zM63.292 13.87c.133 0 .24-.025.325-.074.084-.05.152-.133.202-.252l.183-.426-1.513-3.786h.856l1.077 2.765L65.5 9.332h.863l-1.78 4.354c-.122.3-.288.513-.496.638-.21.125-.466.19-.772.194-.066 0-.144-.004-.233-.013-.09-.01-.162-.022-.218-.035l.122-.662c.092.04.194.06.306.06m-4.706-5.942h.802v1.917c.143-.193.317-.342.524-.447.206-.104.426-.156.66-.156.316 0 .597.08.844.237.248.158.44.384.58.677.14.294.21.637.21 1.03 0 .398-.07.742-.21 1.034-.14.29-.332.513-.58.67-.247.155-.528.233-.844.233-.234 0-.454-.053-.66-.16-.207-.107-.38-.254-.524-.443v.504h-.802V7.927zm1.203 4.396c.18.1.362.15.545.15.316 0 .57-.12.76-.36.192-.237.287-.547.287-.928 0-.38-.095-.69-.287-.933-.19-.24-.444-.36-.76-.36-.183 0-.364.05-.542.152-.178.102-.313.228-.405.378v1.537c.087.144.22.266.4.365zm-5.008.195c-.143.19-.317.336-.523.443-.207.107-.428.16-.662.16-.316 0-.6-.077-.848-.232-.25-.157-.445-.38-.584-.67-.14-.29-.21-.636-.21-1.034 0-.393.07-.736.21-1.03.14-.293.334-.518.584-.677.25-.158.532-.237.848-.237.23 0 .447.052.653.156.207.105.384.254.532.448V7.926h.802v5.095h-.802v-.503zm0-2.105c-.092-.15-.227-.274-.405-.374-.178-.1-.362-.148-.55-.148-.316 0-.568.12-.756.36-.187.243-.282.554-.282.934s.095.69.283.93c.19.238.44.358.757.358.188 0 .372-.05.55-.146.178-.096.313-.22.405-.37v-1.544zm-6.84-.212c.16-.292.382-.526.667-.7.284-.172.606-.26.962-.26.362 0 .68.086.955.26.275.172.488.412.638.713.15.304.226.65.226 1.037v.19h-2.85c.03.306.15.56.36.764.208.204.48.305.817.305.188 0 .38-.037.57-.107.19-.072.35-.17.477-.3l.367.52c-.183.162-.404.286-.664.37-.26.085-.537.128-.833.128-.366.002-.697-.08-.99-.24-.292-.162-.522-.39-.69-.686-.17-.296-.253-.635-.253-1.018 0-.357.08-.68.24-.976m.89-.054c-.177.195-.275.423-.293.683h2.074c-.004-.16-.045-.313-.12-.463-.078-.15-.192-.275-.345-.37-.153-.098-.344-.146-.573-.146-.316.002-.563.1-.74.296m-3.553-.814h.8v.542c.143-.184.322-.335.536-.454.214-.12.435-.18.664-.18v.74c-.07-.014-.155-.022-.252-.022-.168 0-.348.05-.54.152-.19.102-.326.217-.407.347v2.564h-.8V9.333zm-4.245.868c.16-.292.383-.526.67-.7.284-.172.604-.26.96-.26.363 0 .68.086.956.26.276.172.49.412.64.713.15.304.224.65.224 1.037v.19h-2.85c.03.306.15.56.36.764.21.204.48.305.817.305.19 0 .38-.037.57-.107.19-.072.35-.17.478-.3l.366.52c-.183.162-.404.286-.664.37-.26.085-.538.128-.833.128-.366.002-.696-.08-.99-.24-.292-.162-.522-.39-.69-.686-.168-.296-.252-.635-.252-1.018 0-.357.08-.68.24-.976m.89-.054c-.178.195-.276.423-.294.683h2.075c-.005-.16-.046-.313-.122-.463-.076-.15-.19-.275-.344-.37-.154-.098-.345-.146-.574-.146-.316.002-.563.1-.74.296m-4.302.17l-.856 2.705h-.84l-1.146-3.688h.833l.78 2.68.877-2.68h.703l.88 2.68.778-2.68h.833l-1.146 3.69h-.84l-.856-2.705zm-6.07 2.545c-.287-.172-.508-.408-.664-.703-.155-.296-.233-.622-.233-.98 0-.352.078-.677.233-.973.156-.295.377-.53.665-.704.288-.173.62-.26.997-.26.382 0 .717.087 1.005.26.287.174.508.408.664.7.156.294.234.62.234.977 0 .358-.078.684-.233.98-.155.295-.376.53-.663.704-.288.175-.623.26-1.005.26-.377 0-.71-.085-.997-.26m1.78-.762c.19-.25.286-.557.286-.92 0-.36-.094-.665-.285-.914-.19-.25-.452-.374-.783-.374-.326 0-.585.124-.776.374-.19.25-.286.554-.286.913 0 .364.095.67.286.92.19.25.45.375.776.375.33 0 .592-.125.783-.374M26.38 7.926h2.238c.346 0 .644.07.894.214.25.142.44.336.572.58.133.245.2.513.2.803 0 .29-.067.557-.2.802-.132.245-.324.438-.576.58-.252.143-.55.214-.89.214h-1.345v1.902h-.894V7.926zm2.742.96c-.163-.16-.372-.24-.627-.24h-1.222V10.4h1.222c.255 0 .464-.08.627-.24.163-.16.244-.374.244-.64 0-.264-.08-.477-.244-.637zM0 22.198v4.976c0 .228.173.415.384.415h19.924c.21 0 .383-.188.383-.416v-4.976H0zm0-1.245h20.69v-4.566H0v4.566zm0-5.81l20.69-.002v-3.774H0v3.776zm0-7.73v2.708h20.69V7.415c0-.23-.17-.414-.382-.414H.384C.174 7 0 7.185 0 7.414"/></g></svg>